<svg width="56" height="56" viewBox="0 0 56 56" fill="none" xmlns="http://www.w3.org/2000/svg">
<g filter="url(#filter0_d_3433_103500)">
<path d="M8 24C8 12.9543 16.9543 4 28 4C39.0457 4 48 12.9543 48 24C48 35.0457 39.0457 44 28 44C16.9543 44 8 35.0457 8 24Z" fill="white"/>
<path d="M22 29.5898L23.41 30.9998L28 26.4198L32.59 30.9998L34 29.5898L28 23.5898L22 29.5898Z" fill="#777E91"/>
<path d="M22 23L23.41 24.41L28 19.83L32.59 24.41L34 23L28 17L22 23Z" fill="#777E91"/>
</g>
<defs>
<filter id="filter0_d_3433_103500" x="0" y="0" width="56" height="56" filterUnits="userSpaceOnUse" color-interpolation-filters="sRGB">
<feFlood flood-opacity="0" result="BackgroundImageFix"/>
<feColorMatrix in="SourceAlpha" type="matrix" values="0 0 0 0 0 0 0 0 0 0 0 0 0 0 0 0 0 0 127 0" result="hardAlpha"/>
<feOffset dy="4"/>
<feGaussianBlur stdDeviation="4"/>
<feComposite in2="hardAlpha" operator="out"/>
<feColorMatrix type="matrix" values="0 0 0 0 0 0 0 0 0 0 0 0 0 0 0 0 0 0 0.08 0"/>
<feBlend mode="normal" in2="BackgroundImageFix" result="effect1_dropShadow_3433_103500"/>
<feBlend mode="normal" in="SourceGraphic" in2="effect1_dropShadow_3433_103500" result="shape"/>
</filter>
</defs>
</svg>
