<svg width="24" height="24" viewBox="0 0 24 24" fill="none" xmlns="http://www.w3.org/2000/svg">
<path fill-rule="evenodd" clip-rule="evenodd" d="M12.9005 1.70128L12.2024 2.40264L12.3785 2.94448L12.5547 3.48632L9.43798 6.60384C7.39542 8.64696 6.26598 9.72104 6.16086 9.7204C6.07262 9.71992 5.80246 9.66656 5.56046 9.60184L5.12046 9.48432L4.42054 10.1833C4.03411 10.5692 4.03394 11.1954 4.42016 11.5816L7.58158 14.7425L10.7374 17.8977C11.1265 18.2868 11.7576 18.286 12.1458 17.896L12.8493 17.1894L12.7132 16.6474L12.577 16.1054L13.7887 14.8938L15.0004 13.6821L17.8209 16.5018L19.9417 18.622C20.3282 19.0084 20.9546 19.0083 21.341 18.6219C21.7274 18.2355 21.7275 17.6091 21.3411 17.2226L19.2209 15.1018L16.4012 12.2813L17.6516 11.0309L18.902 9.78048L19.4097 9.95192L19.9174 10.1234L20.6188 9.42192C21.0062 9.03453 21.0061 8.40645 20.6187 8.0191L17.4593 4.86024L14.2982 1.69958C13.912 1.31347 13.2857 1.31423 12.9005 1.70128ZM16.0808 6.28168L17.8397 8.04192L14.3001 11.5814L10.7605 15.121L8.98078 13.3413L10.7204 8.04144C12.6561 6.10536 14.2582 4.52136 14.2808 4.52136C14.3033 4.52136 15.1133 5.31352 16.0808 6.28168Z" fill="#777E91"/>
<path d="M11 16L7 11L14 3.5L19 8L11 16Z" fill="#777E91"/>
<path d="M12.25 22.5H1.75C1.33579 22.5 1 22.1642 1 21.75C1 21.3358 1.33579 21 1.75 21H12.25C12.6642 21 13 21.3358 13 21.75C13 22.1642 12.6642 22.5 12.25 22.5Z" fill="#777E91"/>
</svg>
