<svg width="13" height="10" viewBox="0 0 13 10" fill="none" xmlns="http://www.w3.org/2000/svg">
<path d="M10.456 0.455224C10.6673 0.254057 10.9485 0.142844 11.2402 0.145052C11.5319 0.147259 11.8114 0.262715 12.0196 0.467056C12.2279 0.671397 12.3486 0.94864 12.3563 1.24029C12.364 1.53193 12.2581 1.81517 12.061 2.03022L6.07597 9.51523C5.97306 9.62607 5.84885 9.71503 5.71077 9.77677C5.57269 9.83852 5.42358 9.87179 5.27235 9.87459C5.12112 9.87739 4.97087 9.84966 4.8306 9.79307C4.69033 9.73648 4.56292 9.65219 4.45597 9.54522L0.486969 5.57622C0.376439 5.47323 0.287785 5.34903 0.226297 5.21103C0.16481 5.07303 0.131747 4.92406 0.129081 4.77301C0.126416 4.62195 0.154203 4.47191 0.210785 4.33183C0.267367 4.19175 0.351583 4.0645 0.458412 3.95767C0.56524 3.85084 0.69249 3.76662 0.832573 3.71004C0.972655 3.65346 1.1227 3.62567 1.27375 3.62834C1.42481 3.631 1.57378 3.66406 1.71178 3.72555C1.84978 3.78704 1.97398 3.87569 2.07697 3.98622L5.21797 7.12572L10.4275 0.488224C10.4368 0.476676 10.4469 0.465658 10.4575 0.455224H10.456Z" fill="#45B36B"/>
</svg>
