<svg width="24" height="24" viewBox="0 0 24 24" fill="none" xmlns="http://www.w3.org/2000/svg">
<path d="M12 22C17.5417 22 22 17.5417 22 12C22 6.4583 17.5417 2 12 2C6.4583 2 2 6.4583 2 12C2 17.5417 6.4583 22 12 22Z" fill="#2775CA"/>
<path d="M14.7513 13.583C14.7513 12.1247 13.8763 11.6247 12.1263 11.4164C10.8763 11.2497 10.6263 10.9164 10.6263 10.333C10.6263 9.74961 11.043 9.37471 11.8763 9.37471C12.6263 9.37471 13.043 9.62471 13.2513 10.2497C13.293 10.3747 13.418 10.458 13.543 10.458H14.2096C14.3763 10.458 14.5013 10.333 14.5013 10.1664V10.1247C14.3346 9.20801 13.5846 8.49971 12.6263 8.41641V7.41641C12.6263 7.24971 12.5013 7.12471 12.293 7.08301H11.668C11.5013 7.08301 11.3763 7.20801 11.3346 7.41641V8.37471C10.0846 8.54141 9.29297 9.37471 9.29297 10.4164C9.29297 11.7914 10.1263 12.333 11.8763 12.5414C13.043 12.7497 13.418 12.9997 13.418 13.6664C13.418 14.3331 12.8346 14.7914 12.043 14.7914C10.9596 14.7914 10.5846 14.333 10.4596 13.708C10.418 13.5414 10.293 13.458 10.168 13.458H9.45957C9.29297 13.458 9.16797 13.583 9.16797 13.7497V13.7914C9.33457 14.833 10.0013 15.583 11.3763 15.7914V16.7914C11.3763 16.958 11.5013 17.083 11.7096 17.1247H12.3346C12.5013 17.1247 12.6263 16.9997 12.668 16.7914V15.7914C13.918 15.583 14.7513 14.708 14.7513 13.583Z" fill="white"/>
<path d="M9.87581 17.9586C6.62581 16.792 4.95911 13.167 6.16751 9.95859C6.79251 8.20859 8.16751 6.87529 9.87581 6.25029C10.0425 6.16699 10.1258 6.04199 10.1258 5.83359V5.25029C10.1258 5.08359 10.0425 4.95859 9.87581 4.91699C9.83411 4.91699 9.75081 4.91699 9.70911 4.95859C5.75081 6.20859 3.58411 10.417 4.83411 14.3753C5.58411 16.7086 7.37581 18.5003 9.70911 19.2503C9.87581 19.3336 10.0425 19.2503 10.0841 19.0836C10.1258 19.042 10.1258 19.0003 10.1258 18.917V18.3336C10.1258 18.2086 10.0008 18.042 9.87581 17.9586ZM14.2925 4.95859C14.1258 4.87529 13.9591 4.95859 13.9175 5.12529C13.8758 5.16699 13.8758 5.20859 13.8758 5.29199V5.87529C13.8758 6.04199 14.0008 6.20859 14.1258 6.29199C17.3758 7.45859 19.0425 11.0836 17.8341 14.292C17.2091 16.042 15.8341 17.3753 14.1258 18.0003C13.9591 18.0836 13.8758 18.2086 13.8758 18.417V19.0003C13.8758 19.167 13.9591 19.292 14.1258 19.3336C14.1675 19.3336 14.2508 19.3336 14.2925 19.292C18.2508 18.042 20.4175 13.8336 19.1675 9.87529C18.4175 7.50029 16.5841 5.70859 14.2925 4.95859Z" fill="white"/>
</svg>
