<svg width="14" height="15" viewBox="0 0 14 15" fill="none" xmlns="http://www.w3.org/2000/svg">
<path fill-rule="evenodd" clip-rule="evenodd" d="M8.33331 8.13213C8.33331 8.00052 8.37226 7.87185 8.44527 7.76233L11.8176 2.70378C12.113 2.26075 11.7954 1.66732 11.2629 1.66732H2.73701C2.20454 1.66732 1.88695 2.26075 2.18231 2.70378L5.55467 7.76233C5.62768 7.87185 5.66664 8.00052 5.66664 8.13213V12.0588C5.66664 12.5824 6.24261 12.9017 6.68664 12.6242L8.01997 11.7908C8.21489 11.669 8.33331 11.4553 8.33331 11.2255V8.13213ZM9.66664 8.53584C9.66664 8.40422 9.7056 8.27555 9.77861 8.16603L12.927 3.44338C13.8131 2.11427 12.8603 0.333984 11.2629 0.333984H2.73701C1.13962 0.333984 0.186832 2.11427 1.0729 3.44338L4.22134 8.16603C4.29435 8.27555 4.33331 8.40422 4.33331 8.53584V12.0588C4.33331 13.6297 6.06121 14.5874 7.3933 13.7548L8.72664 12.9215C9.3114 12.556 9.66664 11.9151 9.66664 11.2255V8.53584Z" fill="#23262F"/>
</svg>
