<svg width="40" height="41" viewBox="0 0 40 41" fill="none" xmlns="http://www.w3.org/2000/svg">
<path fill-rule="evenodd" clip-rule="evenodd" d="M17.9091 15.7652C17.5032 15.3906 16.8706 15.4159 16.496 15.8217L13.2652 19.3217C12.9116 19.7047 12.9116 20.2952 13.2652 20.6782L16.496 24.1783C16.8706 24.5841 17.5032 24.6094 17.909 24.2348C18.3149 23.8602 18.3402 23.2276 17.9656 22.8217L16.284 21L26 21C26.5523 21 27 20.5523 27 20C27 19.4477 26.5523 19 26 19L16.284 19L17.9656 17.1783C18.3402 16.7725 18.3149 16.1398 17.9091 15.7652Z" fill="#23262F"/>
<rect x="1" y="1.5" width="38" height="38" rx="19" stroke="#E6E8EC" stroke-width="2"/>
</svg>
