<svg width="489" height="397" viewBox="0 0 489 397" fill="none" xmlns="http://www.w3.org/2000/svg">
<g clip-path="url(#clip0_3388_103239)">
<g filter="url(#filter0_d_3388_103239)">
<path d="M86.3708 193.211L210.939 121.293C215.387 118.723 219.788 117.878 225.554 121.209L401.693 222.903C406.005 225.393 406.005 228.78 401.567 231.345L276.975 303.272C274.06 304.978 266.706 305.814 262.304 303.272L86.3475 201.682C80.4886 198.299 81.9557 195.762 86.3708 193.211Z" fill="url(#paint0_linear_3388_103239)"/>
<path d="M83.4224 196.589C81.2312 201.999 81.7358 180.98 83.4037 184.783L93.6777 190.716V202.518L83.4224 196.589Z" fill="#EBE5FD"/>
<path d="M86.3708 181.339L210.939 109.421C215.387 106.852 219.788 106.006 225.554 109.337L401.693 211.031C406.005 213.521 406.005 216.908 401.567 219.473L276.975 291.401C274.06 293.106 266.706 293.942 262.304 291.401L86.3475 189.81C80.4886 186.427 81.9557 183.89 86.3708 181.339Z" fill="#FCFCFD"/>
<path d="M404.537 227.911C405.71 228.504 405.453 212.736 404.537 214.367L395.739 219.445V224.524L403.07 228.757L404.537 227.911Z" fill="#D9DAF9"/>
<path d="M218.652 107.155C215.928 107.076 213.442 107.973 210.938 109.417L196.323 117.854L386.942 227.906L401.565 219.464C406.004 216.899 406.004 213.512 401.692 211.021L225.552 109.328C223.029 107.879 220.768 107.221 218.652 107.155Z" fill="#F6ECFF"/>
<path d="M215.387 115.317C221.251 111.93 228.586 116.163 222.718 119.55C216.854 122.938 209.524 118.705 215.387 115.317Z" fill="#FFB997"/>
<path d="M225.651 121.242C231.514 117.854 238.849 122.087 232.981 125.475C227.118 128.862 219.787 124.629 225.651 121.242Z" fill="#FF8347"/>
<path d="M235.907 127.18C241.761 123.774 249.106 127.988 243.251 131.39C237.397 134.796 230.053 130.586 235.907 127.18Z" fill="#EE4E00"/>
</g>
<path d="M386.946 107.697L423.604 128.862V137.328L386.946 116.163V107.697Z" fill="url(#paint1_linear_3388_103239)"/>
<path d="M386.946 121.242L430.934 146.639V155.105L386.946 129.708V121.242Z" fill="#CDD3F7"/>
<path d="M386.946 134.791L438.265 164.422V172.887L386.946 143.252V134.791Z" fill="url(#paint2_linear_3388_103239)"/>
<path d="M386.946 148.335L416.273 165.267V173.733L386.946 156.801V148.335Z" fill="#CDD3F7"/>
<path d="M386.946 161.88L445.6 195.743V204.209L386.946 170.346V161.88Z" fill="url(#paint3_linear_3388_103239)"/>
<path d="M386.946 175.424L423.604 196.589V205.055L386.946 183.89V175.424Z" fill="#CDD3F7"/>
<g filter="url(#filter1_d_3388_103239)">
<path d="M27.2307 320.786V313.806L34.052 314.605C35.7246 319.062 31.9869 320.235 27.2307 320.786Z" fill="#E0DFFB"/>
<path d="M78.4563 249.455V264.542C70.7162 264.859 63.4275 266.222 57.0126 268.402L42.291 259.903L27.2238 268.604L41.302 276.728C37.2975 279.984 34.4261 283.719 33.0528 287.743H12.1565V301.667H34.3494C36.1067 305 38.9396 308.37 43.0305 311.683L27.2238 320.806L42.291 329.507L57.6848 320.614C64.5126 323.793 71.5229 325.915 78.4563 327.125V341.683H93.5236V338.207V328.412C103.914 328.364 113.623 326.405 121.641 323.121L132.704 329.507L147.772 320.806L136.056 314.046C139.82 310.348 142.192 306.133 142.74 301.667H162.839V287.743H138.428C136.277 284.891 133.271 282.029 129.362 279.234L144.756 270.342L129.689 261.642L113.882 270.765C107.15 267.999 100.284 266.222 93.5236 265.281V249.455H78.4563ZM84.199 277.784C92.1119 277.784 100.678 279.686 108.591 284.257C140.233 302.532 98.0467 326.885 66.3949 308.62C42.6656 294.916 60.4601 277.784 84.199 277.784Z" fill="url(#paint4_linear_3388_103239)"/>
<path d="M78.4464 242.493V257.58C70.7063 257.896 63.4176 259.26 57.0028 261.44L42.2811 252.941L27.2139 261.632L41.2921 269.756C37.2876 273.012 34.4162 276.747 33.043 280.771H12.1467V294.695H34.3395C36.0968 298.028 38.9297 301.398 43.0206 304.712L27.2139 313.834L42.2811 322.535L57.6749 313.642C64.5027 316.821 71.513 318.943 78.4464 320.153V334.712H93.5138V331.235V321.44C103.904 321.392 113.613 319.433 121.632 316.149L132.694 322.535L147.762 313.834L136.046 307.074C139.81 303.377 142.182 299.161 142.73 294.695H162.829V280.771H138.418C136.267 277.919 133.261 275.057 129.352 272.263L144.746 263.37L129.679 254.67L113.872 263.793C107.141 261.027 100.274 259.25 93.5138 258.309V242.483L78.4464 242.493ZM84.1987 270.822C92.1116 270.822 100.678 272.724 108.591 277.295C140.233 295.569 98.0464 319.923 66.3946 301.658C42.6654 287.954 60.4598 270.822 84.1987 270.822Z" fill="url(#paint5_linear_3388_103239)"/>
<path d="M27.2134 261.632V268.594L36.2499 273.818V266.856L27.2134 261.632Z" fill="#F6ECFF"/>
<path d="M144.756 270.332V263.37L138.725 266.847L144.756 270.332Z" fill="#D1D6F8"/>
<path d="M147.772 313.834V320.797L141.741 317.32L147.772 313.834Z" fill="#F6ECFF"/>
</g>
<g filter="url(#filter2_d_3388_103239)">
<path d="M187.219 320.751V328.376C183.307 328.536 179.624 329.225 176.382 330.327L168.942 326.032L161.327 330.429L168.442 334.534C166.418 336.18 164.967 338.068 164.273 340.101H153.712V347.138H164.928C165.816 348.822 167.248 350.526 169.315 352.2L161.327 356.811L168.942 361.208L176.721 356.714C180.172 358.32 183.715 359.393 187.219 360.004V367.362H194.834V365.605V360.655C200.085 360.63 204.992 359.64 209.044 357.981L214.635 361.208L222.25 356.811L216.329 353.394C218.231 351.526 219.43 349.395 219.707 347.138H229.865V340.101H217.528C216.441 338.66 214.921 337.213 212.946 335.801L220.726 331.307L213.111 326.91L205.123 331.521C201.721 330.123 198.25 329.225 194.834 328.749V320.751H187.219ZM190.121 335.068C194.12 335.068 198.449 336.029 202.449 338.339C218.44 347.575 197.12 359.883 181.123 350.652C169.131 343.727 178.124 335.068 190.121 335.068Z" fill="url(#paint6_linear_3388_103239)"/>
<path d="M161.332 353.283V356.801L165.491 355.573L163.681 353.103L161.332 353.283Z" fill="url(#paint7_linear_3388_103239)"/>
<path d="M187.219 317.237V324.862C183.307 325.022 179.624 325.711 176.382 326.813L168.942 322.518L161.327 326.915L168.442 331.021C166.418 332.666 164.967 334.554 164.273 336.587H153.712V343.625H164.928C165.816 345.309 167.248 347.012 169.315 348.687L161.327 353.297L168.942 357.694L176.721 353.2C180.172 354.807 183.715 355.879 187.219 356.491V363.848H194.834V362.091V357.141C200.085 357.117 204.992 356.127 209.044 354.467L214.635 357.694L222.25 353.297L216.334 349.88C218.236 348.012 219.435 345.881 219.712 343.625H229.869V336.587H217.533C216.445 335.146 214.926 333.7 212.951 332.287L220.731 327.793L213.116 323.396L205.128 328.007C201.725 326.609 198.255 325.711 194.839 325.236V317.237H187.219ZM190.121 331.555C194.12 331.555 198.449 332.516 202.449 334.826C218.44 344.061 197.12 356.369 181.123 347.138C169.131 340.208 178.124 331.555 190.121 331.555Z" fill="url(#paint8_linear_3388_103239)"/>
<path d="M161.321 326.91V330.429L165.888 333.069V329.55L161.321 326.91Z" fill="url(#paint9_linear_3388_103239)"/>
<path d="M220.726 331.307V327.788L217.678 329.545L220.726 331.307Z" fill="url(#paint10_linear_3388_103239)"/>
<path d="M222.25 353.292V356.811L219.202 355.054L222.25 353.292Z" fill="url(#paint11_linear_3388_103239)"/>
</g>
<g filter="url(#filter3_d_3388_103239)">
<path d="M275.537 320.044V325.12C272.932 325.227 270.48 325.686 268.322 326.419L263.368 323.56L258.298 326.487L263.035 329.221C261.688 330.316 260.722 331.573 260.26 332.927H253.229V337.612H260.696C261.287 338.733 262.24 339.868 263.617 340.982L258.298 344.052L263.368 346.98L268.548 343.987C270.845 345.057 273.204 345.771 275.537 346.178V351.077H280.607V349.907V346.611C284.103 346.595 287.37 345.936 290.068 344.831L293.79 346.98L298.86 344.052L294.918 341.777C296.184 340.533 296.982 339.115 297.167 337.612H303.93V332.927H295.716C294.992 331.967 293.981 331.004 292.666 330.064L297.845 327.072L292.775 324.145L287.457 327.214C285.192 326.284 282.881 325.686 280.607 325.369V320.044H275.537ZM277.469 329.576C280.132 329.576 283.014 330.216 285.676 331.754C296.323 337.903 282.129 346.097 271.478 339.952C263.494 335.341 269.485 329.576 277.469 329.576Z" fill="url(#paint12_linear_3388_103239)"/>
<path d="M275.537 317.705V322.781C272.932 322.888 270.48 323.346 268.322 324.08L263.368 321.22L258.298 324.148L263.035 326.881C261.688 327.977 260.722 329.234 260.26 330.588H253.229V335.273H260.696C261.287 336.394 262.24 337.528 263.617 338.643L258.298 341.713L263.368 344.64L268.548 341.648C270.845 342.718 273.204 343.432 275.537 343.839V348.737H280.607V347.568V344.272C284.103 344.256 287.37 343.596 290.068 342.491L293.79 344.64L298.86 341.713L294.921 339.438C296.188 338.194 296.986 336.775 297.17 335.273H303.933V330.588H295.719C294.995 329.628 293.984 328.665 292.669 327.725L297.848 324.733L292.779 321.805L287.46 324.875C285.195 323.944 282.885 323.346 280.61 323.03V317.705H275.537ZM277.469 327.237C280.132 327.237 283.014 327.877 285.676 329.415C296.323 335.564 282.129 343.758 271.478 337.612C263.494 332.998 269.485 327.237 277.469 327.237Z" fill="url(#paint13_linear_3388_103239)"/>
<path d="M258.298 324.145V326.487L261.339 328.245V325.902L258.298 324.145Z" fill="url(#paint14_linear_3388_103239)"/>
<path d="M297.845 327.072V324.729L295.816 325.899L297.845 327.072Z" fill="url(#paint15_linear_3388_103239)"/>
<path d="M298.859 341.709V344.052L296.83 342.882L298.859 341.709Z" fill="url(#paint16_linear_3388_103239)"/>
</g>
<path d="M240.316 92.4614L364.95 164.422V96.6944L240.316 24.7343V92.4614Z" fill="url(#paint17_linear_3388_103239)"/>
<path d="M263.774 72.1424C263.774 55.2106 278.435 63.6765 278.435 80.6082C278.435 97.54 263.774 89.0741 263.774 72.1424Z" fill="white"/>
<path d="M285.772 84.8412C285.772 67.9094 300.433 76.3753 300.433 93.3071C300.433 110.239 285.772 101.773 285.772 84.8412Z" fill="#FFB997"/>
<path d="M308.052 97.3718C308.052 80.4401 322.713 88.9059 322.713 105.838C322.713 122.77 308.052 114.304 308.052 97.3718Z" fill="#FF8347"/>
<path d="M328.292 109.393C328.292 92.4614 342.953 100.927 342.953 117.859C342.953 134.791 328.292 126.325 328.292 109.393Z" fill="#EE4E00"/>
<path d="M-0.000732422 212.615V119.055C-0.000732422 114.406 4.40041 108.477 7.24574 106.833L80.7243 64.41C85.0413 61.9151 87.9754 61.9151 87.9754 68.6009V127.797C87.9988 133.015 86.5084 137.262 80.7383 140.594L17.8655 176.896C14.6604 178.746 13.1934 182.979 13.2214 182.895L3.65754 210.498C2.93336 212.605 -0.000732422 217.684 -0.000732422 212.615Z" fill="url(#paint18_linear_3388_103239)"/>
<path d="M0.508545 214.596L7.69428 218.894L12.1048 202.775L2.32133 197.346L0.508545 214.596Z" fill="#CED4F7"/>
<path d="M80.3599 64.5828L89.2743 69.7315L93.6007 67.6244C87.2606 60.0509 84.1256 63.9428 80.3599 64.5828Z" fill="#F6ECFF"/>
<path d="M7.17603 216.913V123.354C7.17603 118.705 11.5772 112.776 14.4225 111.131L87.901 68.7083C92.2181 66.2134 95.1522 66.2134 95.1522 72.8992V132.095C95.1755 137.314 93.6851 141.561 87.9151 144.892L25.0422 181.194C21.8372 183.045 20.3701 187.278 20.3981 187.193L10.8343 214.796C10.1055 216.904 7.17603 221.987 7.17603 216.913Z" fill="url(#paint19_linear_3388_103239)"/>
<path d="M48.2296 106.852L59.9613 100.077L57.0272 145.789L51.1637 149.176L48.2296 106.852Z" fill="#F8885B"/>
<path d="M51.1631 152.568L57.0266 149.181V155.956L51.1631 159.343V152.568Z" fill="#F8885B"/>
<path d="M49.6981 104.315L61.4298 97.54L58.4957 143.257L52.6322 146.644L49.6981 104.315Z" fill="#FDE1D5"/>
<path d="M52.6278 150.027L58.4913 146.639V153.414L52.6278 156.801V150.027Z" fill="#FDE1D5"/>
<g filter="url(#filter4_d_3388_103239)">
<path d="M420.138 240.822L437.831 230.609C440.644 228.987 443.573 228.987 446.428 230.632L465.57 241.682C468.504 243.373 469.971 245.915 465.57 248.456L449.423 257.777C445.083 260.328 439.177 260.305 434.65 257.693L419.979 249.222C415.714 246.76 415.714 243.373 420.138 240.822Z" fill="url(#paint20_linear_3388_103239)"/>
<path d="M416.938 246.041C416.798 246.452 416.443 240.238 416.938 239.729H421.731L419.867 246.681L416.938 246.041Z" fill="#E1DFFB"/>
<path d="M468.083 245.517C468.611 246.256 468.597 240.364 468.265 239.462L463.317 239.518L465.182 246.471L468.083 245.517Z" fill="#D8DAF9"/>
<path d="M420.138 235.743L437.831 225.53C440.644 223.909 443.573 223.909 446.428 225.553L465.57 236.603C468.504 238.294 469.971 240.836 465.57 243.378L449.423 252.698C445.083 255.249 439.177 255.226 434.65 252.614L419.979 244.144C415.714 241.682 415.714 238.294 420.138 235.743Z" fill="url(#paint21_linear_3388_103239)"/>
</g>
<g filter="url(#filter5_d_3388_103239)">
<path d="M440.535 280.009L458.229 269.795C461.041 268.174 463.971 268.174 466.825 269.819L485.967 280.868C488.901 282.56 490.368 285.101 485.967 287.643L469.82 296.964C465.48 299.515 459.574 299.491 455.047 296.88L440.377 288.409C436.111 285.947 436.111 282.56 440.535 280.009Z" fill="url(#paint22_linear_3388_103239)"/>
<path d="M437.335 285.228C437.195 285.639 436.84 279.425 437.335 278.915H442.129L440.265 285.868L437.335 285.228Z" fill="#E1DFFB"/>
<path d="M488.486 284.704C489.014 285.442 489 279.551 488.668 278.649L483.721 278.705L485.585 285.657L488.486 284.704Z" fill="#D8DAF9"/>
<path d="M440.535 274.925L458.229 264.712C461.041 263.091 463.971 263.091 466.825 264.736L485.967 275.785C488.901 277.476 490.368 280.018 485.967 282.56L469.82 291.881C465.48 294.432 459.574 294.408 455.047 291.797L440.377 283.326C436.111 280.868 436.111 277.481 440.535 274.925Z" fill="url(#paint23_linear_3388_103239)"/>
</g>
<g filter="url(#filter6_d_3388_103239)">
<path d="M374.556 292.703L392.249 282.49C395.062 280.868 397.991 280.868 400.846 282.513L419.988 293.563C422.922 295.254 424.389 297.796 419.988 300.337L403.841 309.658C399.5 312.209 393.595 312.186 389.068 309.574L374.397 301.103C370.131 298.646 370.131 295.259 374.556 292.703Z" fill="url(#paint24_linear_3388_103239)"/>
<path d="M371.356 297.926C371.216 298.338 370.861 292.124 371.356 291.614H376.149L374.285 298.566L371.356 297.926Z" fill="#E1DFFB"/>
<path d="M422.501 297.403C423.029 298.141 423.015 292.25 422.683 291.348L417.735 291.404L419.599 298.356L422.501 297.403Z" fill="#D8DAF9"/>
<path d="M374.556 287.624L392.249 277.411C395.062 275.79 397.991 275.79 400.846 277.434L419.988 288.484C422.922 290.175 424.389 292.717 419.988 295.259L403.841 304.58C399.5 307.131 393.595 307.107 389.068 304.495L374.397 296.025C370.131 293.567 370.131 290.18 374.556 287.624Z" fill="url(#paint25_linear_3388_103239)"/>
</g>
<path d="M193.87 160.843L192.814 166.781C193.211 164.534 192.043 162.226 188.609 160.002C188.469 159.908 188.324 159.819 188.184 159.735V159.731C188.044 159.647 187.908 159.567 187.768 159.492C187.595 159.394 187.427 159.301 187.254 159.207C187.142 159.151 187.03 159.091 186.918 159.039C186.777 158.964 186.637 158.894 186.492 158.829C186.455 158.815 186.413 158.792 186.38 158.778C186.207 158.698 186.035 158.619 185.862 158.544C185.689 158.474 185.516 158.399 185.338 158.338C185.278 158.31 185.222 158.287 185.161 158.268C185.1 158.245 185.044 158.222 184.983 158.208C184.726 158.119 184.469 158.025 184.208 157.955C184.119 157.923 184.03 157.895 183.937 157.867C183.899 157.857 183.857 157.843 183.82 157.834C183.633 157.782 183.437 157.731 183.245 157.68C183.068 157.638 182.89 157.591 182.708 157.553C182.507 157.511 182.316 157.474 182.115 157.437C182.035 157.423 181.96 157.409 181.881 157.399C181.722 157.371 181.568 157.343 181.409 157.325C181.395 157.32 181.381 157.32 181.367 157.315C181.344 157.315 181.325 157.306 181.302 157.306C181.096 157.278 180.891 157.254 180.685 157.231C180.372 157.198 180.064 157.175 179.755 157.156C179.442 157.138 179.124 157.128 178.807 157.128C178.681 157.124 178.554 157.124 178.428 157.124C178.274 157.124 178.12 157.128 177.961 157.133C177.77 157.138 177.578 157.142 177.386 157.156C177.377 157.161 177.372 157.161 177.363 157.161C177.115 157.175 176.858 157.189 176.611 157.212C176.382 157.231 176.144 157.254 175.915 157.282C175.859 157.287 175.798 157.297 175.737 157.306C175.532 157.329 175.317 157.362 175.111 157.395C174.7 157.455 174.289 157.525 173.878 157.61C173.742 157.633 173.597 157.661 173.462 157.698C173.238 157.745 173.013 157.796 172.789 157.852C172.555 157.904 172.327 157.965 172.098 158.025C171.85 158.091 171.598 158.166 171.35 158.236C171.102 158.31 170.85 158.39 170.602 158.469C170.355 158.549 170.112 158.633 169.86 158.717C169.346 158.894 168.841 159.091 168.332 159.301C167.86 159.492 167.388 159.698 166.921 159.918C166.678 160.03 166.44 160.146 166.197 160.263C166.192 160.268 166.192 160.268 166.187 160.268C165.949 160.385 165.715 160.506 165.482 160.628C165.29 160.731 165.094 160.829 164.907 160.936C164.716 161.039 164.519 161.142 164.333 161.254C163.59 161.679 162.889 162.109 162.235 162.548C162.029 162.679 161.828 162.819 161.637 162.959C161.394 163.132 161.155 163.31 160.927 163.487C160.833 163.557 160.74 163.632 160.646 163.702C160.567 163.763 160.487 163.828 160.413 163.894C160.226 164.043 160.048 164.193 159.875 164.351C159.702 164.506 159.53 164.66 159.371 164.819C159.128 165.048 158.903 165.272 158.693 165.501C158.614 165.59 158.534 165.674 158.46 165.762C158.394 165.837 158.329 165.912 158.268 165.991C158.198 166.071 158.137 166.146 158.077 166.23C157.782 166.594 157.525 166.963 157.306 167.328C157.165 167.556 157.044 167.79 156.932 168.014C156.89 168.103 156.848 168.201 156.806 168.29C156.759 168.397 156.712 168.51 156.675 168.612C156.549 168.958 156.455 169.299 156.39 169.65L157.446 163.707C157.507 163.375 157.605 163.029 157.726 162.693C157.726 162.688 157.726 162.688 157.726 162.683V162.674C157.763 162.567 157.81 162.459 157.857 162.352C157.894 162.258 157.936 162.17 157.983 162.076C158.086 161.866 158.193 161.66 158.319 161.45C158.329 161.427 158.343 161.408 158.357 161.389V161.38C158.432 161.254 158.511 161.128 158.6 161.002C158.651 160.927 158.703 160.847 158.759 160.773C158.946 160.502 159.151 160.24 159.38 159.974C159.422 159.927 159.464 159.876 159.511 159.829C159.716 159.591 159.941 159.348 160.184 159.109C160.258 159.03 160.338 158.955 160.422 158.876C160.585 158.721 160.754 158.567 160.927 158.408C161.076 158.278 161.235 158.147 161.389 158.011C161.422 157.983 161.459 157.955 161.492 157.927C161.562 157.871 161.632 157.815 161.697 157.764C161.81 157.67 161.922 157.586 162.038 157.497C162.235 157.343 162.436 157.194 162.646 157.044C163.253 156.61 163.912 156.18 164.613 155.755C164.865 155.605 165.122 155.451 165.384 155.306C165.687 155.133 166 154.965 166.309 154.802C166.384 154.76 166.458 154.722 166.538 154.685V154.68C166.65 154.619 166.757 154.568 166.865 154.512C167.145 154.372 167.43 154.227 167.715 154.096C167.874 154.021 168.028 153.947 168.187 153.877C168.864 153.568 169.551 153.278 170.247 153.012C170.467 152.928 170.687 152.849 170.911 152.774C171.154 152.685 171.401 152.601 171.654 152.522C171.901 152.442 172.154 152.363 172.401 152.293C172.649 152.218 172.901 152.143 173.149 152.082C173.392 152.017 173.635 151.956 173.878 151.896C174.144 151.83 174.41 151.769 174.677 151.713C175.405 151.559 176.13 151.442 176.858 151.354C176.896 151.344 176.933 151.344 176.971 151.335C177.204 151.307 177.442 151.283 177.671 151.265C177.919 151.241 178.176 151.227 178.424 151.213C178.433 151.213 178.438 151.213 178.447 151.209C178.639 151.199 178.83 151.19 179.022 151.185C179.181 151.181 179.335 151.176 179.489 151.176C179.615 151.176 179.741 151.176 179.867 151.181C180.185 151.181 180.503 151.19 180.816 151.209C181.129 151.227 181.437 151.251 181.746 151.283C181.951 151.307 182.161 151.33 182.362 151.358C182.386 151.358 182.404 151.368 182.428 151.368C182.442 151.368 182.456 151.368 182.47 151.377C182.629 151.4 182.787 151.424 182.942 151.452C183.222 151.498 183.493 151.545 183.764 151.606C183.969 151.653 184.175 151.695 184.381 151.751C184.544 151.788 184.703 151.83 184.862 151.882C184.904 151.891 184.946 151.9 184.988 151.919C185.133 151.956 185.268 151.998 185.408 152.04C185.595 152.096 185.782 152.157 185.96 152.223C186.049 152.251 186.133 152.283 186.217 152.316C186.277 152.335 186.338 152.358 186.394 152.381C186.567 152.442 186.74 152.517 186.918 152.587C187.132 152.676 187.343 152.774 187.553 152.867C187.646 152.909 187.749 152.961 187.843 153.007C188.118 153.143 188.394 153.283 188.665 153.437C188.8 153.512 188.936 153.592 189.071 153.666C189.132 153.704 189.184 153.732 189.244 153.769C189.384 153.858 189.529 153.947 189.669 154.04C193.099 156.292 194.267 158.6 193.87 160.843Z" fill="url(#paint26_linear_3388_103239)"/>
<path d="M204.998 163.833L203.942 169.771C203.891 170.042 203.83 170.322 203.755 170.593C203.718 170.734 203.676 170.869 203.634 171.004C203.601 171.117 203.564 171.219 203.526 171.327C203.522 171.35 203.508 171.374 203.498 171.397C203.494 171.425 203.48 171.458 203.47 171.486C203.47 171.5 203.466 171.509 203.461 171.523C203.447 171.56 203.428 171.603 203.409 171.64C203.405 171.663 203.391 171.687 203.381 171.71C203.339 171.817 203.293 171.925 203.246 172.032C203.078 172.415 202.886 172.789 202.667 173.163C202.639 173.219 202.611 173.266 202.573 173.317C202.564 173.35 202.54 173.378 202.526 173.401C202.512 173.429 202.494 173.457 202.475 173.481C202.241 173.859 201.984 174.238 201.699 174.602C201.48 174.892 201.242 175.177 200.999 175.462C200.905 175.574 200.802 175.686 200.704 175.789C200.606 175.901 200.499 176.008 200.396 176.116C200.293 176.228 200.186 176.331 200.078 176.438C199.971 176.55 199.859 176.653 199.747 176.761C199.293 177.186 198.817 177.602 198.303 178.013C197.906 178.33 197.495 178.643 197.055 178.947C196.915 179.05 196.761 179.153 196.616 179.251C196.467 179.354 196.313 179.456 196.158 179.554C195.542 179.961 194.902 180.349 194.233 180.727C193.804 180.97 193.36 181.208 192.916 181.437C192.603 181.601 192.285 181.76 191.963 181.919C191.645 182.073 191.323 182.227 190.996 182.376C190.627 182.545 190.248 182.708 189.874 182.867C189.617 182.979 189.365 183.082 189.108 183.185C187.417 183.858 185.669 184.428 183.88 184.876C183.562 184.96 183.245 185.035 182.922 185.11C182.534 185.198 182.133 185.283 181.74 185.357C181.422 185.423 181.1 185.479 180.778 185.535C180.736 185.539 180.689 185.549 180.642 185.558C180.292 185.614 179.941 185.666 179.591 185.712C179.208 185.768 178.815 185.815 178.428 185.857C178.087 185.895 177.75 185.927 177.409 185.955C177.04 185.983 176.671 186.007 176.302 186.03C175.951 186.049 175.596 186.063 175.241 186.067C174.895 186.077 174.55 186.081 174.195 186.081C173.835 186.077 173.475 186.077 173.115 186.063C172.76 186.049 172.405 186.039 172.045 186.016C171.555 185.988 171.074 185.946 170.583 185.899C170.317 185.876 170.055 185.848 169.794 185.815C169.527 185.787 169.27 185.75 169.004 185.717C168.78 185.684 168.56 185.652 168.336 185.614C167.668 185.507 167 185.385 166.331 185.24C165.906 185.147 165.481 185.049 165.056 184.941C164.846 184.89 164.631 184.834 164.421 184.778C164.21 184.717 163.995 184.656 163.785 184.6C163.566 184.535 163.346 184.47 163.122 184.399C162.902 184.334 162.683 184.264 162.458 184.189C162.234 184.119 162.014 184.044 161.795 183.965C161.575 183.89 161.356 183.811 161.136 183.727C160.636 183.54 160.141 183.344 159.641 183.133C159.431 183.045 159.22 182.956 159.01 182.867C158.725 182.741 158.44 182.61 158.155 182.479C157.137 182.007 156.123 181.475 155.118 180.895C154.838 180.737 154.558 180.573 154.277 180.4C153.932 180.185 153.581 179.97 153.236 179.746C146.452 175.34 144.041 170.827 144.793 166.599L145.849 160.66C145.097 164.889 147.503 169.402 154.291 173.808C154.637 174.032 154.988 174.247 155.333 174.462C155.973 174.85 156.618 175.219 157.263 175.564C157.585 175.742 157.908 175.906 158.235 176.069C158.557 176.233 158.879 176.387 159.206 176.546C159.594 176.728 159.982 176.901 160.37 177.06C160.515 177.125 160.66 177.19 160.809 177.246C161.272 177.438 161.729 177.62 162.187 177.788C163.066 178.115 163.953 178.405 164.836 178.662C165.117 178.746 165.402 178.821 165.682 178.896C165.962 178.97 166.243 179.041 166.528 179.106C166.691 179.148 166.855 179.185 167.023 179.223C167.144 179.251 167.261 179.274 167.383 179.302C168.275 179.494 169.163 179.648 170.055 179.774C170.256 179.807 170.457 179.83 170.658 179.854C170.859 179.882 171.05 179.905 171.247 179.924C171.401 179.942 171.555 179.956 171.709 179.97C172.176 180.017 172.634 180.05 173.097 180.078C173.452 180.101 173.812 180.11 174.167 180.124L174.218 180.129C174.554 180.139 174.895 180.143 175.232 180.143H175.246C175.592 180.143 175.942 180.139 176.292 180.129C176.648 180.124 177.003 180.106 177.353 180.092C177.722 180.073 178.096 180.05 178.46 180.017C178.797 179.989 179.138 179.956 179.479 179.919C180.268 179.83 181.053 179.723 181.834 179.592C182.156 179.536 182.478 179.48 182.796 179.414C183.189 179.34 183.586 179.255 183.978 179.167C184.3 179.092 184.618 179.017 184.936 178.933C185.641 178.76 186.338 178.564 187.024 178.349C187.375 178.242 187.711 178.134 188.057 178.017C188.314 177.933 188.566 177.844 188.823 177.751C189.047 177.672 189.276 177.592 189.496 177.503C189.94 177.34 190.388 177.158 190.823 176.975C191.042 176.887 191.267 176.793 191.482 176.69C191.776 176.564 192.066 176.433 192.346 176.298C192.622 176.172 192.902 176.041 193.168 175.906C193.336 175.826 193.5 175.742 193.663 175.653C193.766 175.602 193.864 175.555 193.962 175.504C193.986 175.49 194.009 175.48 194.037 175.462C194.458 175.247 194.874 175.023 195.28 174.789C196.116 174.317 196.915 173.822 197.663 173.308C197.812 173.21 197.962 173.107 198.102 173.004C198.396 172.799 198.686 172.584 198.962 172.373C199.088 172.275 199.223 172.173 199.349 172.074V172.07C199.391 172.037 199.438 172 199.476 171.967C199.686 171.799 199.896 171.626 200.092 171.453C200.812 170.832 201.471 170.187 202.05 169.528C202.064 169.514 202.073 169.495 202.092 169.486C202.223 169.337 202.349 169.178 202.475 169.028C202.877 168.538 203.232 168.033 203.54 167.528C203.573 167.482 203.601 167.44 203.629 167.393C203.662 167.337 203.69 167.285 203.723 167.229C203.797 167.108 203.863 166.986 203.928 166.86C204.003 166.72 204.078 166.58 204.138 166.444C204.199 166.328 204.255 166.202 204.307 166.085C204.353 165.982 204.4 165.879 204.437 165.776C204.447 165.753 204.461 165.73 204.465 165.706C204.498 165.632 204.526 165.557 204.554 165.482C204.564 165.454 204.578 165.421 204.582 165.393C204.62 165.286 204.657 165.183 204.69 165.071C204.736 164.935 204.778 164.8 204.811 164.66C204.886 164.384 204.947 164.108 204.998 163.833Z" fill="url(#paint27_linear_3388_103239)"/>
<path d="M203.526 171.322C203.521 171.35 203.507 171.383 203.498 171.411V171.392C203.507 171.369 203.517 171.346 203.526 171.322Z" fill="url(#paint28_linear_3388_103239)"/>
<path d="M204.998 163.833C204.947 164.108 204.891 164.384 204.812 164.655C204.882 164.384 204.947 164.104 204.998 163.833Z" fill="url(#paint29_linear_3388_103239)"/>
<path d="M202.666 173.154C202.638 173.21 202.606 173.266 202.573 173.322V173.308C202.606 173.261 202.638 173.21 202.666 173.154Z" fill="url(#paint30_linear_3388_103239)"/>
<path d="M203.499 171.392V171.411C203.49 171.434 203.481 171.458 203.471 171.481C203.481 171.448 203.495 171.416 203.499 171.392Z" fill="url(#paint31_linear_3388_103239)"/>
<path d="M202.574 173.308V173.322C202.56 173.345 202.541 173.373 202.527 173.392C202.541 173.369 202.56 173.341 202.574 173.308Z" fill="url(#paint32_linear_3388_103239)"/>
<path d="M199.344 172.07V172.074C199.218 172.172 199.082 172.275 198.956 172.373C199.091 172.275 199.218 172.168 199.344 172.07Z" fill="url(#paint33_linear_3388_103239)"/>
<path d="M196.653 150.597C182.651 141.514 166.182 143.649 156.174 149.307C144.629 155.839 140.77 165.034 154.282 173.808C168.088 182.764 183.585 181.405 195.275 174.789C206.208 168.612 209.908 159.198 196.653 150.597ZM186.104 168.851C177.605 173.654 168.864 175.27 161.239 170.322C154.301 165.818 157.277 159.904 165.378 155.325C173.195 150.905 182.417 149.368 189.664 154.068C197.471 159.123 193.588 164.618 186.104 168.851Z" fill="url(#paint34_linear_3388_103239)"/>
<path d="M221.089 183.661C220.995 183.605 220.902 183.549 220.808 183.498C220.622 183.39 220.43 183.292 220.238 183.199C220.224 183.194 220.21 183.189 220.201 183.18C220.028 183.096 219.855 183.017 219.682 182.942C219.626 182.918 219.566 182.9 219.51 182.876C219.365 182.816 219.22 182.764 219.075 182.708C218.982 182.676 218.888 182.633 218.795 182.601C218.729 182.577 218.659 182.563 218.589 182.54C218.468 182.503 218.342 182.465 218.22 182.433C218.131 182.409 218.047 182.376 217.963 182.358C217.874 182.334 217.781 182.32 217.687 182.297C217.566 182.269 217.445 182.241 217.318 182.218C217.253 182.204 217.188 182.185 217.122 182.176C217.01 182.157 216.898 182.143 216.786 182.129C216.646 182.106 216.505 182.087 216.365 182.068C216.314 182.063 216.263 182.049 216.206 182.045C216.108 182.035 216.006 182.031 215.903 182.026C215.707 182.007 215.51 181.993 215.309 181.984C215.249 181.979 215.188 181.975 215.127 181.97C214.987 181.965 214.847 181.97 214.707 181.97C214.613 181.97 214.524 181.97 214.431 181.97C214.127 181.975 213.824 181.989 213.52 182.017C213.515 182.017 213.511 182.017 213.506 182.017C213.441 182.021 213.375 182.031 213.305 182.04C213.043 182.063 212.777 182.096 212.511 182.134C212.389 182.152 212.272 182.176 212.151 182.194C211.936 182.232 211.726 182.269 211.511 182.311C211.375 182.339 211.24 182.376 211.104 182.405C210.904 182.451 210.703 182.498 210.506 182.554C210.366 182.591 210.221 182.638 210.077 182.68C209.88 182.736 209.689 182.797 209.493 182.862C209.348 182.909 209.203 182.965 209.053 183.017C208.862 183.087 208.67 183.157 208.474 183.236C208.329 183.292 208.18 183.353 208.035 183.418C207.843 183.498 207.652 183.587 207.46 183.671C207.315 183.736 207.166 183.806 207.021 183.876C206.829 183.97 206.638 184.068 206.442 184.171C206.297 184.245 206.157 184.32 206.012 184.4C205.956 184.432 205.9 184.456 205.844 184.488C205.601 184.624 205.358 184.764 205.119 184.913C204.858 185.072 204.61 185.231 204.367 185.385C204.297 185.432 204.227 185.479 204.157 185.525C203.979 185.642 203.807 185.759 203.638 185.876C203.573 185.923 203.512 185.965 203.447 186.007C203.227 186.161 203.017 186.32 202.816 186.474C202.797 186.488 202.783 186.502 202.765 186.516C202.583 186.656 202.41 186.796 202.241 186.936C202.218 186.955 202.195 186.974 202.171 186.993C202.125 187.035 202.078 187.072 202.031 187.114C201.966 187.17 201.9 187.231 201.835 187.287C201.76 187.352 201.69 187.418 201.62 187.488C201.559 187.544 201.499 187.6 201.443 187.661C201.377 187.726 201.312 187.791 201.246 187.862C201.19 187.918 201.134 187.974 201.083 188.03C201.022 188.095 200.966 188.161 200.905 188.226C200.859 188.282 200.807 188.338 200.76 188.394C200.746 188.408 200.737 188.422 200.723 188.436C200.7 188.464 200.686 188.488 200.662 188.516C200.569 188.632 200.48 188.754 200.396 188.871C200.363 188.913 200.335 188.96 200.303 189.002C200.204 189.142 200.116 189.282 200.036 189.422C200.032 189.431 200.027 189.436 200.022 189.445V189.45C199.952 189.576 199.887 189.702 199.831 189.829C199.812 189.866 199.803 189.903 199.784 189.941C199.747 190.029 199.709 190.118 199.681 190.207C199.676 190.216 199.672 190.23 199.667 190.24C199.644 190.305 199.63 190.366 199.611 190.427C199.602 190.464 199.588 190.501 199.578 190.539C199.55 190.651 199.527 190.763 199.513 190.87L198.644 196.837C198.658 196.725 198.681 196.617 198.709 196.505C198.719 196.468 198.733 196.43 198.742 196.393C198.761 196.318 198.784 196.248 198.807 196.173C198.835 196.084 198.873 195.996 198.91 195.907C198.924 195.87 198.938 195.832 198.957 195.795C199.013 195.669 199.078 195.543 199.149 195.416C199.153 195.407 199.158 195.398 199.163 195.388C199.242 195.248 199.331 195.108 199.429 194.968C199.457 194.926 199.49 194.879 199.522 194.837C199.606 194.72 199.695 194.603 199.789 194.487C199.821 194.445 199.849 194.407 199.887 194.365C199.933 194.309 199.98 194.258 200.032 194.202C200.088 194.136 200.148 194.071 200.209 194.001C200.26 193.945 200.317 193.889 200.373 193.833C200.438 193.767 200.499 193.702 200.569 193.636C200.625 193.58 200.686 193.524 200.746 193.463C200.816 193.398 200.887 193.333 200.961 193.263C201.027 193.206 201.092 193.146 201.158 193.09C201.228 193.029 201.298 192.968 201.368 192.907C201.536 192.767 201.709 192.627 201.891 192.482C201.91 192.468 201.924 192.454 201.942 192.44C202.143 192.286 202.354 192.132 202.573 191.973C202.634 191.926 202.699 191.884 202.765 191.838C202.933 191.721 203.106 191.604 203.283 191.482C203.353 191.436 203.419 191.389 203.494 191.347C203.737 191.188 203.984 191.029 204.246 190.875C204.54 190.693 204.839 190.529 205.138 190.361C205.278 190.282 205.423 190.207 205.568 190.132C205.76 190.034 205.951 189.931 206.147 189.838C206.292 189.768 206.437 189.698 206.587 189.632C206.778 189.544 206.97 189.459 207.161 189.38C207.311 189.319 207.456 189.259 207.605 189.198C207.797 189.123 207.988 189.048 208.18 188.978C208.325 188.927 208.474 188.871 208.619 188.824C208.815 188.759 209.007 188.698 209.203 188.642C209.348 188.6 209.488 188.553 209.633 188.516C209.834 188.46 210.035 188.413 210.231 188.366C210.366 188.333 210.502 188.301 210.637 188.273C210.852 188.226 211.067 188.189 211.282 188.156C211.403 188.137 211.52 188.109 211.642 188.095C211.908 188.058 212.174 188.025 212.436 188.002C212.501 187.997 212.567 187.983 212.632 187.978C212.945 187.95 213.254 187.936 213.562 187.932C213.655 187.932 213.744 187.932 213.833 187.932C214.034 187.932 214.235 187.936 214.436 187.946C214.632 187.955 214.833 187.969 215.029 187.988C215.183 188.002 215.337 188.011 215.492 188.03C215.632 188.048 215.772 188.067 215.907 188.09C216.085 188.119 216.263 188.147 216.44 188.184C216.562 188.207 216.688 188.235 216.809 188.263C216.987 188.305 217.164 188.352 217.342 188.399C217.468 188.432 217.589 188.469 217.716 188.506C217.879 188.558 218.038 188.614 218.197 188.675C218.342 188.726 218.491 188.782 218.636 188.843C218.87 188.941 219.103 189.039 219.332 189.151C219.346 189.156 219.355 189.16 219.369 189.17C219.659 189.315 219.944 189.469 220.22 189.637C222.547 191.048 223.574 192.538 223.345 194.108L224.214 188.142C224.443 186.563 223.416 185.072 221.089 183.661Z" fill="url(#paint35_linear_3388_103239)"/>
<path d="M234.013 197.21C234.059 197.014 234.097 196.813 234.129 196.612L234.999 190.646C234.97 190.847 234.928 191.043 234.882 191.244C234.868 191.31 234.844 191.375 234.826 191.44C234.788 191.571 234.756 191.702 234.714 191.833C234.695 191.889 234.671 191.95 234.653 192.006C234.592 192.174 234.531 192.337 234.457 192.506C234.424 192.576 234.396 192.646 234.363 192.716C234.288 192.879 234.204 193.043 234.12 193.202C234.092 193.258 234.064 193.314 234.031 193.37C233.896 193.608 233.751 193.842 233.592 194.075C233.555 194.127 233.517 194.183 233.48 194.234C233.34 194.431 233.19 194.627 233.036 194.823C232.994 194.874 232.952 194.926 232.91 194.977C232.849 195.052 232.784 195.127 232.719 195.201C232.634 195.295 232.555 195.388 232.471 195.482C232.401 195.557 232.331 195.631 232.261 195.706C232.172 195.795 232.083 195.888 231.994 195.977C231.92 196.052 231.84 196.127 231.765 196.197C231.672 196.285 231.579 196.374 231.48 196.463C231.401 196.538 231.317 196.608 231.233 196.683C231.139 196.762 231.046 196.846 230.948 196.925C230.826 197.028 230.705 197.126 230.579 197.224C230.49 197.295 230.401 197.365 230.312 197.435C230.182 197.538 230.041 197.636 229.906 197.738C229.817 197.804 229.728 197.869 229.64 197.935C229.485 198.042 229.327 198.154 229.163 198.262C229.084 198.313 229.009 198.369 228.925 198.421C228.682 198.579 228.434 198.738 228.177 198.892C227.874 199.079 227.565 199.257 227.252 199.434C227.187 199.472 227.117 199.509 227.051 199.542C226.654 199.761 226.252 199.976 225.846 200.177C225.794 200.201 225.748 200.229 225.696 200.252C225.266 200.462 224.832 200.663 224.393 200.859C224.304 200.897 224.215 200.939 224.122 200.976C223.683 201.163 223.239 201.345 222.79 201.514C222.72 201.542 222.65 201.565 222.58 201.588C222.141 201.747 221.702 201.901 221.258 202.041C221.211 202.055 221.164 202.074 221.113 202.088C220.646 202.233 220.174 202.369 219.697 202.49C219.604 202.513 219.506 202.541 219.412 202.565C218.94 202.682 218.464 202.794 217.983 202.892C217.903 202.906 217.824 202.92 217.744 202.938C217.272 203.027 216.801 203.111 216.324 203.181C216.282 203.186 216.235 203.195 216.193 203.2C215.698 203.27 215.193 203.326 214.693 203.368C214.591 203.378 214.488 203.387 214.385 203.396C213.913 203.434 213.437 203.462 212.955 203.476C212.881 203.476 212.811 203.476 212.736 203.48C212.301 203.49 211.862 203.49 211.423 203.48C211.32 203.48 211.222 203.476 211.119 203.476C210.867 203.466 210.619 203.452 210.367 203.438C210.241 203.429 210.119 203.429 209.993 203.42C209.619 203.392 209.246 203.364 208.872 203.322C208.867 203.322 208.867 203.322 208.863 203.322C208.839 203.317 208.811 203.317 208.788 203.312C208.461 203.275 208.134 203.233 207.802 203.186C207.69 203.167 207.573 203.149 207.461 203.13C207.218 203.093 206.98 203.055 206.737 203.013C206.657 202.999 206.578 202.981 206.503 202.967C206.232 202.915 205.961 202.864 205.69 202.803C205.559 202.775 205.433 202.742 205.302 202.71C205.083 202.658 204.863 202.607 204.639 202.551C204.466 202.504 204.293 202.457 204.12 202.406C203.934 202.354 203.751 202.308 203.564 202.252C203.392 202.2 203.214 202.144 203.041 202.088C202.859 202.032 202.677 201.976 202.494 201.911C202.107 201.78 201.719 201.644 201.331 201.495C201.312 201.485 201.294 201.481 201.275 201.471C200.906 201.331 200.537 201.182 200.172 201.023C199.855 200.887 199.537 200.747 199.224 200.598C199.154 200.565 199.089 200.532 199.018 200.5C198.757 200.378 198.5 200.247 198.238 200.117C198.135 200.065 198.033 200.014 197.93 199.958C197.687 199.832 197.444 199.701 197.201 199.565C197.112 199.519 197.028 199.472 196.939 199.425C196.603 199.238 196.271 199.042 195.94 198.841C190.015 195.253 187.988 191.655 188.473 188.333L187.604 194.3C187.123 197.622 189.146 201.219 195.07 204.807C195.369 204.99 195.664 205.162 195.963 205.331C196 205.349 196.033 205.368 196.07 205.391C196.159 205.438 196.243 205.485 196.332 205.536C196.575 205.672 196.818 205.798 197.061 205.924C197.164 205.975 197.266 206.031 197.369 206.083C197.631 206.214 197.888 206.34 198.149 206.466C198.215 206.499 198.285 206.531 198.35 206.564C198.645 206.7 198.934 206.83 199.229 206.957C199.252 206.966 199.28 206.975 199.303 206.989C199.673 207.148 200.042 207.298 200.406 207.438C200.425 207.447 200.443 207.452 200.462 207.461C200.85 207.611 201.238 207.746 201.625 207.877C201.649 207.886 201.668 207.891 201.691 207.9C201.85 207.956 202.013 208.003 202.172 208.05C202.345 208.106 202.523 208.162 202.695 208.213C202.878 208.269 203.064 208.316 203.247 208.368C203.42 208.414 203.597 208.466 203.77 208.512C203.793 208.517 203.812 208.526 203.835 208.531C204.036 208.582 204.237 208.624 204.433 208.671C204.56 208.699 204.69 208.732 204.817 208.765C205.088 208.825 205.363 208.877 205.634 208.928C205.709 208.942 205.788 208.961 205.863 208.975C205.868 208.975 205.872 208.975 205.872 208.975C206.111 209.017 206.349 209.054 206.587 209.092C206.699 209.11 206.816 209.129 206.928 209.148C207.255 209.194 207.587 209.237 207.914 209.274C207.938 209.279 207.966 209.279 207.989 209.283C207.994 209.283 207.994 209.283 207.998 209.283C208.372 209.325 208.746 209.358 209.12 209.381C209.241 209.391 209.367 209.395 209.489 209.4C209.741 209.414 209.993 209.428 210.241 209.437C210.283 209.437 210.32 209.442 210.362 209.442C210.423 209.442 210.484 209.442 210.545 209.442C210.984 209.451 211.423 209.451 211.857 209.442C211.932 209.442 212.002 209.442 212.077 209.437C212.554 209.423 213.03 209.395 213.507 209.358C213.553 209.353 213.6 209.353 213.647 209.349C213.703 209.344 213.759 209.335 213.81 209.33C214.315 209.283 214.815 209.232 215.31 209.162C215.357 209.157 215.399 209.148 215.446 209.143C215.922 209.073 216.394 208.994 216.866 208.9C216.945 208.886 217.025 208.872 217.104 208.853C217.585 208.755 218.062 208.648 218.534 208.526C218.632 208.503 218.725 208.475 218.824 208.452C219.3 208.325 219.772 208.195 220.239 208.05C220.286 208.036 220.333 208.017 220.379 208.003C220.828 207.863 221.267 207.709 221.702 207.55C221.772 207.522 221.842 207.499 221.912 207.475C222.36 207.307 222.804 207.125 223.243 206.938C223.332 206.9 223.421 206.858 223.51 206.821C223.949 206.629 224.388 206.429 224.813 206.214C224.865 206.19 224.911 206.162 224.958 206.139C225.369 205.933 225.771 205.723 226.168 205.504C226.21 205.48 226.252 205.461 226.294 205.438C226.318 205.424 226.341 205.41 226.369 205.396C226.682 205.218 226.99 205.041 227.294 204.854C227.551 204.7 227.799 204.541 228.042 204.382C228.121 204.331 228.201 204.275 228.28 204.223C228.439 204.116 228.602 204.008 228.757 203.896C228.845 203.831 228.934 203.765 229.023 203.705C229.163 203.602 229.299 203.504 229.434 203.401C229.523 203.331 229.612 203.261 229.7 203.191C229.826 203.093 229.953 202.99 230.074 202.887C230.111 202.854 230.158 202.822 230.196 202.789C230.252 202.742 230.303 202.691 230.359 202.644C230.443 202.569 230.527 202.499 230.607 202.425C230.705 202.336 230.798 202.247 230.892 202.158C230.971 202.084 231.046 202.013 231.121 201.939C231.214 201.85 231.303 201.756 231.387 201.668C231.457 201.593 231.532 201.518 231.597 201.448C231.681 201.355 231.765 201.261 231.849 201.168C231.915 201.093 231.98 201.018 232.041 200.948C232.06 200.929 232.078 200.906 232.092 200.887C232.12 200.855 232.139 200.822 232.167 200.789C232.326 200.593 232.471 200.402 232.611 200.201C232.648 200.149 232.686 200.093 232.723 200.042C232.882 199.808 233.027 199.575 233.162 199.336C233.172 199.322 233.181 199.308 233.19 199.294C233.214 199.252 233.232 199.21 233.251 199.173C233.34 199.009 233.419 198.85 233.494 198.687C233.527 198.617 233.559 198.547 233.588 198.477C233.658 198.313 233.723 198.145 233.784 197.977C233.798 197.935 233.816 197.893 233.83 197.851C233.835 197.837 233.84 197.818 233.845 197.804C233.887 197.673 233.924 197.542 233.957 197.407C233.975 197.341 233.999 197.276 234.013 197.21Z" fill="url(#paint36_linear_3388_103239)"/>
<path d="M227.659 180.12C216.082 173.107 203.435 175.018 195.922 179.578C187.783 184.526 184.139 191.711 195.926 198.85C207.396 205.793 219.366 204.233 228.164 198.892C236.336 193.931 238.536 186.703 227.659 180.12ZM219.161 193.505C212.793 197.369 206.897 197.967 202.453 195.281C197.73 192.422 198.697 188.815 205.13 184.913C210.639 181.564 216.605 180.951 221.09 183.666C225.931 186.591 225.137 189.871 219.161 193.505Z" fill="url(#paint37_linear_3388_103239)"/>
<path d="M257.06 197.706L256.242 203.681C255.425 204.34 253.967 205.317 252.542 206.27L253.36 200.294C254.785 199.341 256.242 198.36 257.06 197.706Z" fill="url(#paint38_linear_3388_103239)"/>
<path d="M257.06 197.706L256.242 203.681C255.425 204.34 253.967 205.317 252.542 206.27L253.36 200.294C254.785 199.341 256.242 198.36 257.06 197.706Z" fill="url(#paint39_linear_3388_103239)"/>
<path d="M258.068 205.401C257.895 205.298 257.722 205.2 257.554 205.106C257.456 205.05 257.362 205.008 257.264 204.957C257.157 204.901 257.045 204.84 256.937 204.784C256.722 204.677 256.512 204.578 256.302 204.48C256.213 204.438 256.124 204.396 256.035 204.359C256.007 204.35 255.979 204.336 255.956 204.321C255.853 204.279 255.75 204.247 255.648 204.205C255.437 204.121 255.227 204.041 255.021 203.971C254.984 203.957 254.947 203.943 254.914 203.929C254.75 203.873 254.582 203.836 254.419 203.789C254.325 203.765 254.237 203.733 254.143 203.709C254.124 203.705 254.106 203.7 254.087 203.695C253.835 203.635 253.587 203.579 253.335 203.537C253.316 203.532 253.302 203.532 253.283 203.532C253.218 203.523 253.153 203.513 253.083 203.504C252.914 203.481 252.746 203.452 252.578 203.434C252.527 203.429 252.48 203.429 252.428 203.424C252.302 203.415 252.176 203.41 252.05 203.401C251.943 203.396 251.83 203.382 251.723 203.382C251.634 203.382 251.545 203.382 251.457 203.387C251.396 203.387 251.335 203.387 251.279 203.387C251.031 203.392 250.784 203.406 250.532 203.429C250.508 203.429 250.48 203.438 250.457 203.438C250.354 203.448 250.251 203.466 250.144 203.48C249.943 203.509 249.742 203.532 249.536 203.569C249.415 203.593 249.293 203.616 249.172 203.644C248.98 203.686 248.789 203.728 248.597 203.775C248.471 203.808 248.34 203.845 248.214 203.882C248.023 203.938 247.831 203.994 247.635 204.06C247.504 204.102 247.373 204.144 247.242 204.191C247.041 204.261 246.841 204.34 246.635 204.42C246.509 204.471 246.383 204.518 246.252 204.574C246.028 204.667 245.799 204.77 245.57 204.877C245.458 204.929 245.35 204.976 245.238 205.027C244.892 205.19 244.547 205.363 244.191 205.555C244.182 205.56 244.177 205.564 244.168 205.569C243.846 205.742 243.514 205.919 243.182 206.111C243.159 206.125 243.136 206.139 243.112 206.153C242.696 206.391 242.271 206.644 241.837 206.915C241.552 207.092 241.281 207.265 241.019 207.438C240.963 207.475 240.907 207.513 240.851 207.55C240.594 207.718 240.346 207.886 240.113 208.055C240.075 208.083 240.043 208.106 240.005 208.134C239.795 208.288 239.589 208.438 239.393 208.587C239.356 208.615 239.314 208.648 239.276 208.676C239.066 208.839 238.87 209.003 238.683 209.162C238.664 209.176 238.646 209.19 238.627 209.204C238.58 209.246 238.538 209.283 238.491 209.325C238.435 209.377 238.379 209.423 238.328 209.475C238.258 209.54 238.192 209.601 238.127 209.666C238.076 209.713 238.029 209.76 237.978 209.811C237.912 209.877 237.851 209.942 237.786 210.007C237.744 210.054 237.702 210.096 237.66 210.143C237.594 210.213 237.534 210.288 237.473 210.358C237.44 210.395 237.408 210.433 237.375 210.47C237.37 210.475 237.366 210.479 237.361 210.484C237.342 210.507 237.328 210.531 237.309 210.549C237.23 210.648 237.155 210.746 237.09 210.844C237.062 210.886 237.034 210.928 237.006 210.975C236.95 211.059 236.898 211.138 236.852 211.222C236.838 211.246 236.819 211.269 236.81 211.292C236.795 211.32 236.781 211.348 236.767 211.376C236.739 211.428 236.711 211.484 236.688 211.535C236.66 211.591 236.637 211.647 236.613 211.703C236.59 211.755 236.571 211.811 236.553 211.862C236.543 211.89 236.529 211.914 236.525 211.942C236.52 211.96 236.515 211.979 236.51 211.998C236.464 212.147 236.426 212.297 236.408 212.446L235.59 218.422C235.609 218.272 235.646 218.123 235.693 217.973C235.707 217.931 235.721 217.885 235.735 217.843C235.754 217.791 235.772 217.735 235.796 217.684C235.819 217.628 235.842 217.572 235.87 217.516C235.894 217.464 235.922 217.408 235.95 217.357C235.978 217.305 236.006 217.254 236.034 217.203C236.081 217.118 236.132 217.039 236.188 216.955C236.216 216.913 236.244 216.871 236.272 216.824C236.342 216.726 236.417 216.628 236.492 216.53C236.515 216.502 236.534 216.474 236.553 216.446C236.585 216.408 236.618 216.371 236.651 216.333C236.711 216.263 236.772 216.193 236.838 216.119C236.88 216.077 236.922 216.03 236.964 215.988C237.024 215.922 237.09 215.857 237.155 215.792C237.202 215.745 237.253 215.698 237.3 215.651C237.365 215.586 237.431 215.525 237.501 215.46C237.552 215.413 237.608 215.362 237.665 215.315C237.725 215.259 237.791 215.203 237.856 215.147C238.043 214.988 238.239 214.824 238.449 214.661C238.487 214.633 238.529 214.6 238.566 214.572C238.762 214.423 238.963 214.273 239.174 214.119C239.211 214.091 239.248 214.068 239.286 214.039C239.519 213.871 239.767 213.703 240.024 213.535C240.08 213.498 240.141 213.46 240.197 213.423C240.463 213.25 240.729 213.077 241.014 212.899C241.449 212.629 241.874 212.376 242.29 212.138C242.654 211.928 243.014 211.727 243.365 211.545L243.369 211.54C243.724 211.353 244.075 211.175 244.416 211.012C244.528 210.961 244.635 210.914 244.743 210.862C244.972 210.755 245.205 210.652 245.43 210.559C245.556 210.503 245.687 210.456 245.813 210.405C246.018 210.325 246.219 210.246 246.42 210.176C246.551 210.129 246.682 210.087 246.813 210.045C247.004 209.979 247.2 209.923 247.392 209.867C247.523 209.83 247.649 209.793 247.775 209.76C247.967 209.708 248.158 209.666 248.35 209.629C248.471 209.606 248.593 209.578 248.714 209.554C248.915 209.517 249.116 209.489 249.317 209.465C249.42 209.451 249.527 209.433 249.63 209.423C249.905 209.395 250.176 209.381 250.447 209.372C250.508 209.372 250.569 209.372 250.625 209.372C250.826 209.372 251.022 209.377 251.223 209.391C251.349 209.395 251.475 209.4 251.601 209.414C251.821 209.433 252.036 209.461 252.256 209.494C252.321 209.503 252.391 209.508 252.456 209.522C252.741 209.568 253.026 209.629 253.316 209.704C253.41 209.727 253.498 209.755 253.592 209.783C253.793 209.839 253.994 209.9 254.195 209.965C254.405 210.035 254.61 210.12 254.821 210.199C254.951 210.25 255.082 210.297 255.213 210.353C255.302 210.391 255.391 210.433 255.479 210.475C255.69 210.568 255.905 210.671 256.119 210.778C256.227 210.834 256.334 210.89 256.446 210.947C256.713 211.087 256.979 211.232 257.25 211.395C259.301 212.614 260.413 214.035 260.194 215.651L261.011 209.676C261.231 208.04 260.123 206.62 258.068 205.401Z" fill="url(#paint40_linear_3388_103239)"/>
<path d="M229.914 214.801L229.788 215.726C229.788 215.731 229.788 215.735 229.788 215.735L229.092 220.772L214.963 229.523L206.11 224.267L206.927 218.286L215.781 223.543L229.914 214.801Z" fill="url(#paint41_linear_3388_103239)"/>
<path d="M272.052 217.936C272.094 217.754 272.127 217.572 272.155 217.389L272.972 211.414C272.949 211.596 272.912 211.778 272.87 211.96C272.856 212.021 272.837 212.082 272.823 212.143C272.79 212.264 272.758 212.39 272.72 212.512C272.706 212.563 272.683 212.614 272.664 212.666C272.608 212.825 272.547 212.984 272.482 213.147C272.454 213.217 272.421 213.287 272.388 213.357C272.323 213.507 272.248 213.652 272.169 213.801C272.127 213.881 272.085 213.96 272.043 214.039C272.015 214.086 271.987 214.133 271.959 214.184C271.884 214.315 271.8 214.446 271.716 214.577C271.692 214.614 271.669 214.652 271.641 214.689C271.529 214.852 271.412 215.016 271.291 215.184C271.262 215.222 271.234 215.259 271.206 215.296C271.113 215.418 271.01 215.544 270.907 215.665C270.842 215.75 270.767 215.829 270.697 215.913C270.608 216.011 270.52 216.114 270.431 216.212C270.356 216.296 270.277 216.376 270.197 216.46C270.099 216.558 270.001 216.661 269.903 216.763C269.819 216.847 269.735 216.932 269.646 217.011C269.538 217.114 269.431 217.212 269.319 217.315C269.23 217.399 269.137 217.478 269.043 217.562C268.945 217.646 268.847 217.73 268.744 217.819C268.59 217.95 268.436 218.076 268.272 218.207C268.17 218.291 268.067 218.371 267.959 218.455C267.791 218.585 267.618 218.716 267.441 218.847C267.333 218.927 267.226 219.006 267.114 219.085C266.917 219.226 266.712 219.366 266.502 219.511C266.403 219.581 266.305 219.646 266.203 219.716C265.89 219.926 265.562 220.137 265.226 220.342C264.918 220.534 264.605 220.721 264.287 220.898C264.264 220.912 264.245 220.922 264.222 220.936C263.787 221.183 263.343 221.417 262.899 221.641C262.811 221.688 262.717 221.735 262.628 221.777C262.18 221.996 261.731 222.206 261.273 222.407C261.185 222.445 261.096 222.482 261.007 222.519C260.568 222.706 260.129 222.884 259.68 223.047C259.638 223.061 259.596 223.08 259.554 223.094C259.082 223.267 258.61 223.426 258.138 223.575C258.036 223.608 257.938 223.641 257.835 223.669C257.363 223.814 256.891 223.944 256.419 224.066C256.349 224.085 256.279 224.099 256.209 224.117C255.765 224.225 255.321 224.328 254.877 224.416C254.803 224.43 254.728 224.449 254.653 224.463C254.177 224.556 253.7 224.636 253.228 224.706C253.125 224.72 253.027 224.734 252.924 224.748C252.443 224.813 251.957 224.874 251.476 224.921C251.448 224.926 251.425 224.926 251.397 224.926C250.878 224.972 250.359 225.005 249.841 225.028C249.775 225.033 249.705 225.038 249.64 225.038C249.131 225.056 248.621 225.056 248.117 225.052C248.009 225.052 247.897 225.047 247.79 225.047C247.523 225.042 247.257 225.028 246.995 225.014C246.883 225.01 246.776 225.005 246.664 224.996C246.295 224.972 245.926 224.944 245.556 224.907C245.472 224.898 245.393 224.888 245.309 224.879C245.057 224.851 244.804 224.823 244.552 224.79C244.43 224.771 244.304 224.753 244.183 224.734C243.973 224.701 243.762 224.673 243.557 224.636C243.407 224.608 243.258 224.58 243.104 224.552C242.94 224.519 242.777 224.491 242.613 224.458C242.464 224.426 242.314 224.393 242.164 224.36C242.001 224.323 241.842 224.29 241.683 224.248C241.538 224.211 241.394 224.173 241.244 224.136C241.081 224.094 240.917 224.052 240.758 224.005C240.613 223.963 240.469 223.921 240.328 223.879C240.169 223.832 240.011 223.786 239.852 223.734C239.721 223.692 239.595 223.65 239.464 223.603C239.277 223.543 239.095 223.477 238.913 223.412C238.782 223.365 238.656 223.318 238.53 223.267C238.352 223.197 238.174 223.131 238.002 223.057C237.885 223.01 237.773 222.963 237.661 222.912C237.362 222.786 237.067 222.65 236.778 222.515C236.726 222.491 236.675 222.468 236.623 222.445C236.292 222.281 235.96 222.113 235.638 221.935C235.423 221.819 235.208 221.697 234.997 221.571C230.984 219.188 229.573 217.011 229.816 215.24L228.998 221.216C228.755 222.982 230.166 225.164 234.18 227.547C234.362 227.654 234.544 227.762 234.731 227.86C234.759 227.878 234.792 227.892 234.825 227.906C235.147 228.084 235.474 228.257 235.81 228.416C235.862 228.439 235.913 228.462 235.965 228.486C236.254 228.626 236.549 228.757 236.843 228.883C236.894 228.902 236.941 228.93 236.988 228.948C237.053 228.976 237.123 229 237.189 229.028C237.362 229.098 237.539 229.168 237.717 229.238C237.843 229.289 237.974 229.336 238.104 229.383C238.287 229.448 238.469 229.514 238.656 229.574C238.744 229.602 238.829 229.635 238.917 229.663C238.959 229.677 239.006 229.691 239.048 229.701C239.207 229.752 239.366 229.799 239.525 229.845C239.67 229.887 239.81 229.929 239.955 229.971C240.113 230.018 240.277 230.06 240.44 230.102C240.553 230.13 240.66 230.163 240.768 230.191C240.805 230.2 240.842 230.21 240.88 230.214C241.039 230.252 241.202 230.289 241.361 230.322C241.51 230.355 241.66 230.392 241.814 230.42C241.978 230.453 242.141 230.485 242.305 230.513C242.426 230.537 242.543 230.56 242.664 230.584C242.697 230.588 242.73 230.593 242.758 230.598C242.963 230.635 243.174 230.663 243.379 230.696C243.501 230.714 243.627 230.733 243.748 230.752C244.001 230.784 244.253 230.812 244.505 230.84C244.585 230.85 244.659 230.859 244.739 230.869C244.744 230.869 244.753 230.869 244.758 230.869C245.122 230.906 245.491 230.934 245.865 230.957C245.977 230.962 246.084 230.967 246.197 230.976C246.458 230.99 246.724 230.999 246.991 231.009C247.052 231.009 247.112 231.013 247.173 231.018C247.224 231.018 247.276 231.018 247.323 231.018C247.827 231.027 248.336 231.023 248.846 231.004C248.916 230.999 248.981 230.999 249.051 230.995C249.57 230.971 250.084 230.943 250.607 230.897C250.626 230.897 250.649 230.897 250.668 230.892C250.677 230.892 250.682 230.892 250.686 230.887C251.168 230.84 251.649 230.784 252.135 230.714C252.238 230.7 252.34 230.686 252.438 230.672C252.915 230.602 253.387 230.523 253.863 230.429C253.938 230.415 254.018 230.397 254.092 230.383C254.536 230.294 254.98 230.191 255.419 230.084C255.489 230.065 255.559 230.051 255.63 230.032C256.101 229.911 256.573 229.78 257.045 229.635C257.148 229.602 257.246 229.574 257.349 229.542C257.825 229.392 258.297 229.233 258.765 229.06C258.807 229.046 258.849 229.028 258.886 229.014C259.33 228.85 259.774 228.673 260.213 228.486C260.302 228.448 260.39 228.411 260.479 228.374C260.932 228.177 261.386 227.967 261.834 227.743C261.923 227.696 262.016 227.649 262.105 227.607C262.549 227.383 262.993 227.15 263.427 226.902C263.441 226.893 263.46 226.883 263.474 226.879C263.479 226.874 263.483 226.874 263.493 226.869C263.806 226.687 264.119 226.505 264.432 226.313C264.768 226.103 265.095 225.893 265.408 225.687C265.511 225.617 265.609 225.552 265.707 225.482C265.913 225.341 266.118 225.201 266.315 225.056C266.427 224.977 266.534 224.898 266.642 224.818C266.819 224.687 266.992 224.556 267.16 224.426C267.268 224.342 267.371 224.262 267.473 224.178C267.637 224.047 267.791 223.916 267.945 223.79C268.006 223.739 268.067 223.692 268.127 223.641C268.17 223.608 268.202 223.571 268.244 223.538C268.338 223.454 268.431 223.37 268.52 223.29C268.632 223.188 268.74 223.089 268.847 222.987C268.936 222.903 269.02 222.818 269.104 222.734C269.207 222.636 269.305 222.533 269.398 222.435C269.478 222.351 269.557 222.267 269.632 222.183C269.725 222.085 269.814 221.982 269.898 221.884C269.968 221.8 270.043 221.72 270.108 221.636C270.141 221.594 270.179 221.557 270.211 221.515C270.277 221.431 270.342 221.351 270.403 221.267C270.431 221.23 270.464 221.193 270.492 221.155C270.613 220.992 270.735 220.823 270.842 220.66C270.865 220.623 270.889 220.585 270.917 220.548C271.001 220.417 271.085 220.286 271.16 220.155C271.188 220.109 271.216 220.062 271.244 220.01C271.262 219.973 271.286 219.94 271.305 219.903C271.328 219.861 271.347 219.814 271.37 219.772C271.449 219.623 271.524 219.473 271.59 219.328C271.622 219.258 271.655 219.188 271.683 219.118C271.748 218.959 271.809 218.796 271.865 218.637C271.879 218.599 271.898 218.557 271.912 218.52C271.917 218.506 271.917 218.497 271.921 218.483C271.959 218.357 271.991 218.235 272.024 218.114C272.019 218.058 272.038 217.997 272.052 217.936Z" fill="url(#paint42_linear_3388_103239)"/>
<path d="M229.793 215.731L229.919 214.806C229.83 215.1 229.783 215.413 229.793 215.731Z" fill="url(#paint43_linear_3388_103239)"/>
<path d="M267.656 203.294C261.942 199.902 256.686 199.701 253.364 200.289C254.784 199.336 256.247 198.36 257.064 197.706L248.383 192.552C246.571 193.833 243.828 195.463 239.777 197.963L206.937 218.291L215.791 223.547L229.924 214.801L229.798 215.726C229.798 215.731 229.798 215.736 229.798 215.736C229.854 217.408 231.358 219.408 235.007 221.58C243.183 226.435 255.48 226.383 265.24 220.338C275.711 213.857 274.706 207.485 267.656 203.294ZM256.06 215.044C249.897 218.856 244.197 219.375 239.478 216.567C234.264 213.47 236.054 210.493 241.833 206.915C248.383 202.864 252.696 202.205 258.073 205.396C262.157 207.83 262.507 211.049 256.06 215.044Z" fill="url(#paint44_linear_3388_103239)"/>
<path d="M294.321 226.724C294.213 226.659 294.11 226.594 294.008 226.533C293.989 226.523 293.97 226.514 293.952 226.5C293.844 226.439 293.741 226.383 293.634 226.327C293.582 226.299 293.526 226.266 293.475 226.243C293.326 226.168 293.176 226.094 293.031 226.028C293.022 226.024 293.017 226.019 293.008 226.019C292.807 225.93 292.606 225.851 292.41 225.781C292.386 225.771 292.358 225.762 292.335 225.753C292.307 225.743 292.284 225.739 292.256 225.729C292.134 225.687 292.017 225.65 291.901 225.617C291.868 225.608 291.83 225.594 291.798 225.584C291.784 225.58 291.774 225.58 291.76 225.575C291.653 225.547 291.541 225.524 291.433 225.5C291.401 225.491 291.363 225.482 291.326 225.477C291.321 225.477 291.316 225.477 291.312 225.477C291.167 225.449 291.027 225.426 290.882 225.407C290.877 225.407 290.873 225.407 290.868 225.407C290.728 225.388 290.583 225.379 290.447 225.369C290.438 225.369 290.429 225.369 290.419 225.365C290.396 225.365 290.377 225.365 290.354 225.365C290.209 225.36 290.064 225.365 289.924 225.369C289.901 225.369 289.873 225.369 289.849 225.369C289.831 225.369 289.807 225.374 289.789 225.379C289.681 225.388 289.574 225.402 289.466 225.416C289.429 225.421 289.392 225.426 289.354 225.43C289.214 225.454 289.074 225.486 288.938 225.524C288.906 225.533 288.878 225.542 288.845 225.552C288.737 225.584 288.635 225.617 288.532 225.659C288.485 225.678 288.443 225.696 288.396 225.715C288.308 225.753 288.219 225.795 288.135 225.837C288.111 225.851 288.083 225.86 288.055 225.874C288.009 225.897 287.967 225.925 287.92 225.949C287.789 226.024 287.677 226.103 287.579 226.182C287.574 226.187 287.565 226.192 287.56 226.196C287.485 226.262 287.415 226.327 287.359 226.393C287.355 226.397 287.345 226.402 287.341 226.411C287.289 226.472 287.247 226.533 287.21 226.594C287.2 226.608 287.196 226.626 287.186 226.645C287.177 226.664 287.168 226.687 287.158 226.706C287.149 226.729 287.135 226.752 287.126 226.78C287.107 226.836 287.088 226.897 287.079 226.963L286.126 232.92C286.14 232.831 286.168 232.747 286.205 232.663C286.215 232.644 286.224 232.621 286.233 232.602C286.275 232.522 286.327 232.443 286.387 232.368C286.392 232.364 286.397 232.359 286.406 232.354C286.471 232.279 286.542 232.209 286.626 232.144C286.728 232.065 286.841 231.985 286.967 231.91C287.037 231.868 287.107 231.836 287.182 231.798C287.266 231.756 287.355 231.714 287.443 231.677C287.49 231.658 287.532 231.639 287.579 231.621C287.682 231.579 287.789 231.546 287.892 231.513C287.92 231.504 287.953 231.495 287.981 231.485C288.116 231.448 288.256 231.415 288.401 231.392C288.438 231.387 288.476 231.382 288.509 231.378C288.616 231.359 288.723 231.35 288.836 231.34C288.882 231.336 288.924 231.336 288.971 231.331C289.111 231.322 289.256 231.322 289.401 231.326C289.434 231.326 289.466 231.326 289.499 231.326C289.639 231.331 289.779 231.345 289.92 231.364C289.924 231.364 289.929 231.364 289.934 231.364C290.074 231.382 290.219 231.406 290.363 231.434C290.405 231.443 290.447 231.453 290.49 231.462C290.597 231.485 290.704 231.509 290.812 231.537C290.859 231.551 290.905 231.565 290.952 231.579C291.069 231.611 291.19 231.649 291.307 231.691C291.359 231.709 291.41 231.728 291.457 231.742C291.653 231.812 291.854 231.892 292.055 231.98C292.064 231.985 292.078 231.99 292.087 231.994C292.232 232.06 292.377 232.13 292.527 232.205C292.578 232.233 292.634 232.261 292.685 232.289C292.788 232.345 292.896 232.401 293.003 232.462C293.129 232.532 293.251 232.607 293.377 232.686C295.484 234.003 296.077 235.143 295.923 236.087L296.876 230.13C297.021 229.182 296.428 228.042 294.321 226.724Z" fill="url(#paint45_linear_3388_103239)"/>
<path d="M304.287 237.157L303.334 243.11L295.391 238.143C295.246 237.821 295.074 237.48 294.873 237.129L295.728 231.803L304.287 237.157Z" fill="url(#paint46_linear_3388_103239)"/>
<path d="M307.52 232.812L306.567 238.769C306.306 240.414 305.133 241.876 303.334 243.114L304.287 237.157C306.086 235.919 307.259 234.457 307.52 232.812Z" fill="url(#paint47_linear_3388_103239)"/>
<path d="M307.32 233.606C307.212 233.91 307.077 234.204 306.908 234.489C306.721 234.816 306.493 235.129 306.236 235.438C305.913 235.821 305.535 236.185 305.11 236.536C304.853 236.746 304.577 236.956 304.287 237.153L303.334 243.109C303.624 242.909 303.9 242.703 304.157 242.493C304.582 242.142 304.96 241.778 305.282 241.395C305.544 241.086 305.768 240.773 305.955 240.446C306.123 240.157 306.259 239.862 306.366 239.563C306.46 239.302 306.525 239.04 306.567 238.769L307.52 232.812C307.478 233.083 307.413 233.349 307.32 233.606Z" fill="url(#paint48_linear_3388_103239)"/>
<path d="M273.637 233.027L272.684 238.984C272.656 239.007 272.628 239.031 272.6 239.054L273.553 233.097C273.576 233.074 273.604 233.05 273.637 233.027Z" fill="url(#paint49_linear_3388_103239)"/>
<path d="M273.549 233.097L272.596 239.054C272.372 239.241 272.175 239.428 272.012 239.619L272.965 233.662C273.133 233.471 273.325 233.279 273.549 233.097Z" fill="url(#paint50_linear_3388_103239)"/>
<path d="M272.969 233.662L272.016 239.619C271.88 239.778 271.768 239.937 271.675 240.096L272.628 234.139C272.721 233.98 272.833 233.821 272.969 233.662Z" fill="url(#paint51_linear_3388_103239)"/>
<path d="M272.628 234.139L271.675 240.096C271.59 240.241 271.525 240.386 271.474 240.535L272.427 234.578C272.478 234.429 272.544 234.284 272.628 234.139Z" fill="url(#paint52_linear_3388_103239)"/>
<path d="M272.427 234.578L271.474 240.535C271.427 240.661 271.395 240.792 271.376 240.923L272.329 234.966C272.348 234.835 272.381 234.704 272.427 234.578Z" fill="url(#paint53_linear_3388_103239)"/>
<path d="M280.132 233.443C276.343 229.495 274.969 226.832 275.296 224.804L274.343 230.761C274.016 232.789 275.394 235.452 279.179 239.4C281.207 241.521 282.473 242.979 282.898 244.058C283.005 244.329 283.061 244.572 283.061 244.801C283.061 244.876 283.057 244.95 283.043 245.02L283.996 239.063C284.183 237.923 282.837 236.269 280.132 233.443Z" fill="url(#paint54_linear_3388_103239)"/>
<path d="M294.943 247.09L295.896 241.133C295.868 241.315 295.821 241.493 295.77 241.666C295.76 241.689 295.756 241.717 295.746 241.741C295.69 241.904 295.625 242.068 295.545 242.226C295.527 242.259 295.508 242.297 295.489 242.329C295.419 242.465 295.34 242.596 295.256 242.726C295.232 242.759 295.214 242.796 295.19 242.829C295.087 242.979 294.971 243.128 294.845 243.273C294.793 243.334 294.732 243.39 294.681 243.451C294.588 243.549 294.494 243.647 294.396 243.745C294.331 243.806 294.256 243.871 294.186 243.932C294.074 244.03 293.957 244.133 293.831 244.231C293.798 244.259 293.765 244.282 293.733 244.31C293.56 244.446 293.373 244.577 293.181 244.707C293.149 244.731 293.111 244.754 293.074 244.777C292.868 244.913 292.658 245.048 292.434 245.179C292.27 245.277 292.097 245.366 291.929 245.46C291.77 245.544 291.611 245.623 291.453 245.698C291.392 245.726 291.331 245.759 291.27 245.787C291.046 245.889 290.822 245.988 290.593 246.076C290.546 246.095 290.499 246.109 290.457 246.128C290.27 246.198 290.084 246.268 289.897 246.333C289.813 246.361 289.729 246.385 289.644 246.413C289.49 246.464 289.336 246.511 289.177 246.553C289.084 246.581 288.99 246.604 288.897 246.628C288.747 246.665 288.593 246.702 288.439 246.74C288.341 246.763 288.247 246.782 288.149 246.805C287.99 246.838 287.836 246.866 287.677 246.894C287.584 246.913 287.491 246.927 287.397 246.941C287.22 246.969 287.037 246.992 286.86 247.015C286.785 247.025 286.715 247.034 286.64 247.043C286.383 247.071 286.126 247.095 285.869 247.114C285.851 247.114 285.827 247.114 285.809 247.118C285.505 247.137 285.201 247.151 284.898 247.156C284.818 247.156 284.739 247.16 284.659 247.16C284.337 247.16 284.015 247.16 283.687 247.146C283.641 247.146 283.589 247.142 283.543 247.137C283.318 247.128 283.089 247.114 282.865 247.095C282.772 247.085 282.678 247.076 282.58 247.067C282.393 247.048 282.211 247.029 282.024 247.011C281.917 246.997 281.809 246.983 281.706 246.969C281.538 246.945 281.37 246.922 281.207 246.899C281.099 246.88 280.992 246.866 280.884 246.847C280.707 246.819 280.534 246.786 280.356 246.754C280.258 246.735 280.16 246.716 280.062 246.698C279.81 246.646 279.557 246.59 279.305 246.534C279.272 246.525 279.244 246.52 279.212 246.515C278.927 246.45 278.642 246.375 278.357 246.301C278.282 246.282 278.212 246.259 278.137 246.24C277.894 246.174 277.651 246.104 277.408 246.03C277.315 246.002 277.217 245.969 277.123 245.941C276.876 245.861 276.628 245.782 276.38 245.693C276.315 245.67 276.254 245.651 276.189 245.628C275.82 245.497 275.455 245.357 275.086 245.212C275.007 245.179 274.932 245.151 274.852 245.119C274.483 244.969 274.114 244.815 273.75 244.651C273.666 244.614 273.582 244.577 273.498 244.535C273.311 244.45 273.124 244.362 272.932 244.273C272.829 244.221 272.722 244.17 272.619 244.119C272.451 244.035 272.283 243.95 272.115 243.866C272.002 243.81 271.895 243.754 271.788 243.698C271.624 243.614 271.46 243.525 271.297 243.437C271.19 243.376 271.077 243.315 270.97 243.254C270.806 243.161 270.643 243.072 270.479 242.974C270.377 242.913 270.278 242.857 270.176 242.796C269.877 242.619 269.578 242.441 269.279 242.255C263.868 238.872 261.229 235.471 261.733 232.317L260.752 238.279C260.247 241.432 262.887 244.834 268.297 248.216C268.592 248.403 268.891 248.581 269.19 248.758C269.223 248.777 269.255 248.8 269.293 248.819C269.363 248.861 269.433 248.898 269.503 248.936C269.666 249.029 269.825 249.123 269.989 249.211C270.101 249.272 270.208 249.333 270.321 249.394C270.484 249.482 270.648 249.566 270.806 249.655C270.919 249.711 271.026 249.772 271.138 249.828C271.306 249.912 271.475 249.996 271.638 250.076C271.746 250.127 271.848 250.178 271.956 250.23C272.143 250.319 272.325 250.403 272.512 250.487C272.586 250.52 272.661 250.557 272.731 250.59C272.741 250.594 272.755 250.599 272.764 250.604C273.128 250.767 273.498 250.921 273.867 251.071C273.946 251.104 274.025 251.136 274.105 251.164C274.469 251.309 274.838 251.449 275.208 251.575C275.222 251.58 275.236 251.585 275.25 251.589C275.301 251.608 275.352 251.622 275.404 251.641C275.651 251.725 275.894 251.809 276.142 251.884C276.24 251.916 276.334 251.945 276.432 251.973C276.675 252.047 276.913 252.117 277.156 252.183C277.212 252.197 277.263 252.215 277.319 252.23C277.338 252.234 277.357 252.239 277.38 252.244C277.665 252.318 277.95 252.393 278.23 252.458C278.263 252.468 278.296 252.472 278.329 252.482C278.581 252.538 278.828 252.594 279.081 252.645C279.109 252.65 279.132 252.659 279.16 252.664C279.235 252.678 279.31 252.692 279.38 252.706C279.553 252.739 279.73 252.771 279.903 252.8C280.011 252.818 280.123 252.832 280.23 252.851C280.398 252.874 280.562 252.902 280.73 252.921C280.786 252.93 280.847 252.94 280.908 252.944C280.959 252.949 281.006 252.954 281.052 252.958C281.239 252.982 281.421 253 281.608 253.014C281.702 253.024 281.8 253.033 281.893 253.042C282.122 253.061 282.347 253.075 282.571 253.085C282.613 253.085 282.655 253.089 282.702 253.094C282.706 253.094 282.711 253.094 282.72 253.094C283.047 253.108 283.37 253.113 283.692 253.108C283.772 253.108 283.851 253.108 283.93 253.103C284.239 253.099 284.542 253.085 284.841 253.066C284.855 253.066 284.874 253.066 284.888 253.066C284.893 253.066 284.898 253.066 284.902 253.066C285.159 253.047 285.421 253.024 285.673 252.996C285.748 252.986 285.823 252.977 285.893 252.968C286.075 252.944 286.252 252.921 286.43 252.893C286.523 252.879 286.617 252.86 286.71 252.842C286.869 252.814 287.028 252.785 287.182 252.753C287.28 252.734 287.374 252.711 287.472 252.687C287.626 252.655 287.776 252.613 287.93 252.575C288.023 252.552 288.117 252.529 288.21 252.5C288.369 252.458 288.523 252.407 288.677 252.36C288.761 252.332 288.845 252.309 288.93 252.281C289.116 252.215 289.303 252.15 289.49 252.075C289.537 252.057 289.584 252.043 289.626 252.024C289.855 251.93 290.079 251.837 290.303 251.734C290.364 251.706 290.429 251.674 290.49 251.645C290.649 251.571 290.808 251.491 290.967 251.407C290.99 251.393 291.018 251.384 291.041 251.37C291.186 251.29 291.326 251.211 291.471 251.127C291.695 250.996 291.91 250.861 292.116 250.725C292.149 250.702 292.186 250.678 292.223 250.655C292.415 250.524 292.602 250.393 292.775 250.258C292.807 250.23 292.84 250.206 292.873 250.178C292.924 250.136 292.976 250.099 293.027 250.057C293.097 249.996 293.163 249.935 293.228 249.879C293.298 249.819 293.368 249.758 293.438 249.693C293.541 249.594 293.634 249.496 293.728 249.398C293.784 249.337 293.84 249.281 293.891 249.221C293.905 249.207 293.919 249.193 293.929 249.179C294.041 249.048 294.144 248.912 294.237 248.772C294.261 248.739 294.279 248.707 294.303 248.669C294.354 248.595 294.405 248.52 294.447 248.44C294.48 248.384 294.508 248.328 294.536 248.272C294.555 248.24 294.574 248.202 294.592 248.169C294.662 248.029 294.723 247.884 294.774 247.735C294.779 247.716 294.784 247.698 294.788 247.679C294.798 247.655 294.802 247.627 294.812 247.604C294.868 247.445 294.915 247.268 294.943 247.09Z" fill="url(#paint55_linear_3388_103239)"/>
<path d="M304.288 237.157L295.733 231.803C297.116 230.682 297.892 228.953 294.322 226.724C291.953 225.239 289.659 224.93 287.912 225.949C286.305 226.897 286.847 228.196 290.552 231.859C292.584 233.887 294.004 235.615 294.878 237.129C295.079 237.48 295.252 237.821 295.397 238.143C296.766 241.255 295.546 243.343 292.439 245.175C286.197 248.842 277.147 247.198 269.261 242.264C261.057 237.134 259.216 231.957 265.079 227.673L273.643 233.032C271.424 234.788 271.971 236.952 275.283 239.026C278.385 240.97 281.109 241.367 283.062 240.222C285.043 239.054 283.917 237.395 280.138 233.448C273.512 226.542 274.269 223.575 278.596 221.034C282.432 218.782 290.444 217.296 300.513 223.594C309.404 229.149 308.997 233.91 304.288 237.157Z" fill="url(#paint56_linear_3388_103239)"/>
<path d="M340.061 235.144L339.262 241.124L332.399 245.408L312.939 256.388L309.057 254.098L309.085 253.897L305.398 251.725L306.169 245.945L313.743 250.412L333.193 239.428L340.061 235.144Z" fill="url(#paint57_linear_3388_103239)"/>
<path d="M309.085 253.897L309.057 254.098L308.902 254.01L309.085 253.897Z" fill="url(#paint58_linear_3388_103239)"/>
<path d="M340.062 235.144L333.194 239.428L313.744 250.412L306.17 245.946L323.714 233.84L330.587 229.56L340.062 235.144Z" fill="url(#paint59_linear_3388_103239)"/>
<path d="M309.055 254.098L308.285 259.873L299.141 265.578L290.367 260.401L291.161 254.425L299.94 259.593L308.901 254.01L309.055 254.098Z" fill="url(#paint60_linear_3388_103239)"/>
<path d="M309.082 253.897L309.054 254.098L308.9 254.01L309.082 253.897Z" fill="url(#paint61_linear_3388_103239)"/>
<path d="M309.084 253.897L308.902 254.01L299.941 259.593L291.162 254.425L300.305 248.721L305.398 251.725L309.084 253.897Z" fill="url(#paint62_linear_3388_103239)"/>
</g>
<defs>
<filter id="filter0_d_3388_103239" x="41.9602" y="71.1504" width="403.363" height="277.73" filterUnits="userSpaceOnUse" color-interpolation-filters="sRGB">
<feFlood flood-opacity="0" result="BackgroundImageFix"/>
<feColorMatrix in="SourceAlpha" type="matrix" values="0 0 0 0 0 0 0 0 0 0 0 0 0 0 0 0 0 0 127 0" result="hardAlpha"/>
<feMorphology radius="28" operator="dilate" in="SourceAlpha" result="effect1_dropShadow_3388_103239"/>
<feOffset dy="4"/>
<feGaussianBlur stdDeviation="6"/>
<feColorMatrix type="matrix" values="0 0 0 0 0.121458 0 0 0 0 0.182875 0 0 0 0 0.275 0 0 0 0.12 0"/>
<feBlend mode="multiply" in2="BackgroundImageFix" result="effect1_dropShadow_3388_103239"/>
<feBlend mode="normal" in="SourceGraphic" in2="effect1_dropShadow_3388_103239" result="shape"/>
</filter>
<filter id="filter1_d_3388_103239" x="-27.8533" y="206.483" width="230.692" height="179.2" filterUnits="userSpaceOnUse" color-interpolation-filters="sRGB">
<feFlood flood-opacity="0" result="BackgroundImageFix"/>
<feColorMatrix in="SourceAlpha" type="matrix" values="0 0 0 0 0 0 0 0 0 0 0 0 0 0 0 0 0 0 127 0" result="hardAlpha"/>
<feMorphology radius="28" operator="dilate" in="SourceAlpha" result="effect1_dropShadow_3388_103239"/>
<feOffset dy="4"/>
<feGaussianBlur stdDeviation="6"/>
<feColorMatrix type="matrix" values="0 0 0 0 0.121458 0 0 0 0 0.182875 0 0 0 0 0.275 0 0 0 0.12 0"/>
<feBlend mode="multiply" in2="BackgroundImageFix" result="effect1_dropShadow_3388_103239"/>
<feBlend mode="normal" in="SourceGraphic" in2="effect1_dropShadow_3388_103239" result="shape"/>
</filter>
<filter id="filter2_d_3388_103239" x="113.712" y="281.237" width="156.157" height="130.124" filterUnits="userSpaceOnUse" color-interpolation-filters="sRGB">
<feFlood flood-opacity="0" result="BackgroundImageFix"/>
<feColorMatrix in="SourceAlpha" type="matrix" values="0 0 0 0 0 0 0 0 0 0 0 0 0 0 0 0 0 0 127 0" result="hardAlpha"/>
<feMorphology radius="28" operator="dilate" in="SourceAlpha" result="effect1_dropShadow_3388_103239"/>
<feOffset dy="4"/>
<feGaussianBlur stdDeviation="6"/>
<feColorMatrix type="matrix" values="0 0 0 0 0.121458 0 0 0 0 0.182875 0 0 0 0 0.275 0 0 0 0.12 0"/>
<feBlend mode="multiply" in2="BackgroundImageFix" result="effect1_dropShadow_3388_103239"/>
<feBlend mode="normal" in="SourceGraphic" in2="effect1_dropShadow_3388_103239" result="shape"/>
</filter>
<filter id="filter3_d_3388_103239" x="213.229" y="281.705" width="130.704" height="113.372" filterUnits="userSpaceOnUse" color-interpolation-filters="sRGB">
<feFlood flood-opacity="0" result="BackgroundImageFix"/>
<feColorMatrix in="SourceAlpha" type="matrix" values="0 0 0 0 0 0 0 0 0 0 0 0 0 0 0 0 0 0 127 0" result="hardAlpha"/>
<feMorphology radius="28" operator="dilate" in="SourceAlpha" result="effect1_dropShadow_3388_103239"/>
<feOffset dy="4"/>
<feGaussianBlur stdDeviation="6"/>
<feColorMatrix type="matrix" values="0 0 0 0 0.121458 0 0 0 0 0.182875 0 0 0 0 0.275 0 0 0 0.12 0"/>
<feBlend mode="multiply" in2="BackgroundImageFix" result="effect1_dropShadow_3388_103239"/>
<feBlend mode="normal" in="SourceGraphic" in2="effect1_dropShadow_3388_103239" result="shape"/>
</filter>
<filter id="filter4_d_3388_103239" x="404.683" y="216.317" width="75.8164" height="59.3542" filterUnits="userSpaceOnUse" color-interpolation-filters="sRGB">
<feFlood flood-opacity="0" result="BackgroundImageFix"/>
<feColorMatrix in="SourceAlpha" type="matrix" values="0 0 0 0 0 0 0 0 0 0 0 0 0 0 0 0 0 0 127 0" result="hardAlpha"/>
<feOffset dy="4"/>
<feGaussianBlur stdDeviation="6"/>
<feComposite in2="hardAlpha" operator="out"/>
<feColorMatrix type="matrix" values="0 0 0 0 0 0 0 0 0 0 0 0 0 0 0 0 0 0 0.12 0"/>
<feBlend mode="normal" in2="BackgroundImageFix" result="effect1_dropShadow_3388_103239"/>
<feBlend mode="normal" in="SourceGraphic" in2="effect1_dropShadow_3388_103239" result="shape"/>
</filter>
<filter id="filter5_d_3388_103239" x="425.081" y="255.499" width="75.8221" height="59.3589" filterUnits="userSpaceOnUse" color-interpolation-filters="sRGB">
<feFlood flood-opacity="0" result="BackgroundImageFix"/>
<feColorMatrix in="SourceAlpha" type="matrix" values="0 0 0 0 0 0 0 0 0 0 0 0 0 0 0 0 0 0 127 0" result="hardAlpha"/>
<feOffset dy="4"/>
<feGaussianBlur stdDeviation="6"/>
<feComposite in2="hardAlpha" operator="out"/>
<feColorMatrix type="matrix" values="0 0 0 0 0 0 0 0 0 0 0 0 0 0 0 0 0 0 0.12 0"/>
<feBlend mode="normal" in2="BackgroundImageFix" result="effect1_dropShadow_3388_103239"/>
<feBlend mode="normal" in="SourceGraphic" in2="effect1_dropShadow_3388_103239" result="shape"/>
</filter>
<filter id="filter6_d_3388_103239" x="359.101" y="268.198" width="75.8163" height="59.3542" filterUnits="userSpaceOnUse" color-interpolation-filters="sRGB">
<feFlood flood-opacity="0" result="BackgroundImageFix"/>
<feColorMatrix in="SourceAlpha" type="matrix" values="0 0 0 0 0 0 0 0 0 0 0 0 0 0 0 0 0 0 127 0" result="hardAlpha"/>
<feOffset dy="4"/>
<feGaussianBlur stdDeviation="6"/>
<feComposite in2="hardAlpha" operator="out"/>
<feColorMatrix type="matrix" values="0 0 0 0 0 0 0 0 0 0 0 0 0 0 0 0 0 0 0.12 0"/>
<feBlend mode="normal" in2="BackgroundImageFix" result="effect1_dropShadow_3388_103239"/>
<feBlend mode="normal" in="SourceGraphic" in2="effect1_dropShadow_3388_103239" result="shape"/>
</filter>
<linearGradient id="paint0_linear_3388_103239" x1="230.652" y1="138.685" x2="257.629" y2="290.718" gradientUnits="userSpaceOnUse">
<stop stop-color="#F6ECFF"/>
<stop offset="1" stop-color="#CDD3F7"/>
</linearGradient>
<linearGradient id="paint1_linear_3388_103239" x1="423.763" y1="132.688" x2="410.482" y2="102.104" gradientUnits="userSpaceOnUse">
<stop stop-color="#FF9971"/>
<stop offset="1" stop-color="#EE4E00"/>
</linearGradient>
<linearGradient id="paint2_linear_3388_103239" x1="438.246" y1="168.897" x2="422.966" y2="126.995" gradientUnits="userSpaceOnUse">
<stop stop-color="#FF9971"/>
<stop offset="1" stop-color="#EE4E00"/>
</linearGradient>
<linearGradient id="paint3_linear_3388_103239" x1="445.722" y1="199.266" x2="429.096" y2="151.951" gradientUnits="userSpaceOnUse">
<stop stop-color="#FF9971"/>
<stop offset="1" stop-color="#EE4E00"/>
</linearGradient>
<linearGradient id="paint4_linear_3388_103239" x1="164.044" y1="264.379" x2="55.751" y2="368.886" gradientUnits="userSpaceOnUse">
<stop stop-color="#D8DEFF"/>
<stop offset="1" stop-color="#E5EAFE"/>
</linearGradient>
<linearGradient id="paint5_linear_3388_103239" x1="42.5428" y1="261.522" x2="51.0851" y2="343.282" gradientUnits="userSpaceOnUse">
<stop stop-color="#FF9971"/>
<stop offset="1" stop-color="#EE4E00"/>
</linearGradient>
<linearGradient id="paint6_linear_3388_103239" x1="230.474" y1="328.293" x2="175.744" y2="381.11" gradientUnits="userSpaceOnUse">
<stop stop-color="#D8DEFF"/>
<stop offset="1" stop-color="#E5EAFE"/>
</linearGradient>
<linearGradient id="paint7_linear_3388_103239" x1="165.524" y1="353.701" x2="161.519" y2="356.362" gradientUnits="userSpaceOnUse">
<stop stop-color="#D8DEFF"/>
<stop offset="1" stop-color="#E5EAFE"/>
</linearGradient>
<linearGradient id="paint8_linear_3388_103239" x1="169.075" y1="326.859" x2="173.392" y2="368.179" gradientUnits="userSpaceOnUse">
<stop stop-color="#FF9971"/>
<stop offset="1" stop-color="#EE4E00"/>
</linearGradient>
<linearGradient id="paint9_linear_3388_103239" x1="165.925" y1="327.907" x2="160.606" y2="330.236" gradientUnits="userSpaceOnUse">
<stop stop-color="#D8DEFF"/>
<stop offset="1" stop-color="#E5EAFE"/>
</linearGradient>
<linearGradient id="paint10_linear_3388_103239" x1="220.75" y1="328.358" x2="217.397" y2="330.073" gradientUnits="userSpaceOnUse">
<stop stop-color="#D8DEFF"/>
<stop offset="1" stop-color="#E5EAFE"/>
</linearGradient>
<linearGradient id="paint11_linear_3388_103239" x1="222.274" y1="353.862" x2="218.921" y2="355.577" gradientUnits="userSpaceOnUse">
<stop stop-color="#D8DEFF"/>
<stop offset="1" stop-color="#E5EAFE"/>
</linearGradient>
<linearGradient id="paint12_linear_3388_103239" x1="304.335" y1="325.066" x2="267.897" y2="360.23" gradientUnits="userSpaceOnUse">
<stop stop-color="#D8DEFF"/>
<stop offset="1" stop-color="#E5EAFE"/>
</linearGradient>
<linearGradient id="paint13_linear_3388_103239" x1="263.457" y1="324.111" x2="266.331" y2="351.621" gradientUnits="userSpaceOnUse">
<stop stop-color="#FF9971"/>
<stop offset="1" stop-color="#EE4E00"/>
</linearGradient>
<linearGradient id="paint14_linear_3388_103239" x1="261.363" y1="324.808" x2="257.822" y2="326.359" gradientUnits="userSpaceOnUse">
<stop stop-color="#D8DEFF"/>
<stop offset="1" stop-color="#E5EAFE"/>
</linearGradient>
<linearGradient id="paint15_linear_3388_103239" x1="297.861" y1="325.108" x2="295.629" y2="326.251" gradientUnits="userSpaceOnUse">
<stop stop-color="#D8DEFF"/>
<stop offset="1" stop-color="#E5EAFE"/>
</linearGradient>
<linearGradient id="paint16_linear_3388_103239" x1="298.876" y1="342.088" x2="296.644" y2="343.231" gradientUnits="userSpaceOnUse">
<stop stop-color="#D8DEFF"/>
<stop offset="1" stop-color="#E5EAFE"/>
</linearGradient>
<linearGradient id="paint17_linear_3388_103239" x1="309.44" y1="129.951" x2="316.772" y2="168.047" gradientUnits="userSpaceOnUse">
<stop stop-color="#F6ECFF"/>
<stop offset="1" stop-color="#CDD3F7"/>
</linearGradient>
<linearGradient id="paint18_linear_3388_103239" x1="55.5927" y1="82.6929" x2="18.9355" y2="213.91" gradientUnits="userSpaceOnUse">
<stop stop-color="#F6ECFF"/>
<stop offset="1" stop-color="#CDD3F7"/>
</linearGradient>
<linearGradient id="paint19_linear_3388_103239" x1="95.3113" y1="67.2786" x2="-13.7288" y2="197.023" gradientUnits="userSpaceOnUse">
<stop stop-color="#FF9971"/>
<stop offset="1" stop-color="#EE4E00"/>
</linearGradient>
<linearGradient id="paint20_linear_3388_103239" x1="439.36" y1="227.524" x2="445.225" y2="259.693" gradientUnits="userSpaceOnUse">
<stop stop-color="#F6ECFF"/>
<stop offset="1" stop-color="#CDD3F7"/>
</linearGradient>
<linearGradient id="paint21_linear_3388_103239" x1="442.57" y1="267.079" x2="442.57" y2="231.523" gradientUnits="userSpaceOnUse">
<stop stop-color="#FD9788"/>
<stop offset="1" stop-color="#FDE19B"/>
</linearGradient>
<linearGradient id="paint22_linear_3388_103239" x1="459.76" y1="266.709" x2="465.625" y2="298.878" gradientUnits="userSpaceOnUse">
<stop stop-color="#F6ECFF"/>
<stop offset="1" stop-color="#CDD3F7"/>
</linearGradient>
<linearGradient id="paint23_linear_3388_103239" x1="462.97" y1="306.264" x2="462.97" y2="270.708" gradientUnits="userSpaceOnUse">
<stop stop-color="#FD9788"/>
<stop offset="1" stop-color="#FDE19B"/>
</linearGradient>
<linearGradient id="paint24_linear_3388_103239" x1="393.777" y1="279.408" x2="399.642" y2="311.577" gradientUnits="userSpaceOnUse">
<stop stop-color="#F6ECFF"/>
<stop offset="1" stop-color="#CDD3F7"/>
</linearGradient>
<linearGradient id="paint25_linear_3388_103239" x1="396.988" y1="318.963" x2="396.988" y2="283.407" gradientUnits="userSpaceOnUse">
<stop stop-color="#FD9788"/>
<stop offset="1" stop-color="#FDE19B"/>
</linearGradient>
<linearGradient id="paint26_linear_3388_103239" x1="194.244" y1="154.165" x2="172.897" y2="179.798" gradientUnits="userSpaceOnUse">
<stop stop-color="#D8DEFF"/>
<stop offset="1" stop-color="#E5EAFE"/>
</linearGradient>
<linearGradient id="paint27_linear_3388_103239" x1="205.48" y1="164.774" x2="177.24" y2="204.366" gradientUnits="userSpaceOnUse">
<stop stop-color="#D8DEFF"/>
<stop offset="1" stop-color="#E5EAFE"/>
</linearGradient>
<linearGradient id="paint28_linear_3388_103239" x1="203.526" y1="171.337" x2="203.489" y2="171.344" gradientUnits="userSpaceOnUse">
<stop stop-color="#D8DEFF"/>
<stop offset="1" stop-color="#E5EAFE"/>
</linearGradient>
<linearGradient id="paint29_linear_3388_103239" x1="205" y1="163.966" x2="204.745" y2="164" gradientUnits="userSpaceOnUse">
<stop stop-color="#D8DEFF"/>
<stop offset="1" stop-color="#E5EAFE"/>
</linearGradient>
<linearGradient id="paint30_linear_3388_103239" x1="202.667" y1="173.181" x2="202.55" y2="173.219" gradientUnits="userSpaceOnUse">
<stop stop-color="#D8DEFF"/>
<stop offset="1" stop-color="#E5EAFE"/>
</linearGradient>
<linearGradient id="paint31_linear_3388_103239" x1="203.499" y1="171.407" x2="203.462" y2="171.414" gradientUnits="userSpaceOnUse">
<stop stop-color="#D8DEFF"/>
<stop offset="1" stop-color="#E5EAFE"/>
</linearGradient>
<linearGradient id="paint32_linear_3388_103239" x1="202.574" y1="173.321" x2="202.516" y2="173.341" gradientUnits="userSpaceOnUse">
<stop stop-color="#D8DEFF"/>
<stop offset="1" stop-color="#E5EAFE"/>
</linearGradient>
<linearGradient id="paint33_linear_3388_103239" x1="199.347" y1="172.119" x2="199.004" y2="172.378" gradientUnits="userSpaceOnUse">
<stop stop-color="#D8DEFF"/>
<stop offset="1" stop-color="#E5EAFE"/>
</linearGradient>
<linearGradient id="paint34_linear_3388_103239" x1="157.697" y1="151.793" x2="160.947" y2="183.47" gradientUnits="userSpaceOnUse">
<stop stop-color="#FF9971"/>
<stop offset="1" stop-color="#EE4E00"/>
</linearGradient>
<linearGradient id="paint35_linear_3388_103239" x1="224.45" y1="184.374" x2="206.983" y2="202.139" gradientUnits="userSpaceOnUse">
<stop stop-color="#D8DEFF"/>
<stop offset="1" stop-color="#E5EAFE"/>
</linearGradient>
<linearGradient id="paint36_linear_3388_103239" x1="235.378" y1="191.75" x2="211.533" y2="223.409" gradientUnits="userSpaceOnUse">
<stop stop-color="#D8DEFF"/>
<stop offset="1" stop-color="#E5EAFE"/>
</linearGradient>
<linearGradient id="paint37_linear_3388_103239" x1="197.806" y1="181.274" x2="200.349" y2="206.108" gradientUnits="userSpaceOnUse">
<stop stop-color="#FF9971"/>
<stop offset="1" stop-color="#EE4E00"/>
</linearGradient>
<linearGradient id="paint38_linear_3388_103239" x1="257.096" y1="199.091" x2="251.38" y2="200.873" gradientUnits="userSpaceOnUse">
<stop stop-color="#D8DEFF"/>
<stop offset="1" stop-color="#E5EAFE"/>
</linearGradient>
<linearGradient id="paint39_linear_3388_103239" x1="257.096" y1="199.091" x2="251.38" y2="200.873" gradientUnits="userSpaceOnUse">
<stop stop-color="#D8DEFF"/>
<stop offset="1" stop-color="#E5EAFE"/>
</linearGradient>
<linearGradient id="paint40_linear_3388_103239" x1="261.242" y1="205.816" x2="243.572" y2="223.477" gradientUnits="userSpaceOnUse">
<stop stop-color="#D8DEFF"/>
<stop offset="1" stop-color="#E5EAFE"/>
</linearGradient>
<linearGradient id="paint41_linear_3388_103239" x1="230.105" y1="217.183" x2="212.826" y2="233.686" gradientUnits="userSpaceOnUse">
<stop stop-color="#D8DEFF"/>
<stop offset="1" stop-color="#E5EAFE"/>
</linearGradient>
<linearGradient id="paint42_linear_3388_103239" x1="273.324" y1="214.587" x2="251.17" y2="243.95" gradientUnits="userSpaceOnUse">
<stop stop-color="#D8DEFF"/>
<stop offset="1" stop-color="#E5EAFE"/>
</linearGradient>
<linearGradient id="paint43_linear_3388_103239" x1="229.817" y1="214.997" x2="230.222" y2="215.323" gradientUnits="userSpaceOnUse">
<stop stop-color="#FF9971"/>
<stop offset="1" stop-color="#EE4E00"/>
</linearGradient>
<linearGradient id="paint44_linear_3388_103239" x1="220.269" y1="199.263" x2="222.698" y2="228.192" gradientUnits="userSpaceOnUse">
<stop stop-color="#FF9971"/>
<stop offset="1" stop-color="#EE4E00"/>
</linearGradient>
<linearGradient id="paint45_linear_3388_103239" x1="296.983" y1="227.098" x2="285.925" y2="233.659" gradientUnits="userSpaceOnUse">
<stop stop-color="#D8DEFF"/>
<stop offset="1" stop-color="#E5EAFE"/>
</linearGradient>
<linearGradient id="paint46_linear_3388_103239" x1="304.362" y1="233.632" x2="293.84" y2="238.807" gradientUnits="userSpaceOnUse">
<stop stop-color="#D8DEFF"/>
<stop offset="1" stop-color="#E5EAFE"/>
</linearGradient>
<linearGradient id="paint47_linear_3388_103239" x1="307.554" y1="234.479" x2="302.06" y2="235.798" gradientUnits="userSpaceOnUse">
<stop stop-color="#D8DEFF"/>
<stop offset="1" stop-color="#E5EAFE"/>
</linearGradient>
<linearGradient id="paint48_linear_3388_103239" x1="307.554" y1="234.478" x2="302.06" y2="235.798" gradientUnits="userSpaceOnUse">
<stop stop-color="#D8DEFF"/>
<stop offset="1" stop-color="#E5EAFE"/>
</linearGradient>
<linearGradient id="paint49_linear_3388_103239" x1="273.645" y1="234.002" x2="272.22" y2="234.147" gradientUnits="userSpaceOnUse">
<stop stop-color="#D8DEFF"/>
<stop offset="1" stop-color="#E5EAFE"/>
</linearGradient>
<linearGradient id="paint50_linear_3388_103239" x1="273.561" y1="234.152" x2="271.468" y2="234.444" gradientUnits="userSpaceOnUse">
<stop stop-color="#D8DEFF"/>
<stop offset="1" stop-color="#E5EAFE"/>
</linearGradient>
<linearGradient id="paint51_linear_3388_103239" x1="272.979" y1="234.703" x2="271.208" y2="234.914" gradientUnits="userSpaceOnUse">
<stop stop-color="#D8DEFF"/>
<stop offset="1" stop-color="#E5EAFE"/>
</linearGradient>
<linearGradient id="paint52_linear_3388_103239" x1="272.637" y1="235.174" x2="271.053" y2="235.343" gradientUnits="userSpaceOnUse">
<stop stop-color="#D8DEFF"/>
<stop offset="1" stop-color="#E5EAFE"/>
</linearGradient>
<linearGradient id="paint53_linear_3388_103239" x1="272.436" y1="235.605" x2="270.99" y2="235.746" gradientUnits="userSpaceOnUse">
<stop stop-color="#D8DEFF"/>
<stop offset="1" stop-color="#E5EAFE"/>
</linearGradient>
<linearGradient id="paint54_linear_3388_103239" x1="284.091" y1="228.075" x2="271.61" y2="231.618" gradientUnits="userSpaceOnUse">
<stop stop-color="#D8DEFF"/>
<stop offset="1" stop-color="#E5EAFE"/>
</linearGradient>
<linearGradient id="paint55_linear_3388_103239" x1="296.177" y1="235.681" x2="271.747" y2="260.113" gradientUnits="userSpaceOnUse">
<stop stop-color="#D8DEFF"/>
<stop offset="1" stop-color="#E5EAFE"/>
</linearGradient>
<linearGradient id="paint56_linear_3388_103239" x1="270.919" y1="224.889" x2="273.515" y2="249.776" gradientUnits="userSpaceOnUse">
<stop stop-color="#FF9971"/>
<stop offset="1" stop-color="#EE4E00"/>
</linearGradient>
<linearGradient id="paint57_linear_3388_103239" x1="340.338" y1="238.581" x2="315.395" y2="262.62" gradientUnits="userSpaceOnUse">
<stop stop-color="#D8DEFF"/>
<stop offset="1" stop-color="#E5EAFE"/>
</linearGradient>
<linearGradient id="paint58_linear_3388_103239" x1="309.086" y1="253.93" x2="308.89" y2="254.035" gradientUnits="userSpaceOnUse">
<stop stop-color="#D8DEFF"/>
<stop offset="1" stop-color="#E5EAFE"/>
</linearGradient>
<linearGradient id="paint59_linear_3388_103239" x1="313.007" y1="233.865" x2="314.948" y2="252.348" gradientUnits="userSpaceOnUse">
<stop stop-color="#FF9971"/>
<stop offset="1" stop-color="#EE4E00"/>
</linearGradient>
<linearGradient id="paint60_linear_3388_103239" x1="309.205" y1="255.881" x2="295.628" y2="268.837" gradientUnits="userSpaceOnUse">
<stop stop-color="#D8DEFF"/>
<stop offset="1" stop-color="#E5EAFE"/>
</linearGradient>
<linearGradient id="paint61_linear_3388_103239" x1="309.084" y1="253.93" x2="308.887" y2="254.035" gradientUnits="userSpaceOnUse">
<stop stop-color="#D8DEFF"/>
<stop offset="1" stop-color="#E5EAFE"/>
</linearGradient>
<linearGradient id="paint62_linear_3388_103239" x1="294.777" y1="250.965" x2="295.775" y2="260.605" gradientUnits="userSpaceOnUse">
<stop stop-color="#FF9971"/>
<stop offset="1" stop-color="#EE4E00"/>
</linearGradient>
<clipPath id="clip0_3388_103239">
<rect width="488.901" height="397" fill="white"/>
</clipPath>
</defs>
</svg>
