<svg width="16" height="16" viewBox="0 0 16 16" fill="none" xmlns="http://www.w3.org/2000/svg">
<path fill-rule="evenodd" clip-rule="evenodd" d="M7.99998 13.334C10.9455 13.334 13.3333 10.9462 13.3333 8.00065C13.3333 5.05513 10.9455 2.66732 7.99998 2.66732C5.05446 2.66732 2.66665 5.05513 2.66665 8.00065C2.66665 10.9462 5.05446 13.334 7.99998 13.334ZM7.99998 14.6673C11.6819 14.6673 14.6666 11.6825 14.6666 8.00065C14.6666 4.31875 11.6819 1.33398 7.99998 1.33398C4.31808 1.33398 1.33331 4.31875 1.33331 8.00065C1.33331 11.6825 4.31808 14.6673 7.99998 14.6673Z" fill="#777E91"/>
<path fill-rule="evenodd" clip-rule="evenodd" d="M7.42213 6.33317C7.23777 6.65187 6.82995 6.76078 6.51124 6.57642C6.19254 6.39206 6.08363 5.98424 6.26799 5.66553C6.61279 5.06947 7.2589 4.66602 8.00002 4.66602C9.10459 4.66602 10 5.56145 10 6.66602C10 7.39783 9.5511 7.99534 9.00002 8.33268C8.55736 8.60366 8.83335 9.33268 7.99827 9.33268C7.63008 9.33268 7.3316 9.03421 7.3316 8.66602C7.3316 8.64261 7.33281 8.61948 7.33516 8.5967C7.35365 8.24412 7.51087 7.95724 7.68204 7.74864C7.86283 7.52833 8.10051 7.34849 8.28225 7.24045C9.29339 6.63935 8.06013 5.40961 7.42213 6.33317ZM7.99827 9.99935C7.63008 9.99935 7.3316 10.2978 7.3316 10.666C7.3316 11.0342 7.63008 11.3327 7.99827 11.3327C8.36646 11.3327 8.66494 11.0342 8.66494 10.666C8.66494 10.2978 8.36646 9.99935 7.99827 9.99935Z" fill="#777E91"/>
</svg>
