<svg width="40" height="40" viewBox="0 0 40 40" fill="none" xmlns="http://www.w3.org/2000/svg">
<g filter="url(#filter0_d_4077_61017)">
<rect x="4" y="3" width="32" height="32" rx="16" fill="white"/>
<path fill-rule="evenodd" clip-rule="evenodd" d="M21.2094 20.8001C20.6449 21.2389 19.9357 21.5002 19.1654 21.5002C17.3244 21.5002 15.832 20.0078 15.832 18.1668C15.832 16.3259 17.3244 14.8335 19.1654 14.8335C21.0063 14.8335 22.4987 16.3259 22.4987 18.1668C22.4987 18.9371 22.2374 19.6464 21.7986 20.2108L24.0433 22.4555C24.206 22.6183 24.206 22.8821 24.0433 23.0448C23.8806 23.2075 23.6168 23.2075 23.4541 23.0448L21.2094 20.8001ZM21.6654 18.1668C21.6654 19.5475 20.5461 20.6668 19.1654 20.6668C17.7847 20.6668 16.6654 19.5475 16.6654 18.1668C16.6654 16.7861 17.7847 15.6668 19.1654 15.6668C20.5461 15.6668 21.6654 16.7861 21.6654 18.1668Z" fill="#777E91" stroke="#777E91" stroke-width="0.75" stroke-linecap="round"/>
<path d="M12.5013 16.4998C12.9615 16.4998 13.3346 16.1267 13.3346 15.6665V13.1665C13.3346 12.7063 13.7077 12.3332 14.168 12.3332H16.668C17.1282 12.3332 17.5013 11.9601 17.5013 11.4998C17.5013 11.0396 17.1282 10.6665 16.668 10.6665H14.168C12.7873 10.6665 11.668 11.7858 11.668 13.1665V15.6665C11.668 16.1267 12.0411 16.4998 12.5013 16.4998Z" fill="#777E91"/>
<path d="M13.3346 22.3332C13.3346 21.8729 12.9615 21.4998 12.5013 21.4998C12.0411 21.4998 11.668 21.8729 11.668 22.3332V24.8332C11.668 26.2139 12.7873 27.3332 14.168 27.3332H16.668C17.1282 27.3332 17.5013 26.9601 17.5013 26.4998C17.5013 26.0396 17.1282 25.6665 16.668 25.6665H14.168C13.7077 25.6665 13.3346 25.2934 13.3346 24.8332V22.3332Z" fill="#777E91"/>
<path d="M26.668 22.3332C26.668 21.8729 27.0411 21.4998 27.5013 21.4998C27.9615 21.4998 28.3346 21.8729 28.3346 22.3332V24.8332C28.3346 26.2139 27.2154 27.3332 25.8346 27.3332H23.3346C22.8744 27.3332 22.5013 26.9601 22.5013 26.4998C22.5013 26.0396 22.8744 25.6665 23.3346 25.6665H25.8346C26.2949 25.6665 26.668 25.2934 26.668 24.8332V22.3332Z" fill="#777E91"/>
<path d="M26.668 15.6665C26.668 16.1267 27.0411 16.4998 27.5013 16.4998C27.9615 16.4998 28.3346 16.1267 28.3346 15.6665V13.1665C28.3346 11.7858 27.2154 10.6665 25.8346 10.6665H23.3346C22.8744 10.6665 22.5013 11.0396 22.5013 11.4998C22.5013 11.9601 22.8744 12.3332 23.3346 12.3332H25.8346C26.2949 12.3332 26.668 12.7063 26.668 13.1665V15.6665Z" fill="#777E91"/>
</g>
<defs>
<filter id="filter0_d_4077_61017" x="0" y="0" width="40" height="40" filterUnits="userSpaceOnUse" color-interpolation-filters="sRGB">
<feFlood flood-opacity="0" result="BackgroundImageFix"/>
<feColorMatrix in="SourceAlpha" type="matrix" values="0 0 0 0 0 0 0 0 0 0 0 0 0 0 0 0 0 0 127 0" result="hardAlpha"/>
<feOffset dy="1"/>
<feGaussianBlur stdDeviation="2"/>
<feColorMatrix type="matrix" values="0 0 0 0 0.0583333 0 0 0 0 0.0583333 0 0 0 0 0.0583333 0 0 0 0.1 0"/>
<feBlend mode="multiply" in2="BackgroundImageFix" result="effect1_dropShadow_4077_61017"/>
<feBlend mode="normal" in="SourceGraphic" in2="effect1_dropShadow_4077_61017" result="shape"/>
</filter>
</defs>
</svg>
