<svg width="24" height="25" viewBox="0 0 24 25" fill="none" xmlns="http://www.w3.org/2000/svg">
<path fill-rule="evenodd" clip-rule="evenodd" d="M12 20.5C16.4183 20.5 20 16.9183 20 12.5C20 8.08172 16.4183 4.5 12 4.5C7.58172 4.5 4 8.08172 4 12.5C4 16.9183 7.58172 20.5 12 20.5ZM12 22.5C17.5228 22.5 22 18.0228 22 12.5C22 6.97715 17.5228 2.5 12 2.5C6.47715 2.5 2 6.97715 2 12.5C2 18.0228 6.47715 22.5 12 22.5Z" fill="#EF466F"/>
<path fill-rule="evenodd" clip-rule="evenodd" d="M12 7.5C11.4477 7.5 11 7.94772 11 8.5C11 9.05229 11.4477 9.5 12 9.5C12.5523 9.5 13 9.05229 13 8.5C13 7.94772 12.5523 7.5 12 7.5ZM12 11.5C11.4477 11.5 11 11.9477 11 12.5V16.5C11 17.0523 11.4477 17.5 12 17.5C12.5523 17.5 13 17.0523 13 16.5V12.5C13 11.9477 12.5523 11.5 12 11.5Z" fill="#EF466F"/>
</svg>
