<svg width="14" height="16" viewBox="0 0 14 16" fill="none" xmlns="http://www.w3.org/2000/svg">
<path fill-rule="evenodd" clip-rule="evenodd" d="M8.66536 3.1665C8.66536 1.78579 9.78465 0.666504 11.1654 0.666504C12.5461 0.666504 13.6654 1.78579 13.6654 3.1665V8.1665C13.6654 9.54722 12.5461 10.6665 11.1654 10.6665C9.78465 10.6665 8.66536 9.54722 8.66536 8.1665V3.1665ZM11.9987 3.1665V8.1665C11.9987 8.62674 11.6256 8.99984 11.1654 8.99984C10.7051 8.99984 10.332 8.62674 10.332 8.1665V3.1665C10.332 2.70627 10.7051 2.33317 11.1654 2.33317C11.6256 2.33317 11.9987 2.70627 11.9987 3.1665Z" fill="#777E91"/>
<path fill-rule="evenodd" clip-rule="evenodd" d="M0.332031 11.4998C0.332031 10.1191 1.45132 8.99984 2.83203 8.99984C4.21274 8.99984 5.33203 10.1191 5.33203 11.4998V13.1665C5.33203 14.5472 4.21274 15.6665 2.83203 15.6665C1.45132 15.6665 0.332031 14.5472 0.332031 13.1665V11.4998ZM3.66536 11.4998V13.1665C3.66536 13.6267 3.29227 13.9998 2.83203 13.9998C2.37179 13.9998 1.9987 13.6267 1.9987 13.1665V11.4998C1.9987 11.0396 2.37179 10.6665 2.83203 10.6665C3.29227 10.6665 3.66536 11.0396 3.66536 11.4998Z" fill="#777E91"/>
</svg>
