<svg width="11" height="12" viewBox="0 0 11 12" fill="none" xmlns="http://www.w3.org/2000/svg">
<path d="M10.8336 5.81605V10.2298C10.8336 10.5225 10.7173 10.8031 10.5104 11.0101C10.3035 11.217 10.0228 11.3333 9.73015 11.3333H1.27043C0.977783 11.3333 0.697118 11.217 0.490183 11.0101C0.283247 10.8031 0.166992 10.5225 0.166992 10.2298V1.7701C0.166992 1.47745 0.283247 1.19678 0.490183 0.989847C0.697118 0.782912 0.977783 0.666656 1.27043 0.666656H5.6842C5.83052 0.666656 5.97086 0.724784 6.07432 0.828252C6.17779 0.931719 6.23592 1.07205 6.23592 1.21838C6.23592 1.3647 6.17779 1.50504 6.07432 1.6085C5.97086 1.71197 5.83052 1.7701 5.6842 1.7701H1.63825C1.54079 1.77039 1.4474 1.80923 1.37849 1.87815C1.30957 1.94707 1.27072 2.04045 1.27043 2.13791V9.862C1.27072 9.95946 1.30957 10.0528 1.37849 10.1218C1.4474 10.1907 1.54079 10.2295 1.63825 10.2298H9.36234C9.4598 10.2295 9.55318 10.1907 9.6221 10.1218C9.69102 10.0528 9.72986 9.95946 9.73015 9.862V5.81605C9.73015 5.66972 9.78828 5.52939 9.89175 5.42592C9.99521 5.32246 10.1355 5.26433 10.2819 5.26433C10.4282 5.26433 10.5685 5.32246 10.672 5.42592C10.7755 5.52939 10.8336 5.66972 10.8336 5.81605Z" fill="#777E91"/>
<path d="M10.8343 1.03447V3.60917C10.8343 3.75549 10.7762 3.89583 10.6727 3.99929C10.5693 4.10276 10.4289 4.16089 10.2826 4.16089C10.1363 4.16089 9.99594 4.10276 9.89247 3.99929C9.789 3.89583 9.73087 3.75549 9.73087 3.60917V2.54986L6.41319 5.86755C6.3086 5.965 6.17027 6.01806 6.02734 6.01554C5.88441 6.01302 5.74803 5.95511 5.64695 5.85403C5.54586 5.75294 5.48796 5.61657 5.48544 5.47363C5.48292 5.3307 5.53597 5.19237 5.63343 5.08778L8.95111 1.7701H7.8918C7.74548 1.7701 7.60515 1.71197 7.50168 1.6085C7.39821 1.50504 7.34008 1.3647 7.34008 1.21838C7.34008 1.07205 7.39821 0.93172 7.50168 0.828252C7.60515 0.724784 7.74548 0.666656 7.8918 0.666656H10.4665C10.564 0.666948 10.6573 0.705793 10.7263 0.774708C10.7952 0.843624 10.834 0.93701 10.8343 1.03447Z" fill="#777E91"/>
</svg>
