<svg width="24" height="24" viewBox="0 0 24 24" fill="none" xmlns="http://www.w3.org/2000/svg">
<path d="M22 12C22 16.8967 18.4804 20.9714 13.8327 21.8322C13.2388 21.9425 12.6261 22 12 22C11.3118 22 10.64 21.9306 9.99102 21.798C5.43102 20.8682 2 16.8347 2 12C2 9.3343 3.04328 6.91145 4.74406 5.11918C4.84242 5.01512 4.94324 4.91348 5.04609 4.81387C6.8457 3.07184 9.29754 2 12 2C14.7025 2 17.1543 3.07184 18.9539 4.81387C18.9963 4.85469 19.0384 4.89633 19.08 4.93793C20.8845 6.74652 22 9.24328 22 12Z" fill="#1BA27A"/>
<path d="M13.6221 11.1377V9.1926H18.2629V6.16699H5.58407V9.19256H10.2245V11.1451C6.47608 11.3343 3.66797 12.1095 3.66797 13.0372C3.66797 13.9648 6.47608 14.74 10.2245 14.9292V20.9907C10.7985 21.1064 11.3927 21.167 12.0013 21.167C12.5551 21.167 13.0969 21.1168 13.6221 21.0206V14.9367C17.4486 14.7614 20.3346 13.9776 20.3346 13.0372C20.3346 12.0967 17.4486 11.3129 13.6221 11.1377ZM12.0013 14.2327C7.82 14.2327 4.43039 13.6111 4.43039 12.8441C4.43039 12.1893 6.9006 11.6403 10.2246 11.4939V13.7179C10.7881 13.7981 11.3559 13.8384 11.9234 13.8384C12.4912 13.8384 13.059 13.7981 13.6222 13.7179V11.4871C17.0244 11.6236 19.5719 12.179 19.5719 12.8441C19.5719 13.6111 16.1822 14.2327 12.0013 14.2327Z" fill="white"/>
</svg>
