<svg width="8" height="16" viewBox="0 0 8 16" fill="none" xmlns="http://www.w3.org/2000/svg">
<path d="M7.32358 14.2733L7.10002 15.1872C6.42934 15.4519 5.89361 15.6534 5.49467 15.7919C5.09531 15.9309 4.63127 16 4.10256 16C3.29063 16 2.6591 15.8011 2.20869 15.406C1.75827 15.0094 1.53299 14.5068 1.53299 13.8971C1.53299 13.661 1.54934 13.4182 1.58333 13.1709C1.6176 12.9232 1.67209 12.6443 1.74666 12.3326L2.58482 9.36594C2.65939 9.08187 2.72277 8.81271 2.77354 8.55818C2.82502 8.30522 2.84982 8.07249 2.84982 7.86298C2.84982 7.48412 2.77139 7.21912 2.61522 7.07013C2.45906 6.92157 2.16108 6.84614 1.7187 6.84614C1.50202 6.84614 1.27932 6.88084 1.05232 6.94796C0.824317 7.01535 0.629438 7.08046 0.46582 7.14097L0.689953 6.22637C1.23903 6.00281 1.76387 5.81138 2.26591 5.65249C2.76794 5.49318 3.24231 5.41345 3.691 5.41345C4.49733 5.41345 5.11954 5.60832 5.55648 5.99808C5.99341 6.38813 6.21181 6.89375 6.21181 7.51682C6.21181 7.64573 6.19747 7.87288 6.16664 8.19753C6.13652 8.5229 6.08045 8.82103 5.99872 9.0922L5.16414 12.0469C5.09574 12.2843 5.03422 12.5556 4.98073 12.8609C4.92552 13.1641 4.89914 13.3959 4.89914 13.5513C4.89914 13.9437 4.98661 14.2115 5.16199 14.3539C5.33865 14.4963 5.64294 14.5672 6.07515 14.5672C6.27806 14.5672 6.50893 14.5312 6.76547 14.4605C7.02129 14.3898 7.20786 14.3277 7.32358 14.2733ZM7.53524 1.86849C7.53524 2.38329 7.34122 2.82295 6.95131 3.18446C6.56242 3.54725 6.09379 3.7288 5.54558 3.7288C4.99564 3.7288 4.52587 3.54725 4.13253 3.18446C3.7399 2.8228 3.54316 2.38329 3.54316 1.86849C3.54316 1.35469 3.7399 0.91431 4.13253 0.548213C4.52515 0.18269 4.99579 0 5.54558 0C6.09365 0 6.56242 0.18312 6.95131 0.548213C7.3415 0.91431 7.53524 1.35483 7.53524 1.86849Z" fill="#777E91"/>
</svg>
