<svg width="16" height="16" viewBox="0 0 16 16" fill="none" xmlns="http://www.w3.org/2000/svg">
<path d="M10.3346 1.33325H5.73464C5.46797 1.33325 5.2013 1.46659 5.0013 1.66659C4.8013 1.86659 4.66797 2.13325 4.66797 2.39992V10.9333C4.66797 11.1999 4.8013 11.4666 5.0013 11.6666C5.2013 11.8666 5.46797 11.9999 5.73464 11.9999H12.268C12.5346 11.9999 12.8013 11.8666 13.0013 11.6666C13.2013 11.4666 13.3346 11.1999 13.3346 10.9333V4.33325L10.3346 1.33325Z" stroke="#777E91" stroke-width="1.5" stroke-linecap="round" stroke-linejoin="round"/>
<path d="M2 5.06616V13.5995C2 13.8662 2.13333 14.1328 2.33333 14.3328C2.53333 14.5328 2.8 14.6662 3.06667 14.6662H9.6" stroke="#777E91" stroke-width="1.5" stroke-linecap="round" stroke-linejoin="round"/>
<path d="M10 1.33325V4.66659H13.3333" stroke="#777E91" stroke-width="1.5" stroke-linecap="round" stroke-linejoin="round"/>
</svg>
