<svg width="14" height="14" viewBox="0 0 14 14" fill="none" xmlns="http://www.w3.org/2000/svg">
    <path d="M7.18766 10.5999L6.33433 11.4465C5.85528 11.9402 5.21129 12.2402 4.52519 12.2894C3.83909 12.3385 3.15889 12.1334 2.61433 11.7132C2.32651 11.476 2.09164 11.1811 1.92489 10.8475C1.75814 10.5139 1.66322 10.1491 1.64625 9.77651C1.62929 9.40395 1.69066 9.03197 1.82641 8.6846C1.96216 8.33724 2.16925 8.02221 2.43433 7.75986L3.381 6.80653C3.44348 6.74455 3.49308 6.67082 3.52692 6.58958C3.56077 6.50834 3.5782 6.4212 3.5782 6.3332C3.5782 6.24519 3.56077 6.15805 3.52692 6.07681C3.49308 5.99557 3.44348 5.92184 3.381 5.85986C3.31902 5.79738 3.24529 5.74778 3.16405 5.71393C3.08281 5.68009 2.99567 5.66266 2.90766 5.66266C2.81966 5.66266 2.73252 5.68009 2.65128 5.71393C2.57004 5.74778 2.49631 5.79738 2.43433 5.85986L1.58766 6.7132C0.874436 7.40387 0.436054 8.32988 0.353908 9.31931C0.271762 10.3087 0.551433 11.2944 1.141 12.0932C1.49092 12.5471 1.93342 12.9214 2.43912 13.1912C2.94482 13.461 3.50214 13.6201 4.07405 13.6579C4.64596 13.6958 5.21938 13.6115 5.75621 13.4107C6.29304 13.2098 6.781 12.8971 7.18766 12.4932L8.13433 11.5465C8.25987 11.421 8.33039 11.2507 8.33039 11.0732C8.33039 10.8957 8.25987 10.7254 8.13433 10.5999C8.00879 10.4743 7.83853 10.4038 7.661 10.4038C7.48346 10.4038 7.3132 10.4743 7.18766 10.5999V10.5999ZM12.1077 1.14653C11.3033 0.550838 10.3096 0.26832 9.31223 0.351745C8.31481 0.43517 7.38187 0.878833 6.68766 1.59986L5.96766 2.3332C5.88537 2.39302 5.81656 2.46946 5.76568 2.55757C5.7148 2.64567 5.68298 2.74348 5.6723 2.84466C5.66162 2.94584 5.6723 3.04813 5.70366 3.14492C5.73501 3.24171 5.78635 3.33084 5.85433 3.40653C5.91631 3.46901 5.99004 3.51861 6.07128 3.55246C6.15252 3.5863 6.23966 3.60373 6.32766 3.60373C6.41567 3.60373 6.50281 3.5863 6.58405 3.55246C6.66529 3.51861 6.73902 3.46901 6.801 3.40653L7.66766 2.5332C8.14406 2.03741 8.78729 1.73575 9.4731 1.6865C10.1589 1.63725 10.8386 1.8439 11.381 2.26653C11.671 2.50373 11.9077 2.79937 12.0758 3.13417C12.2438 3.46898 12.3395 3.83544 12.3565 4.20968C12.3735 4.58392 12.3114 4.95754 12.1743 5.30619C12.0373 5.65485 11.8283 5.97071 11.561 6.2332L10.6143 7.18653C10.5518 7.2485 10.5022 7.32224 10.4684 7.40348C10.4346 7.48472 10.4171 7.57185 10.4171 7.65986C10.4171 7.74787 10.4346 7.83501 10.4684 7.91625C10.5022 7.99749 10.5518 8.07122 10.6143 8.1332C10.6763 8.19568 10.75 8.24528 10.8313 8.27912C10.9125 8.31297 10.9997 8.33039 11.0877 8.33039C11.1757 8.33039 11.2628 8.31297 11.344 8.27912C11.4253 8.24528 11.499 8.19568 11.561 8.1332L12.5077 7.18653C12.9104 6.77993 13.2222 6.2924 13.4224 5.75622C13.6225 5.22005 13.7065 4.64746 13.6686 4.0764C13.6308 3.50533 13.4721 2.94882 13.203 2.44372C12.9339 1.93862 12.5605 1.49646 12.1077 1.14653V1.14653Z" fill="#777E91" />
</svg>