<svg width="18" height="16" viewBox="0 0 18 16" fill="none" xmlns="http://www.w3.org/2000/svg">
<path d="M10.6221 5.13767V3.1926H15.2629V0.166992H2.58407V3.19256H7.22453V5.14514C3.47608 5.33429 0.667969 6.10948 0.667969 7.03716C0.667969 7.96482 3.47608 8.74 7.22453 8.92919V14.9907C7.7985 15.1064 8.39268 15.167 9.0013 15.167C9.55506 15.167 10.0969 15.1168 10.6221 15.0206V8.93666C14.4486 8.76138 17.3346 7.97764 17.3346 7.03716C17.3346 6.09669 14.4486 5.31295 10.6221 5.13767ZM9.0013 8.23272C4.82 8.23272 1.43039 7.6111 1.43039 6.84409C1.43039 6.18932 3.9006 5.64035 7.22457 5.49392V7.71795C7.78807 7.7981 8.35589 7.83836 8.92336 7.83836C9.49118 7.83836 10.059 7.7981 10.6222 7.71795V5.48713C14.0244 5.62357 16.5719 6.17896 16.5719 6.84406C16.5719 7.61106 13.1822 8.23272 9.0013 8.23272Z" fill="white"/>
</svg>
