<svg width="32" height="32" viewBox="0 0 32 32" fill="none" xmlns="http://www.w3.org/2000/svg">
<path fill-rule="evenodd" clip-rule="evenodd" d="M16.0003 26.6667C21.8914 26.6667 26.667 21.8911 26.667 16C26.667 10.109 21.8914 5.33335 16.0003 5.33335C10.1093 5.33335 5.33366 10.109 5.33366 16C5.33366 21.8911 10.1093 26.6667 16.0003 26.6667ZM16.0003 29.3334C23.3641 29.3334 29.3337 23.3638 29.3337 16C29.3337 8.63622 23.3641 2.66669 16.0003 2.66669C8.63653 2.66669 2.66699 8.63622 2.66699 16C2.66699 23.3638 8.63653 29.3334 16.0003 29.3334Z" fill="#EF466F"/>
<path fill-rule="evenodd" clip-rule="evenodd" d="M16.0003 9.33331C15.2639 9.33331 14.667 9.93027 14.667 10.6666C14.667 11.403 15.2639 12 16.0003 12C16.7367 12 17.3337 11.403 17.3337 10.6666C17.3337 9.93027 16.7367 9.33331 16.0003 9.33331ZM16.0003 14.6666C15.2639 14.6666 14.667 15.2636 14.667 16V21.3333C14.667 22.0697 15.2639 22.6666 16.0003 22.6666C16.7367 22.6666 17.3337 22.0697 17.3337 21.3333V16C17.3337 15.2636 16.7367 14.6666 16.0003 14.6666Z" fill="#EF466F"/>
</svg>
