<svg width="12" height="12" viewBox="0 0 12 12" fill="none" xmlns="http://www.w3.org/2000/svg">
<path d="M11.3333 5.81541V10.2292C11.3333 10.5218 11.217 10.8025 11.0101 11.0094C10.8031 11.2164 10.5225 11.3326 10.2298 11.3326H1.7701C1.47745 11.3326 1.19678 11.2164 0.989847 11.0094C0.782912 10.8025 0.666656 10.5218 0.666656 10.2292V1.76946C0.666656 1.47681 0.782912 1.19614 0.989847 0.989206C1.19678 0.782271 1.47745 0.666016 1.7701 0.666016H6.18386C6.33019 0.666016 6.47052 0.724143 6.57399 0.827611C6.67746 0.931079 6.73558 1.07141 6.73558 1.21774C6.73558 1.36406 6.67746 1.50439 6.57399 1.60786C6.47052 1.71133 6.33019 1.76946 6.18386 1.76946H2.13791C2.04045 1.76975 1.94707 1.80859 1.87815 1.87751C1.80923 1.94642 1.77039 2.03981 1.7701 2.13727V9.86136C1.77039 9.95882 1.80923 10.0522 1.87815 10.1211C1.94707 10.19 2.04045 10.2289 2.13791 10.2292H9.862C9.95946 10.2289 10.0528 10.19 10.1218 10.1211C10.1907 10.0522 10.2295 9.95882 10.2298 9.86136V5.81541C10.2298 5.66908 10.2879 5.52875 10.3914 5.42528C10.4949 5.32182 10.6352 5.26369 10.7815 5.26369C10.9279 5.26369 11.0682 5.32182 11.1717 5.42528C11.2751 5.52875 11.3333 5.66908 11.3333 5.81541Z" fill="#07044B"/>
<path d="M11.3337 1.03383V3.60853C11.3337 3.75485 11.2756 3.89519 11.1721 3.99865C11.0687 4.10212 10.9283 4.16025 10.782 4.16025C10.6357 4.16025 10.4954 4.10212 10.3919 3.99865C10.2884 3.89519 10.2303 3.75485 10.2303 3.60853V2.54922L6.91261 5.86691C6.80803 5.96436 6.66969 6.01742 6.52676 6.0149C6.38383 6.01237 6.24745 5.95447 6.14637 5.85339C6.04528 5.7523 5.98738 5.61593 5.98486 5.47299C5.98234 5.33006 6.03539 5.19173 6.13285 5.08714L9.45053 1.76946H8.39122C8.2449 1.76946 8.10457 1.71133 8.0011 1.60786C7.89763 1.50439 7.8395 1.36406 7.8395 1.21774C7.8395 1.07141 7.89763 0.931079 8.0011 0.827611C8.10457 0.724143 8.2449 0.666016 8.39122 0.666016H10.9659C11.0634 0.666307 11.1568 0.705152 11.2257 0.774067C11.2946 0.842983 11.3334 0.936369 11.3337 1.03383Z" fill="#07044B"/>
</svg>
