<svg width="140" height="140" viewBox="0 0 140 140" fill="none" xmlns="http://www.w3.org/2000/svg">
<path d="M53.2047 82.546C54.8344 81.7148 56.3656 80.9273 57.7 80.0742C62.4906 76.9898 63.4969 73.107 63.4969 70.4054C63.4969 67.6929 62.4906 63.8101 57.6891 60.7257C56.3656 59.8726 54.8344 59.096 53.2047 58.2648C43.9406 53.5398 31.3406 47.1195 30.6953 16.1882H109.117C108.472 47.1085 95.8719 53.5398 86.6078 58.2648C84.9891 59.096 83.4469 59.8726 82.1234 60.7257C77.3219 63.8101 76.3156 67.6929 76.3156 70.4054C76.3156 73.1179 77.3219 76.9898 82.1234 80.0742C83.4578 80.9273 84.9891 81.7148 86.6078 82.546C95.8172 87.2382 108.319 93.6367 109.095 124.087H30.7172C31.5047 93.6257 44.0063 87.2382 53.2047 82.546Z" fill="white"/>
<path d="M114.1 124.271C113.291 90.5509 98.0875 82.7743 88.8891 78.0931C87.3141 77.2837 85.9469 76.5837 84.8312 75.8618C82.4578 74.3415 81.3203 72.5587 81.3203 70.3931C81.3203 68.2274 82.4578 66.4446 84.8312 64.9243C85.9578 64.2024 87.3141 63.5134 88.8891 62.704C98.1531 57.979 113.52 50.104 114.111 15.7056C117.644 14.929 120.312 11.779 120.312 8.00557C120.312 3.6415 116.769 0.119629 112.427 0.119629H27.5844C23.2312 0.119629 19.6875 3.6415 19.6875 8.00557C19.6875 11.7243 22.2688 14.8196 25.7141 15.6618C26.2828 50.1149 41.6719 57.9899 50.9469 62.7149C52.5219 63.5134 53.8781 64.2134 55.0047 64.9243C57.3563 66.4446 58.5047 68.2384 58.5047 70.404C58.5047 72.5696 57.3563 74.3524 55.0047 75.8728C53.8781 76.5946 52.5219 77.2837 50.9469 78.0931C41.7484 82.7853 26.5234 90.5618 25.725 124.337C22.2688 125.179 19.6875 128.274 19.6875 131.993C19.6875 136.346 23.2312 139.89 27.5844 139.89H112.427C116.769 139.89 120.312 136.346 120.312 131.993C120.312 128.198 117.644 125.037 114.1 124.271ZM53.2109 82.5446C54.8406 81.7134 56.3719 80.9259 57.7062 80.0728C62.4969 76.9884 63.5031 73.1056 63.5031 70.404C63.5031 67.6915 62.4969 63.8087 57.6953 60.7243C56.3719 59.8712 54.8406 59.0946 53.2109 58.2634C43.9469 53.5384 31.3469 47.1181 30.7016 16.1868H109.123C108.478 47.1071 95.8781 53.5384 86.6141 58.2634C84.9953 59.0946 83.4531 59.8712 82.1297 60.7243C77.3281 63.8087 76.3219 67.6915 76.3219 70.404C76.3219 73.1165 77.3281 76.9884 82.1297 80.0728C83.4641 80.9259 84.9953 81.7134 86.6141 82.5446C95.8234 87.2368 108.325 93.6352 109.102 124.085H30.7234C31.5109 93.6243 44.0125 87.2368 53.2109 82.5446Z" fill="#07004D"/>
<path d="M102 105.501H71.9875V70.3914H72.0094C72.0094 65.0429 74.7766 60.3179 79.8078 57.0914C81.2844 56.1289 82.8703 55.3195 84.5438 54.4664C87.3 53.0554 90.3844 51.4585 93.3156 48.9539H46.525C49.4234 51.4476 52.475 53.0226 55.1766 54.4007C56.9813 55.3195 58.5563 56.1289 60.0328 57.0804C65.0531 60.307 67.8203 65.032 67.8203 70.3914H67.8422V105.501H37.8516C36.55 109.46 35.6203 114.295 35.2266 120.288H104.614C104.22 114.295 103.291 109.46 102 105.501Z" fill="#FF8300"/>
</svg>
