<svg width="16" height="16" viewBox="0 0 16 16" fill="none" xmlns="http://www.w3.org/2000/svg">
<path fill-rule="evenodd" clip-rule="evenodd" d="M2.07412 8.81921C2.18092 7.34158 3.34251 6.19437 4.821 6.10039C5.70519 6.04419 6.78631 6 8 6C9.21369 6 10.2948 6.04419 11.179 6.10039C12.6575 6.19437 13.8191 7.34158 13.9259 8.81921C13.969 9.41559 14 10.0566 14 10.6667C14 11.2767 13.969 11.9177 13.9259 12.5141C13.8191 13.9918 12.6575 15.139 11.179 15.2329C10.2948 15.2891 9.2137 15.3333 8 15.3333C6.78631 15.3333 5.70519 15.2891 4.821 15.2329C3.34251 15.139 2.18092 13.9918 2.07412 12.5141C2.03101 11.9177 2 11.2767 2 10.6667C2 10.0566 2.03101 9.41559 2.07412 8.81921ZM9.33333 10C9.33333 10.4935 9.0652 10.9244 8.66667 11.155V12C8.66667 12.3682 8.36819 12.6667 8 12.6667C7.63181 12.6667 7.33333 12.3682 7.33333 12V11.155C6.9348 10.9244 6.66667 10.4935 6.66667 10C6.66667 9.26362 7.26362 8.66667 8 8.66667C8.73638 8.66667 9.33333 9.26362 9.33333 10Z" fill="#777E91"/>
<path fill-rule="evenodd" clip-rule="evenodd" d="M4.66663 3.99935C4.66663 2.1584 6.15901 0.666016 7.99996 0.666016C9.84091 0.666016 11.3333 2.1584 11.3333 3.99935V6.66602C11.3333 7.03421 11.0348 7.33268 10.6666 7.33268C10.2984 7.33268 9.99996 7.03421 9.99996 6.66602V3.99935C9.99996 2.89478 9.10453 1.99935 7.99996 1.99935C6.89539 1.99935 5.99996 2.89478 5.99996 3.99935V6.66602C5.99996 7.03421 5.70148 7.33268 5.33329 7.33268C4.9651 7.33268 4.66663 7.03421 4.66663 6.66602V3.99935Z" fill="#777E91"/>
</svg>
