<svg width="34" height="34" viewBox="0 0 34 34" fill="none" xmlns="http://www.w3.org/2000/svg">
<path fill-rule="evenodd" clip-rule="evenodd" d="M17.0002 33.6667C26.2049 33.6667 33.6668 26.2047 33.6668 17C33.6668 7.79525 26.2049 0.333328 17.0002 0.333328C7.79542 0.333328 0.333496 7.79525 0.333496 17C0.333496 26.2047 7.79542 33.6667 17.0002 33.6667ZM17.0002 3.66666C16.0797 3.66666 15.3335 4.41285 15.3335 5.33333V7C12.5721 7 10.3335 9.23857 10.3335 12V12.9308C10.3335 15.083 11.7106 16.9936 13.7524 17.6742L19.1939 19.4881C19.8744 19.7149 20.3335 20.3518 20.3335 21.0692V22C20.3335 22.9205 19.5873 23.6667 18.6668 23.6667H15.3335C14.413 23.6667 13.6668 22.9205 13.6668 22C13.6668 21.0795 12.9206 20.3333 12.0002 20.3333C11.0797 20.3333 10.3335 21.0795 10.3335 22C10.3335 24.7614 12.5721 27 15.3335 27V28.6667C15.3335 29.5871 16.0797 30.3333 17.0002 30.3333C17.9206 30.3333 18.6668 29.5871 18.6668 28.6667V27C21.4283 27 23.6668 24.7614 23.6668 22V21.0692C23.6668 18.917 22.2897 17.0063 20.248 16.3258L14.8064 14.5119C14.1259 14.2851 13.6668 13.6482 13.6668 12.9308V12C13.6668 11.0795 14.413 10.3333 15.3335 10.3333H18.6668C19.5873 10.3333 20.3335 11.0795 20.3335 12C20.3335 12.9205 21.0797 13.6667 22.0002 13.6667C22.9206 13.6667 23.6668 12.9205 23.6668 12C23.6668 9.23857 21.4283 7 18.6668 7V5.33333C18.6668 4.41285 17.9206 3.66666 17.0002 3.66666Z" fill="#EE4E00"/>
</svg>
