<svg width="18" height="18" viewBox="0 0 18 18" fill="none" xmlns="http://www.w3.org/2000/svg">
<path d="M13.8341 3.45085C13.1751 3.16013 12.3068 3 11.3889 3C10.4711 3 9.60273 3.16013 8.94378 3.45085C8.19338 3.78193 7.78011 4.25705 7.78011 4.78869V7.81844C7.43213 7.70887 7.06203 7.64964 6.67835 7.64964C4.65184 7.64964 3.00317 9.29831 3.00317 11.3248C3.00317 13.3513 4.65184 15 6.67835 15C8.07251 15 9.2878 14.2197 9.91051 13.0729C10.3712 13.1701 10.8764 13.2212 11.3889 13.2212C12.3068 13.2212 13.1751 13.0611 13.8341 12.7703C14.5845 12.4393 14.9978 11.9641 14.9978 11.4325V4.78869C14.9978 4.25705 14.5845 3.78193 13.8341 3.45085ZM9.22761 4.09414C9.79909 3.842 10.5667 3.70313 11.3889 3.70313C12.2112 3.70313 12.9788 3.842 13.5503 4.09414C14.0094 4.29671 14.2946 4.56287 14.2946 4.78869C14.2946 5.01451 14.0094 5.28064 13.5503 5.48324C12.9788 5.73538 12.2112 5.87425 11.3889 5.87425C10.5667 5.87425 9.79909 5.73538 9.22761 5.48324C8.76847 5.28064 8.48323 5.01453 8.48323 4.78869C8.48323 4.56284 8.76847 4.29671 9.22761 4.09414ZM6.67833 14.2969C5.03953 14.2969 3.70628 12.9636 3.70628 11.3248C3.70628 9.68602 5.03953 8.35277 6.67833 8.35277C8.31711 8.35277 9.65038 9.68602 9.65038 11.3248C9.65038 12.9636 8.31713 14.2969 6.67833 14.2969ZM13.5503 12.127C12.9788 12.3792 12.2112 12.518 11.3889 12.518C10.9739 12.518 10.5661 12.4815 10.1895 12.4116C10.2806 12.1179 10.3356 11.8086 10.3497 11.4888C10.6836 11.5359 11.0313 11.5602 11.389 11.5602C12.3068 11.5602 13.1752 11.4001 13.8341 11.1094C14.0056 11.0337 14.1593 10.9504 14.2947 10.8608V11.4325C14.2946 11.6583 14.0094 11.9244 13.5503 12.127ZM13.5503 10.4661C12.9788 10.7182 12.2112 10.8571 11.3889 10.8571C11.0148 10.8571 10.6539 10.8281 10.3119 10.7719C10.2585 10.4194 10.1547 10.0833 10.0083 9.77089C10.4407 9.85489 10.9099 9.89925 11.3889 9.89925C12.3068 9.89925 13.1751 9.73915 13.8341 9.44843C14.0056 9.37275 14.1593 9.28948 14.2946 9.19981V9.77152C14.2946 9.99736 14.0094 10.2635 13.5503 10.4661ZM13.5503 8.80514C12.9788 9.05728 12.2112 9.19615 11.3889 9.19615C10.662 9.19615 9.96805 9.08534 9.42308 8.8837C9.15446 8.58201 8.83705 8.32474 8.48323 8.12442V7.53888C8.61861 7.62855 8.77229 7.71182 8.94378 7.78748C9.60273 8.0782 10.4711 8.23833 11.3889 8.23833C12.3068 8.23833 13.1751 8.0782 13.8341 7.78748C14.0056 7.7118 14.1593 7.62855 14.2946 7.53888V8.11059C14.2946 8.33641 14.0094 8.60255 13.5503 8.80514ZM13.5503 7.14417C12.9788 7.39631 12.2112 7.53517 11.3889 7.53517C10.5667 7.53517 9.79909 7.39631 9.22761 7.14417C8.76847 6.94159 8.48323 6.67546 8.48323 6.44962V5.8779C8.61861 5.96757 8.77229 6.05085 8.94378 6.12653C9.60273 6.41725 10.4711 6.57735 11.3889 6.57735C12.3068 6.57735 13.1751 6.41725 13.8341 6.12653C14.0056 6.05085 14.1593 5.96757 14.2946 5.8779V6.44962C14.2946 6.67546 14.0094 6.94159 13.5503 7.14417Z" fill="#777E91"/>
<path d="M7.14755 10.9475H6.39345C6.22369 10.9475 6.08557 10.8094 6.08557 10.6396C6.08557 10.4699 6.22369 10.3318 6.39345 10.3318H7.66664V9.62865H7.02968V9.1543H6.32656V9.63111C5.8002 9.6657 5.38245 10.1047 5.38245 10.6396C5.38245 11.1971 5.83599 11.6506 6.39345 11.6506H7.14755C7.33202 11.6506 7.48209 11.8007 7.48209 11.9852C7.48209 12.1697 7.33202 12.3198 7.14755 12.3198H5.52256V13.0229H6.32656V13.4972H7.02968V13.0229H7.14755C7.71973 13.0229 8.18522 12.5574 8.18522 11.9852C8.18522 11.413 7.71973 10.9475 7.14755 10.9475Z" fill="#777E91"/>
</svg>
