<svg  width="489" height="397" viewBox="0 0 489 397" fill="none" xmlns="http://www.w3.org/2000/svg">
<g clip-path="url(#clip0_3388_103240)">
<g filter="url(#filter0_d_3388_103240)">
<path d="M86.3728 193.211L210.941 121.293C215.389 118.723 219.79 117.878 225.555 121.209L401.695 222.903C406.007 225.393 406.007 228.78 401.569 231.345L276.977 303.272C274.061 304.978 266.708 305.814 262.306 303.272L86.3494 201.682C80.4906 198.299 81.9576 195.762 86.3728 193.211Z" fill="url(#paint0_linear_3388_103240)"/>
<path d="M83.4232 196.589C81.2319 201.999 81.7365 180.98 83.4045 184.783L93.6785 190.716V202.518L83.4232 196.589Z" fill="#EBE5FD"/>
<path d="M86.3728 181.339L210.941 109.421C215.389 106.852 219.79 106.006 225.555 109.337L401.695 211.031C406.007 213.521 406.007 216.908 401.569 219.473L276.977 291.401C274.061 293.106 266.708 293.942 262.306 291.401L86.3494 189.81C80.4906 186.427 81.9576 183.89 86.3728 181.339Z" fill="#FCFCFD"/>
<path d="M404.536 227.911C405.709 228.504 405.452 212.736 404.536 214.367L395.738 219.445V224.524L403.069 228.757L404.536 227.911Z" fill="#D9DAF9"/>
<path d="M218.652 107.155C215.928 107.076 213.443 107.973 210.939 109.417L196.324 117.854L386.942 227.906L401.566 219.464C406.005 216.899 406.005 213.512 401.692 211.021L225.553 109.328C223.03 107.879 220.769 107.221 218.652 107.155Z" fill="#F6ECFF"/>
<path d="M215.39 115.317C221.253 111.93 228.589 116.163 222.72 119.55C216.857 122.938 209.526 118.705 215.39 115.317Z" fill="#FFB997"/>
<path d="M225.652 121.242C231.515 117.854 238.85 122.087 232.982 125.475C227.119 128.862 219.788 124.629 225.652 121.242Z" fill="#FF8347"/>
<path d="M235.909 127.18C241.764 123.774 249.108 127.988 243.254 131.39C237.4 134.796 230.055 130.586 235.909 127.18Z" fill="#EE4E00"/>
</g>
<path d="M386.945 107.697L423.603 128.862V137.328L386.945 116.163V107.697Z" fill="url(#paint1_linear_3388_103240)"/>
<path d="M386.945 121.242L430.933 146.639V155.105L386.945 129.708V121.242Z" fill="#CDD3F7"/>
<path d="M386.945 134.791L438.264 164.422V172.887L386.945 143.252V134.791Z" fill="url(#paint2_linear_3388_103240)"/>
<path d="M386.945 148.335L416.272 165.267V173.733L386.945 156.801V148.335Z" fill="#CDD3F7"/>
<path d="M386.945 161.88L445.599 195.743V204.209L386.945 170.346V161.88Z" fill="url(#paint3_linear_3388_103240)"/>
<path d="M386.945 175.424L423.603 196.589V205.055L386.945 183.89V175.424Z" fill="#CDD3F7"/>
<g filter="url(#filter1_d_3388_103240)">
<path d="M27.2344 320.786V313.806L34.0557 314.605C35.7283 319.062 31.9906 320.235 27.2344 320.786Z" fill="#E0DFFB"/>
<path d="M78.46 249.455V264.542C70.7199 264.859 63.4312 266.222 57.0163 268.402L42.2947 259.903L27.2275 268.604L41.3057 276.728C37.3012 279.983 34.4298 283.719 33.0565 287.743H12.1602V301.667H34.353C36.1104 305 38.9432 308.37 43.0341 311.683L27.2275 320.806L42.2947 329.507L57.6885 320.614C64.5163 323.793 71.5266 325.915 78.46 327.125V341.683H93.5273V338.207V328.412C103.918 328.364 113.627 326.405 121.645 323.121L132.708 329.507L147.775 320.806L136.059 314.046C139.824 310.348 142.196 306.133 142.743 301.667H162.842V287.743H138.431C136.28 284.891 133.274 282.029 129.366 279.234L144.76 270.342L129.692 261.642L113.886 270.765C107.154 267.999 100.288 266.222 93.5273 265.281V249.455H78.46ZM84.2026 277.784C92.1156 277.784 100.682 279.686 108.595 284.257C140.237 302.532 98.0504 326.885 66.3986 308.62C42.6693 294.916 60.4638 277.784 84.2026 277.784Z" fill="url(#paint4_linear_3388_103240)"/>
<path d="M78.4482 242.493V257.58C70.7081 257.896 63.4193 259.26 57.0045 261.44L42.2829 252.941L27.2156 261.632L41.2938 269.756C37.2893 273.012 34.4179 276.747 33.0447 280.771H12.1484V294.696H34.3412C36.0986 298.028 38.9314 301.398 43.0223 304.712L27.2156 313.834L42.2829 322.535L57.6766 313.642C64.5045 316.821 71.5147 318.943 78.4482 320.153V334.712H93.5155V331.235V321.44C103.906 321.392 113.615 319.433 121.633 316.149L132.696 322.535L147.763 313.834L136.048 307.074C139.812 303.377 142.184 299.161 142.731 294.696H162.831V280.771H138.42C136.268 277.919 133.263 275.057 129.354 272.263L144.748 263.37L129.681 254.67L113.874 263.793C107.142 261.027 100.276 259.25 93.5155 258.309V242.483L78.4482 242.493ZM84.2004 270.822C92.1134 270.822 100.679 272.724 108.592 277.295C140.235 295.569 98.0481 319.923 66.3963 301.658C42.6671 287.954 60.4615 270.822 84.2004 270.822Z" fill="url(#paint5_linear_3388_103240)"/>
<path d="M27.2148 261.632V268.594L36.2514 273.818V266.856L27.2148 261.632Z" fill="#F6ECFF"/>
<path d="M144.757 270.332V263.37L138.727 266.847L144.757 270.332Z" fill="#D1D6F8"/>
<path d="M147.773 313.834V320.797L141.742 317.32L147.773 313.834Z" fill="#F6ECFF"/>
</g>
<g filter="url(#filter2_d_3388_103240)">
<path d="M187.222 320.751V328.376C183.31 328.536 179.626 329.225 176.384 330.327L168.944 326.032L161.33 330.429L168.444 334.534C166.421 336.18 164.97 338.068 164.276 340.101H153.715V347.138H164.931C165.819 348.822 167.251 350.526 169.318 352.2L161.33 356.811L168.944 361.208L176.724 356.714C180.175 358.32 183.718 359.393 187.222 360.004V367.362H194.836V365.605V360.655C200.088 360.63 204.994 359.64 209.047 357.981L214.638 361.208L222.253 356.811L216.332 353.394C218.234 351.526 219.433 349.395 219.709 347.138H229.867V340.101H217.53C216.443 338.66 214.924 337.213 212.949 335.801L220.729 331.307L213.114 326.91L205.125 331.521C201.723 330.123 198.253 329.225 194.836 328.749V320.751H187.222ZM190.124 335.068C194.123 335.068 198.452 336.029 202.451 338.339C218.443 347.575 197.122 359.883 181.126 350.652C169.134 343.727 178.127 335.068 190.124 335.068Z" fill="url(#paint6_linear_3388_103240)"/>
<path d="M161.336 353.283V356.801L165.495 355.573L163.685 353.103L161.336 353.283Z" fill="url(#paint7_linear_3388_103240)"/>
<path d="M187.222 317.238V324.862C183.31 325.022 179.626 325.711 176.384 326.813L168.944 322.518L161.33 326.915L168.444 331.021C166.421 332.666 164.97 334.554 164.276 336.587H153.715V343.625H164.931C165.819 345.309 167.251 347.012 169.318 348.687L161.33 353.297L168.944 357.694L176.724 353.2C180.175 354.807 183.718 355.879 187.222 356.491V363.848H194.836V362.091V357.141C200.088 357.117 204.994 356.127 209.047 354.467L214.638 357.694L222.253 353.297L216.336 349.881C218.239 348.012 219.438 345.881 219.714 343.625H229.872V336.587H217.535C216.448 335.146 214.929 333.7 212.954 332.288L220.733 327.793L213.119 323.396L205.13 328.007C201.728 326.609 198.258 325.711 194.841 325.236V317.238H187.222ZM190.124 331.555C194.123 331.555 198.452 332.516 202.451 334.826C218.443 344.062 197.122 356.369 181.126 347.138C169.134 340.208 178.127 331.555 190.124 331.555Z" fill="url(#paint8_linear_3388_103240)"/>
<path d="M161.324 326.91V330.429L165.891 333.069V329.55L161.324 326.91Z" fill="url(#paint9_linear_3388_103240)"/>
<path d="M220.728 331.307V327.788L217.68 329.545L220.728 331.307Z" fill="url(#paint10_linear_3388_103240)"/>
<path d="M222.251 353.292V356.811L219.203 355.054L222.251 353.292Z" fill="url(#paint11_linear_3388_103240)"/>
</g>
<g filter="url(#filter3_d_3388_103240)">
<path d="M275.539 320.044V325.12C272.934 325.227 270.482 325.686 268.323 326.419L263.37 323.56L258.3 326.487L263.037 329.221C261.69 330.316 260.724 331.573 260.262 332.927H253.23V337.612H260.698C261.289 338.733 262.242 339.868 263.619 340.982L258.3 344.052L263.37 346.98L268.55 343.987C270.847 345.057 273.206 345.771 275.539 346.178V351.077H280.609V349.907V346.611C284.105 346.595 287.372 345.936 290.07 344.831L293.792 346.98L298.862 344.052L294.92 341.777C296.186 340.533 296.984 339.115 297.169 337.612H303.932V332.927H295.718C294.994 331.967 293.983 331.004 292.667 330.064L297.847 327.072L292.777 324.144L287.459 327.214C285.194 326.284 282.883 325.686 280.609 325.369V320.044H275.539ZM277.471 329.576C280.134 329.576 283.016 330.216 285.678 331.754C296.325 337.903 282.13 346.097 271.48 339.952C263.496 335.341 269.487 329.576 277.471 329.576Z" fill="url(#paint12_linear_3388_103240)"/>
<path d="M275.539 317.705V322.781C272.934 322.888 270.482 323.346 268.323 324.08L263.37 321.22L258.3 324.148L263.037 326.881C261.69 327.977 260.724 329.234 260.262 330.588H253.23V335.273H260.698C261.289 336.394 262.242 337.528 263.619 338.643L258.3 341.713L263.37 344.64L268.55 341.648C270.847 342.718 273.206 343.432 275.539 343.839V348.737H280.609V347.568V344.272C284.105 344.256 287.372 343.596 290.07 342.491L293.792 344.64L298.862 341.713L294.923 339.438C296.19 338.194 296.988 336.775 297.172 335.273H303.935V330.588H295.721C294.997 329.628 293.986 328.665 292.671 327.725L297.85 324.733L292.781 321.805L287.462 324.875C285.197 323.944 282.887 323.346 280.612 323.03V317.705H275.539ZM277.471 327.237C280.134 327.237 283.016 327.877 285.678 329.415C296.325 335.564 282.13 343.758 271.48 337.612C263.496 332.998 269.487 327.237 277.471 327.237Z" fill="url(#paint13_linear_3388_103240)"/>
<path d="M258.301 324.145V326.487L261.341 328.245V325.902L258.301 324.145Z" fill="url(#paint14_linear_3388_103240)"/>
<path d="M297.846 327.072V324.729L295.816 325.899L297.846 327.072Z" fill="url(#paint15_linear_3388_103240)"/>
<path d="M298.861 341.709V344.052L296.832 342.882L298.861 341.709Z" fill="url(#paint16_linear_3388_103240)"/>
</g>
<path d="M240.316 92.4614L364.95 164.422V96.6944L240.316 24.7343V92.4614Z" fill="url(#paint17_linear_3388_103240)"/>
<path d="M263.773 72.1424C263.773 55.2106 278.435 63.6765 278.435 80.6082C278.435 97.54 263.773 89.0742 263.773 72.1424Z" fill="white"/>
<path d="M285.773 84.8412C285.773 67.9094 300.435 76.3753 300.435 93.3071C300.435 110.239 285.773 101.773 285.773 84.8412Z" fill="#FFB997"/>
<path d="M308.055 97.3718C308.055 80.4401 322.716 88.9059 322.716 105.838C322.716 122.77 308.055 114.304 308.055 97.3718Z" fill="#FF8347"/>
<path d="M328.293 109.393C328.293 92.4614 342.954 100.927 342.954 117.859C342.954 134.791 328.293 126.325 328.293 109.393Z" fill="#EE4E00"/>
<path d="M0 212.615V119.055C0 114.406 4.40114 108.477 7.24647 106.833L80.725 64.41C85.0421 61.9151 87.9762 61.9151 87.9762 68.6009V127.797C87.9995 133.015 86.5091 137.262 80.739 140.594L17.8662 176.896C14.6611 178.746 13.1941 182.979 13.2221 182.895L3.65828 210.498C2.9341 212.605 0 217.684 0 212.615Z" fill="url(#paint18_linear_3388_103240)"/>
<path d="M0.507812 214.596L7.69354 218.894L12.104 202.775L2.3206 197.346L0.507812 214.596Z" fill="#CED4F7"/>
<path d="M80.3594 64.5828L89.2738 69.7315L93.6002 67.6244C87.2601 60.0509 84.1251 63.9428 80.3594 64.5828Z" fill="#F6ECFF"/>
<path d="M7.17578 216.913V123.354C7.17578 118.705 11.5769 112.776 14.4223 111.131L87.9008 68.7083C92.2178 66.2134 95.1519 66.2134 95.1519 72.8992V132.095C95.1753 137.314 93.6849 141.561 87.9148 144.892L25.042 181.194C21.8369 183.045 20.3699 187.278 20.3979 187.193L10.8341 214.796C10.1052 216.904 7.17578 221.987 7.17578 216.913Z" fill="url(#paint19_linear_3388_103240)"/>
<path d="M48.2305 106.852L59.9622 100.077L57.0281 145.789L51.1646 149.176L48.2305 106.852Z" fill="#F8885B"/>
<path d="M51.1641 152.568L57.0276 149.181V155.956L51.1641 159.343V152.568Z" fill="#F8885B"/>
<path d="M49.6992 104.315L61.4309 97.54L58.4968 143.257L52.6333 146.644L49.6992 104.315Z" fill="#FDE1D5"/>
<path d="M52.6289 150.027L58.4924 146.639V153.414L52.6289 156.801V150.027Z" fill="#FDE1D5"/>
<g filter="url(#filter4_d_3388_103240)">
<path d="M420.139 240.822L437.833 230.609C440.645 228.987 443.575 228.987 446.429 230.632L465.571 241.682C468.505 243.373 469.972 245.915 465.571 248.456L449.424 257.777C445.084 260.328 439.178 260.305 434.651 257.693L419.98 249.222C415.715 246.76 415.715 243.373 420.139 240.822Z" fill="url(#paint20_linear_3388_103240)"/>
<path d="M416.938 246.041C416.798 246.452 416.443 240.238 416.938 239.729H421.732L419.868 246.681L416.938 246.041Z" fill="#E1DFFB"/>
<path d="M468.082 245.517C468.61 246.256 468.596 240.364 468.264 239.462L463.316 239.518L465.181 246.471L468.082 245.517Z" fill="#D8DAF9"/>
<path d="M420.139 235.743L437.833 225.53C440.645 223.909 443.575 223.909 446.429 225.553L465.571 236.603C468.505 238.294 469.972 240.836 465.571 243.378L449.424 252.698C445.084 255.249 439.178 255.226 434.651 252.614L419.98 244.144C415.715 241.682 415.715 238.294 420.139 235.743Z" fill="url(#paint21_linear_3388_103240)"/>
</g>
<g filter="url(#filter5_d_3388_103240)">
<path d="M440.538 280.009L458.231 269.795C461.044 268.174 463.973 268.174 466.828 269.819L485.969 280.868C488.904 282.56 490.371 285.101 485.969 287.643L469.823 296.964C465.482 299.515 459.577 299.491 455.049 296.88L440.379 288.409C436.113 285.947 436.113 282.56 440.538 280.009Z" fill="url(#paint22_linear_3388_103240)"/>
<path d="M437.337 285.228C437.197 285.639 436.841 279.425 437.337 278.915H442.13L440.266 285.868L437.337 285.228Z" fill="#E1DFFB"/>
<path d="M488.488 284.704C489.016 285.442 489.002 279.551 488.67 278.649L483.723 278.705L485.587 285.657L488.488 284.704Z" fill="#D8DAF9"/>
<path d="M440.538 274.925L458.231 264.712C461.044 263.091 463.973 263.091 466.828 264.736L485.969 275.785C488.904 277.476 490.371 280.018 485.969 282.56L469.823 291.881C465.482 294.432 459.577 294.408 455.049 291.797L440.379 283.326C436.113 280.868 436.113 277.481 440.538 274.925Z" fill="url(#paint23_linear_3388_103240)"/>
</g>
<g filter="url(#filter6_d_3388_103240)">
<path d="M374.557 292.703L392.251 282.49C395.063 280.868 397.993 280.868 400.847 282.513L419.989 293.563C422.923 295.254 424.39 297.796 419.989 300.337L403.842 309.658C399.502 312.209 393.596 312.186 389.069 309.574L374.398 301.103C370.133 298.646 370.133 295.259 374.557 292.703Z" fill="url(#paint24_linear_3388_103240)"/>
<path d="M371.356 297.926C371.216 298.337 370.861 292.124 371.356 291.614H376.15L374.286 298.566L371.356 297.926Z" fill="#E1DFFB"/>
<path d="M422.5 297.403C423.028 298.141 423.014 292.25 422.682 291.348L417.734 291.404L419.599 298.356L422.5 297.403Z" fill="#D8DAF9"/>
<path d="M374.557 287.624L392.251 277.411C395.063 275.79 397.993 275.79 400.847 277.434L419.989 288.484C422.923 290.175 424.39 292.717 419.989 295.259L403.842 304.58C399.502 307.131 393.596 307.107 389.069 304.495L374.398 296.025C370.133 293.567 370.133 290.18 374.557 287.624Z" fill="url(#paint25_linear_3388_103240)"/>
</g>
<path d="M193.87 160.843L192.815 166.781C193.212 164.534 192.044 162.226 188.61 160.002C188.469 159.908 188.325 159.819 188.184 159.735V159.731C188.044 159.647 187.909 159.567 187.769 159.492C187.596 159.394 187.428 159.301 187.255 159.207C187.143 159.151 187.03 159.091 186.918 159.039C186.778 158.964 186.638 158.894 186.493 158.829C186.456 158.815 186.414 158.792 186.381 158.778C186.208 158.698 186.035 158.619 185.862 158.544C185.69 158.474 185.517 158.399 185.339 158.338C185.278 158.31 185.222 158.287 185.162 158.268C185.101 158.245 185.045 158.222 184.984 158.208C184.727 158.119 184.47 158.025 184.208 157.955C184.12 157.923 184.031 157.895 183.937 157.867C183.9 157.857 183.858 157.843 183.821 157.834C183.634 157.782 183.438 157.731 183.246 157.68C183.068 157.638 182.891 157.591 182.709 157.553C182.508 157.511 182.316 157.474 182.115 157.437C182.036 157.423 181.961 157.409 181.882 157.399C181.723 157.371 181.569 157.343 181.41 157.325C181.396 157.32 181.382 157.32 181.368 157.315C181.344 157.315 181.326 157.306 181.302 157.306C181.097 157.278 180.891 157.254 180.686 157.231C180.373 157.198 180.064 157.175 179.756 157.156C179.443 157.138 179.125 157.128 178.807 157.128C178.681 157.124 178.555 157.124 178.429 157.124C178.275 157.124 178.121 157.128 177.962 157.133C177.77 157.138 177.579 157.142 177.387 157.156C177.378 157.161 177.373 157.161 177.364 157.161C177.116 157.175 176.859 157.189 176.612 157.212C176.383 157.231 176.144 157.254 175.915 157.282C175.859 157.287 175.799 157.297 175.738 157.306C175.532 157.329 175.317 157.362 175.112 157.395C174.701 157.455 174.29 157.525 173.878 157.61C173.743 157.633 173.598 157.661 173.463 157.698C173.238 157.745 173.014 157.796 172.79 157.852C172.556 157.904 172.327 157.965 172.098 158.025C171.851 158.091 171.598 158.166 171.351 158.236C171.103 158.31 170.851 158.39 170.603 158.469C170.356 158.549 170.113 158.633 169.86 158.717C169.346 158.894 168.842 159.091 168.333 159.301C167.861 159.492 167.389 159.698 166.922 159.918C166.679 160.03 166.44 160.146 166.197 160.263C166.193 160.268 166.193 160.268 166.188 160.268C165.95 160.385 165.716 160.506 165.483 160.628C165.291 160.731 165.095 160.829 164.908 160.936C164.716 161.039 164.52 161.142 164.333 161.254C163.59 161.679 162.89 162.109 162.235 162.548C162.03 162.679 161.829 162.819 161.637 162.959C161.394 163.132 161.156 163.31 160.927 163.487C160.834 163.557 160.74 163.632 160.647 163.702C160.567 163.763 160.488 163.828 160.413 163.894C160.226 164.043 160.049 164.193 159.876 164.351C159.703 164.506 159.53 164.66 159.371 164.819C159.128 165.048 158.904 165.272 158.694 165.501C158.615 165.59 158.535 165.674 158.46 165.762C158.395 165.837 158.33 165.912 158.269 165.991C158.199 166.071 158.138 166.146 158.077 166.23C157.783 166.594 157.526 166.963 157.306 167.328C157.166 167.556 157.045 167.79 156.933 168.014C156.891 168.103 156.848 168.201 156.806 168.29C156.76 168.397 156.713 168.51 156.676 168.612C156.549 168.958 156.456 169.299 156.391 169.65L157.447 163.707C157.507 163.375 157.605 163.029 157.727 162.693C157.727 162.688 157.727 162.688 157.727 162.683V162.674C157.764 162.567 157.811 162.459 157.858 162.352C157.895 162.258 157.937 162.17 157.984 162.076C158.087 161.866 158.194 161.66 158.32 161.45C158.33 161.427 158.344 161.408 158.358 161.389V161.38C158.432 161.254 158.512 161.128 158.601 161.002C158.652 160.927 158.703 160.847 158.759 160.773C158.946 160.502 159.152 160.24 159.381 159.974C159.423 159.927 159.465 159.876 159.512 159.829C159.717 159.591 159.941 159.348 160.184 159.109C160.259 159.03 160.339 158.955 160.423 158.876C160.586 158.721 160.754 158.567 160.927 158.408C161.077 158.278 161.236 158.147 161.39 158.011C161.422 157.983 161.46 157.955 161.493 157.927C161.563 157.871 161.633 157.815 161.698 157.764C161.81 157.67 161.922 157.586 162.039 157.497C162.235 157.343 162.436 157.194 162.647 157.044C163.254 156.61 163.913 156.18 164.614 155.755C164.866 155.605 165.123 155.451 165.384 155.306C165.688 155.133 166.001 154.965 166.31 154.802C166.384 154.76 166.459 154.722 166.538 154.685V154.68C166.651 154.619 166.758 154.568 166.866 154.512C167.146 154.372 167.431 154.227 167.716 154.096C167.875 154.021 168.029 153.947 168.188 153.877C168.865 153.568 169.552 153.278 170.248 153.012C170.468 152.928 170.687 152.849 170.912 152.774C171.155 152.685 171.402 152.601 171.654 152.522C171.902 152.442 172.154 152.363 172.402 152.293C172.65 152.218 172.902 152.143 173.15 152.082C173.392 152.017 173.635 151.956 173.878 151.896C174.145 151.83 174.411 151.769 174.677 151.713C175.406 151.559 176.13 151.442 176.859 151.354C176.897 151.344 176.934 151.344 176.971 151.335C177.205 151.307 177.443 151.283 177.672 151.265C177.92 151.241 178.177 151.227 178.424 151.213C178.434 151.213 178.438 151.213 178.448 151.209C178.639 151.199 178.831 151.19 179.022 151.185C179.181 151.181 179.335 151.176 179.49 151.176C179.616 151.176 179.742 151.176 179.868 151.181C180.186 151.181 180.503 151.19 180.816 151.209C181.13 151.227 181.438 151.251 181.746 151.283C181.952 151.307 182.162 151.33 182.363 151.358C182.386 151.358 182.405 151.368 182.428 151.368C182.442 151.368 182.456 151.368 182.47 151.377C182.629 151.4 182.788 151.424 182.942 151.452C183.223 151.498 183.494 151.545 183.765 151.606C183.97 151.653 184.176 151.695 184.381 151.751C184.545 151.788 184.704 151.83 184.863 151.882C184.905 151.891 184.947 151.9 184.989 151.919C185.134 151.956 185.269 151.998 185.409 152.04C185.596 152.096 185.783 152.157 185.96 152.223C186.049 152.251 186.133 152.283 186.217 152.316C186.278 152.335 186.339 152.358 186.395 152.381C186.568 152.442 186.741 152.517 186.918 152.587C187.133 152.676 187.343 152.774 187.554 152.867C187.647 152.909 187.75 152.961 187.843 153.007C188.119 153.143 188.395 153.283 188.666 153.437C188.801 153.512 188.937 153.592 189.072 153.666C189.133 153.704 189.184 153.732 189.245 153.769C189.385 153.858 189.53 153.947 189.67 154.04C193.1 156.292 194.268 158.6 193.87 160.843Z" fill="url(#paint26_linear_3388_103240)"/>
<path d="M204.997 163.833L203.942 169.771C203.89 170.042 203.829 170.322 203.755 170.593C203.717 170.734 203.675 170.869 203.633 171.005C203.6 171.117 203.563 171.219 203.526 171.327C203.521 171.35 203.507 171.374 203.498 171.397C203.493 171.425 203.479 171.458 203.47 171.486C203.47 171.5 203.465 171.509 203.46 171.523C203.446 171.56 203.428 171.603 203.409 171.64C203.404 171.663 203.39 171.687 203.381 171.71C203.339 171.817 203.292 171.925 203.245 172.032C203.077 172.415 202.886 172.789 202.666 173.163C202.638 173.219 202.61 173.266 202.573 173.317C202.563 173.35 202.54 173.378 202.526 173.401C202.512 173.429 202.493 173.457 202.474 173.481C202.241 173.859 201.984 174.238 201.699 174.602C201.479 174.892 201.241 175.177 200.998 175.462C200.905 175.574 200.802 175.686 200.704 175.789C200.606 175.901 200.498 176.008 200.395 176.116C200.293 176.228 200.185 176.331 200.078 176.438C199.97 176.55 199.858 176.653 199.746 176.761C199.293 177.186 198.816 177.602 198.302 178.013C197.905 178.33 197.494 178.643 197.055 178.947C196.915 179.05 196.76 179.153 196.616 179.251C196.466 179.354 196.312 179.456 196.158 179.554C195.541 179.961 194.901 180.349 194.233 180.727C193.803 180.97 193.359 181.208 192.915 181.437C192.602 181.601 192.285 181.76 191.962 181.919C191.644 182.073 191.322 182.227 190.995 182.376C190.626 182.545 190.247 182.708 189.874 182.867C189.617 182.979 189.364 183.082 189.107 183.185C187.416 183.858 185.669 184.428 183.879 184.876C183.562 184.96 183.244 185.035 182.922 185.11C182.534 185.198 182.132 185.283 181.74 185.357C181.422 185.423 181.099 185.479 180.777 185.535C180.735 185.539 180.688 185.549 180.642 185.558C180.291 185.614 179.941 185.666 179.59 185.712C179.207 185.768 178.815 185.815 178.427 185.857C178.086 185.895 177.75 185.927 177.408 185.955C177.039 185.983 176.67 186.007 176.301 186.03C175.951 186.049 175.596 186.063 175.241 186.067C174.895 186.077 174.549 186.081 174.194 186.081C173.834 186.077 173.475 186.077 173.115 186.063C172.76 186.049 172.405 186.039 172.045 186.016C171.554 185.988 171.073 185.946 170.582 185.899C170.316 185.876 170.055 185.848 169.793 185.815C169.527 185.787 169.27 185.75 169.003 185.717C168.779 185.684 168.559 185.652 168.335 185.614C167.667 185.507 166.999 185.385 166.331 185.24C165.906 185.147 165.481 185.049 165.055 184.941C164.845 184.89 164.63 184.834 164.42 184.778C164.21 184.717 163.995 184.656 163.785 184.6C163.565 184.535 163.345 184.47 163.121 184.399C162.902 184.334 162.682 184.264 162.458 184.189C162.233 184.119 162.014 184.044 161.794 183.965C161.575 183.89 161.355 183.811 161.135 183.727C160.636 183.54 160.14 183.344 159.64 183.133C159.43 183.045 159.22 182.956 159.01 182.867C158.725 182.741 158.44 182.61 158.155 182.479C157.136 182.007 156.122 181.475 155.118 180.895C154.837 180.737 154.557 180.573 154.277 180.4C153.931 180.185 153.581 179.97 153.235 179.746C146.451 175.34 144.04 170.827 144.792 166.599L145.848 160.66C145.096 164.889 147.502 169.402 154.291 173.808C154.637 174.032 154.987 174.247 155.333 174.462C155.973 174.85 156.618 175.219 157.262 175.564C157.585 175.742 157.907 175.906 158.234 176.069C158.556 176.233 158.879 176.387 159.206 176.546C159.594 176.728 159.981 176.901 160.369 177.06C160.514 177.125 160.659 177.19 160.808 177.246C161.271 177.438 161.729 177.62 162.187 177.788C163.065 178.115 163.953 178.405 164.836 178.662C165.116 178.746 165.401 178.821 165.681 178.896C165.962 178.97 166.242 179.041 166.527 179.106C166.691 179.148 166.854 179.185 167.022 179.223C167.144 179.251 167.261 179.274 167.382 179.302C168.274 179.494 169.162 179.648 170.055 179.774C170.255 179.807 170.456 179.83 170.657 179.854C170.858 179.882 171.05 179.905 171.246 179.924C171.4 179.942 171.554 179.956 171.708 179.97C172.176 180.017 172.634 180.05 173.096 180.078C173.451 180.101 173.811 180.11 174.166 180.125L174.217 180.129C174.554 180.139 174.895 180.143 175.231 180.143H175.245C175.591 180.143 175.941 180.139 176.292 180.129C176.647 180.125 177.002 180.106 177.352 180.092C177.722 180.073 178.095 180.05 178.46 180.017C178.796 179.989 179.137 179.956 179.478 179.919C180.268 179.83 181.053 179.723 181.833 179.592C182.155 179.536 182.478 179.48 182.795 179.414C183.188 179.34 183.585 179.255 183.977 179.167C184.3 179.092 184.618 179.017 184.935 178.933C185.641 178.76 186.337 178.564 187.024 178.349C187.374 178.242 187.711 178.134 188.056 178.017C188.313 177.933 188.566 177.845 188.822 177.751C189.047 177.672 189.276 177.592 189.495 177.503C189.939 177.34 190.388 177.158 190.822 176.975C191.042 176.887 191.266 176.793 191.481 176.69C191.775 176.564 192.065 176.434 192.345 176.298C192.621 176.172 192.901 176.041 193.168 175.906C193.336 175.826 193.499 175.742 193.663 175.653C193.766 175.602 193.864 175.555 193.962 175.504C193.985 175.49 194.009 175.48 194.037 175.462C194.457 175.247 194.873 175.023 195.279 174.789C196.116 174.317 196.915 173.822 197.662 173.308C197.812 173.21 197.961 173.107 198.101 173.004C198.396 172.799 198.685 172.584 198.961 172.373C199.087 172.275 199.223 172.173 199.349 172.074V172.07C199.391 172.037 199.438 172 199.475 171.967C199.685 171.799 199.895 171.626 200.092 171.453C200.811 170.832 201.47 170.187 202.049 169.528C202.063 169.514 202.073 169.495 202.091 169.486C202.222 169.337 202.348 169.178 202.474 169.028C202.876 168.538 203.231 168.033 203.54 167.528C203.572 167.482 203.6 167.44 203.628 167.393C203.661 167.337 203.689 167.285 203.722 167.229C203.797 167.108 203.862 166.986 203.927 166.86C204.002 166.72 204.077 166.58 204.138 166.445C204.198 166.328 204.255 166.202 204.306 166.085C204.353 165.982 204.399 165.879 204.437 165.776C204.446 165.753 204.46 165.73 204.465 165.706C204.497 165.632 204.526 165.557 204.554 165.482C204.563 165.454 204.577 165.421 204.582 165.393C204.619 165.286 204.656 165.183 204.689 165.071C204.736 164.935 204.778 164.8 204.811 164.66C204.885 164.384 204.946 164.108 204.997 163.833Z" fill="url(#paint27_linear_3388_103240)"/>
<path d="M203.524 171.322C203.519 171.35 203.505 171.383 203.496 171.411V171.392C203.505 171.369 203.515 171.346 203.524 171.322Z" fill="url(#paint28_linear_3388_103240)"/>
<path d="M204.999 163.833C204.948 164.108 204.892 164.384 204.812 164.655C204.883 164.384 204.948 164.104 204.999 163.833Z" fill="url(#paint29_linear_3388_103240)"/>
<path d="M202.668 173.154C202.64 173.21 202.607 173.266 202.574 173.322V173.308C202.607 173.261 202.64 173.21 202.668 173.154Z" fill="url(#paint30_linear_3388_103240)"/>
<path d="M203.497 171.392V171.411C203.487 171.434 203.478 171.458 203.469 171.481C203.478 171.448 203.492 171.416 203.497 171.392Z" fill="url(#paint31_linear_3388_103240)"/>
<path d="M202.574 173.308V173.322C202.56 173.345 202.541 173.373 202.527 173.392C202.541 173.369 202.56 173.341 202.574 173.308Z" fill="url(#paint32_linear_3388_103240)"/>
<path d="M199.345 172.07V172.074C199.219 172.172 199.083 172.275 198.957 172.373C199.093 172.275 199.219 172.168 199.345 172.07Z" fill="url(#paint33_linear_3388_103240)"/>
<path d="M196.655 150.597C182.652 141.514 166.183 143.649 156.175 149.307C144.63 155.839 140.771 165.034 154.283 173.808C168.089 182.764 183.587 181.405 195.276 174.789C206.209 168.612 209.909 159.198 196.655 150.597ZM186.105 168.851C177.606 173.654 168.865 175.27 161.24 170.322C154.302 165.818 157.278 159.904 165.379 155.325C173.196 150.905 182.419 149.368 189.665 154.068C197.472 159.123 193.59 164.618 186.105 168.851Z" fill="url(#paint34_linear_3388_103240)"/>
<path d="M221.089 183.661C220.996 183.605 220.903 183.549 220.809 183.498C220.622 183.39 220.431 183.292 220.239 183.199C220.225 183.194 220.211 183.189 220.202 183.18C220.029 183.096 219.856 183.017 219.683 182.942C219.627 182.918 219.566 182.9 219.51 182.876C219.365 182.816 219.221 182.764 219.076 182.708C218.982 182.676 218.889 182.633 218.795 182.601C218.73 182.577 218.66 182.563 218.59 182.54C218.468 182.503 218.342 182.465 218.221 182.433C218.132 182.409 218.048 182.377 217.964 182.358C217.875 182.334 217.782 182.32 217.688 182.297C217.567 182.269 217.445 182.241 217.319 182.218C217.254 182.204 217.188 182.185 217.123 182.176C217.011 182.157 216.899 182.143 216.786 182.129C216.646 182.106 216.506 182.087 216.366 182.068C216.315 182.063 216.263 182.049 216.207 182.045C216.109 182.035 216.006 182.031 215.903 182.026C215.707 182.007 215.511 181.993 215.31 181.984C215.249 181.979 215.189 181.975 215.128 181.97C214.988 181.965 214.847 181.97 214.707 181.97C214.614 181.97 214.525 181.97 214.432 181.97C214.128 181.975 213.824 181.989 213.521 182.017C213.516 182.017 213.511 182.017 213.507 182.017C213.441 182.021 213.376 182.031 213.306 182.04C213.044 182.063 212.778 182.096 212.511 182.134C212.39 182.152 212.273 182.176 212.152 182.194C211.937 182.232 211.726 182.269 211.512 182.311C211.376 182.339 211.241 182.377 211.105 182.405C210.904 182.451 210.703 182.498 210.507 182.554C210.367 182.591 210.222 182.638 210.077 182.68C209.881 182.736 209.689 182.797 209.493 182.862C209.348 182.909 209.204 182.965 209.054 183.017C208.862 183.087 208.671 183.157 208.475 183.236C208.33 183.292 208.18 183.353 208.035 183.418C207.844 183.498 207.652 183.587 207.461 183.671C207.316 183.736 207.166 183.806 207.022 183.876C206.83 183.97 206.639 184.068 206.442 184.171C206.297 184.245 206.157 184.32 206.012 184.4C205.956 184.432 205.9 184.456 205.844 184.488C205.601 184.624 205.358 184.764 205.12 184.913C204.858 185.072 204.611 185.231 204.368 185.385C204.298 185.432 204.228 185.479 204.158 185.526C203.98 185.642 203.807 185.759 203.639 185.876C203.574 185.923 203.513 185.965 203.447 186.007C203.228 186.161 203.018 186.32 202.817 186.474C202.798 186.488 202.784 186.502 202.765 186.516C202.583 186.656 202.41 186.796 202.242 186.936C202.219 186.955 202.195 186.974 202.172 186.993C202.125 187.035 202.079 187.072 202.032 187.114C201.966 187.17 201.901 187.231 201.836 187.287C201.761 187.352 201.691 187.418 201.621 187.488C201.56 187.544 201.499 187.6 201.443 187.661C201.378 187.726 201.312 187.791 201.247 187.862C201.191 187.918 201.135 187.974 201.083 188.03C201.023 188.095 200.967 188.161 200.906 188.226C200.859 188.282 200.808 188.338 200.761 188.394C200.747 188.408 200.738 188.422 200.724 188.436C200.7 188.464 200.686 188.488 200.663 188.516C200.569 188.632 200.481 188.754 200.397 188.871C200.364 188.913 200.336 188.96 200.303 189.002C200.205 189.142 200.116 189.282 200.037 189.422C200.032 189.431 200.027 189.436 200.023 189.445V189.45C199.953 189.576 199.887 189.702 199.831 189.829C199.813 189.866 199.803 189.903 199.785 189.941C199.747 190.029 199.71 190.118 199.682 190.207C199.677 190.216 199.672 190.23 199.668 190.24C199.644 190.305 199.63 190.366 199.612 190.427C199.602 190.464 199.588 190.501 199.579 190.539C199.551 190.651 199.528 190.763 199.514 190.87L198.645 196.837C198.659 196.725 198.682 196.617 198.71 196.505C198.719 196.468 198.733 196.43 198.743 196.393C198.761 196.318 198.785 196.248 198.808 196.173C198.836 196.085 198.873 195.996 198.911 195.907C198.925 195.87 198.939 195.832 198.958 195.795C199.014 195.669 199.079 195.543 199.149 195.416C199.154 195.407 199.158 195.398 199.163 195.388C199.243 195.248 199.331 195.108 199.429 194.968C199.457 194.926 199.49 194.879 199.523 194.837C199.607 194.72 199.696 194.603 199.789 194.487C199.822 194.445 199.85 194.407 199.887 194.365C199.934 194.309 199.981 194.258 200.032 194.202C200.088 194.136 200.149 194.071 200.21 194.001C200.261 193.945 200.317 193.889 200.373 193.833C200.439 193.767 200.499 193.702 200.569 193.636C200.626 193.58 200.686 193.524 200.747 193.463C200.817 193.398 200.887 193.333 200.962 193.263C201.027 193.206 201.093 193.146 201.158 193.09C201.228 193.029 201.298 192.968 201.368 192.907C201.537 192.767 201.709 192.627 201.892 192.482C201.91 192.468 201.924 192.454 201.943 192.44C202.144 192.286 202.354 192.132 202.574 191.973C202.635 191.926 202.7 191.884 202.765 191.838C202.934 191.721 203.106 191.604 203.284 191.482C203.354 191.436 203.419 191.389 203.494 191.347C203.737 191.188 203.985 191.029 204.246 190.875C204.541 190.693 204.84 190.529 205.139 190.361C205.279 190.282 205.424 190.207 205.569 190.132C205.76 190.034 205.952 189.931 206.148 189.838C206.293 189.768 206.438 189.698 206.587 189.632C206.779 189.544 206.97 189.459 207.162 189.38C207.311 189.319 207.456 189.259 207.606 189.198C207.797 189.123 207.989 189.048 208.18 188.978C208.325 188.927 208.475 188.871 208.62 188.824C208.816 188.759 209.007 188.698 209.204 188.642C209.348 188.6 209.489 188.553 209.633 188.516C209.834 188.46 210.035 188.413 210.231 188.366C210.367 188.333 210.502 188.301 210.638 188.273C210.853 188.226 211.068 188.189 211.283 188.156C211.404 188.137 211.521 188.109 211.642 188.095C211.909 188.058 212.175 188.025 212.437 188.002C212.502 187.997 212.567 187.983 212.633 187.978C212.946 187.95 213.254 187.936 213.563 187.932C213.656 187.932 213.745 187.932 213.834 187.932C214.035 187.932 214.235 187.936 214.436 187.946C214.633 187.955 214.833 187.969 215.03 187.988C215.184 188.002 215.338 188.011 215.492 188.03C215.632 188.048 215.773 188.067 215.908 188.091C216.086 188.119 216.263 188.147 216.441 188.184C216.562 188.207 216.688 188.235 216.81 188.263C216.987 188.305 217.165 188.352 217.342 188.399C217.469 188.432 217.59 188.469 217.716 188.506C217.88 188.558 218.039 188.614 218.197 188.675C218.342 188.726 218.492 188.782 218.637 188.843C218.87 188.941 219.104 189.039 219.333 189.151C219.347 189.156 219.356 189.16 219.37 189.17C219.66 189.315 219.945 189.469 220.22 189.637C222.547 191.048 223.575 192.538 223.346 194.108L224.215 188.142C224.444 186.563 223.416 185.072 221.089 183.661Z" fill="url(#paint35_linear_3388_103240)"/>
<path d="M234.012 197.21C234.058 197.014 234.096 196.813 234.128 196.612L234.997 190.646C234.969 190.847 234.927 191.043 234.881 191.244C234.867 191.31 234.843 191.375 234.825 191.44C234.787 191.571 234.754 191.702 234.712 191.833C234.694 191.889 234.67 191.95 234.652 192.006C234.591 192.174 234.53 192.337 234.455 192.506C234.423 192.576 234.395 192.646 234.362 192.716C234.287 192.879 234.203 193.043 234.119 193.202C234.091 193.258 234.063 193.314 234.03 193.37C233.895 193.608 233.75 193.842 233.591 194.075C233.554 194.127 233.516 194.183 233.479 194.234C233.339 194.431 233.189 194.627 233.035 194.823C232.993 194.874 232.951 194.926 232.909 194.977C232.848 195.052 232.783 195.127 232.717 195.201C232.633 195.295 232.554 195.388 232.47 195.482C232.4 195.557 232.33 195.631 232.26 195.706C232.171 195.795 232.082 195.888 231.993 195.977C231.918 196.052 231.839 196.127 231.764 196.197C231.671 196.285 231.577 196.374 231.479 196.463C231.4 196.538 231.316 196.608 231.232 196.683C231.138 196.762 231.045 196.846 230.947 196.925C230.825 197.028 230.704 197.126 230.578 197.224C230.489 197.295 230.4 197.365 230.311 197.435C230.18 197.538 230.04 197.636 229.905 197.738C229.816 197.804 229.727 197.869 229.638 197.935C229.484 198.042 229.325 198.154 229.162 198.262C229.082 198.313 229.008 198.369 228.924 198.421C228.681 198.579 228.433 198.738 228.176 198.892C227.872 199.079 227.564 199.257 227.251 199.434C227.186 199.472 227.116 199.509 227.05 199.542C226.653 199.761 226.251 199.976 225.845 200.177C225.793 200.201 225.747 200.229 225.695 200.252C225.265 200.462 224.831 200.663 224.392 200.859C224.303 200.897 224.214 200.939 224.121 200.976C223.682 201.163 223.238 201.345 222.789 201.514C222.719 201.542 222.649 201.565 222.579 201.588C222.14 201.747 221.701 201.901 221.257 202.041C221.21 202.055 221.163 202.074 221.112 202.088C220.645 202.233 220.173 202.369 219.696 202.49C219.603 202.513 219.505 202.541 219.411 202.565C218.939 202.682 218.463 202.794 217.982 202.892C217.902 202.906 217.823 202.92 217.743 202.938C217.271 203.027 216.799 203.111 216.323 203.181C216.281 203.186 216.234 203.195 216.192 203.2C215.697 203.27 215.192 203.326 214.692 203.368C214.59 203.378 214.487 203.387 214.384 203.396C213.912 203.434 213.436 203.462 212.954 203.476C212.88 203.476 212.809 203.476 212.735 203.48C212.3 203.49 211.861 203.49 211.422 203.48C211.319 203.48 211.221 203.476 211.118 203.476C210.866 203.466 210.618 203.452 210.366 203.438C210.24 203.429 210.118 203.429 209.992 203.42C209.618 203.392 209.245 203.364 208.871 203.322C208.866 203.322 208.866 203.322 208.862 203.322C208.838 203.317 208.81 203.317 208.787 203.312C208.46 203.275 208.133 203.233 207.801 203.186C207.689 203.167 207.572 203.149 207.46 203.13C207.217 203.093 206.979 203.055 206.736 203.013C206.656 202.999 206.577 202.981 206.502 202.967C206.231 202.915 205.96 202.864 205.689 202.803C205.558 202.775 205.432 202.742 205.301 202.71C205.082 202.658 204.862 202.607 204.638 202.551C204.465 202.504 204.292 202.457 204.119 202.406C203.932 202.354 203.75 202.308 203.563 202.252C203.39 202.2 203.213 202.144 203.04 202.088C202.858 202.032 202.676 201.976 202.493 201.911C202.106 201.78 201.718 201.644 201.33 201.495C201.311 201.485 201.293 201.481 201.274 201.471C200.905 201.331 200.536 201.182 200.171 201.023C199.854 200.887 199.536 200.747 199.223 200.598C199.153 200.565 199.087 200.532 199.017 200.5C198.756 200.378 198.499 200.247 198.237 200.117C198.134 200.065 198.032 200.014 197.929 199.958C197.686 199.832 197.443 199.701 197.2 199.565C197.111 199.519 197.027 199.472 196.938 199.425C196.602 199.238 196.27 199.042 195.938 198.841C190.014 195.253 187.986 191.655 188.472 188.333L187.603 194.3C187.122 197.622 189.145 201.219 195.069 204.807C195.368 204.99 195.663 205.162 195.962 205.331C195.999 205.349 196.032 205.368 196.069 205.391C196.158 205.438 196.242 205.485 196.331 205.536C196.574 205.672 196.817 205.798 197.06 205.924C197.162 205.975 197.265 206.031 197.368 206.083C197.63 206.214 197.887 206.34 198.148 206.466C198.214 206.499 198.284 206.531 198.349 206.564C198.644 206.7 198.933 206.83 199.228 206.957C199.251 206.966 199.279 206.975 199.302 206.989C199.671 207.148 200.041 207.298 200.405 207.438C200.424 207.447 200.442 207.452 200.461 207.461C200.849 207.611 201.237 207.746 201.624 207.877C201.648 207.886 201.666 207.891 201.69 207.9C201.849 207.956 202.012 208.003 202.171 208.05C202.344 208.106 202.521 208.162 202.694 208.213C202.877 208.269 203.063 208.316 203.246 208.368C203.418 208.414 203.596 208.466 203.769 208.512C203.792 208.517 203.811 208.526 203.834 208.531C204.035 208.582 204.236 208.624 204.432 208.671C204.558 208.699 204.689 208.732 204.815 208.765C205.086 208.825 205.362 208.877 205.633 208.928C205.708 208.942 205.787 208.961 205.862 208.975C205.867 208.975 205.871 208.975 205.871 208.975C206.11 209.017 206.348 209.054 206.586 209.092C206.698 209.11 206.815 209.129 206.927 209.148C207.254 209.194 207.586 209.237 207.913 209.274C207.936 209.279 207.964 209.279 207.988 209.283C207.993 209.283 207.992 209.283 207.997 209.283C208.371 209.325 208.745 209.358 209.118 209.381C209.24 209.391 209.366 209.395 209.488 209.4C209.74 209.414 209.992 209.428 210.24 209.437C210.282 209.437 210.319 209.442 210.361 209.442C210.422 209.442 210.483 209.442 210.543 209.442C210.983 209.451 211.422 209.451 211.856 209.442C211.931 209.442 212.001 209.442 212.076 209.437C212.553 209.423 213.029 209.395 213.506 209.358C213.552 209.353 213.599 209.353 213.646 209.349C213.702 209.344 213.758 209.335 213.809 209.33C214.314 209.283 214.814 209.232 215.309 209.162C215.356 209.157 215.398 209.148 215.445 209.143C215.921 209.073 216.393 208.994 216.865 208.9C216.944 208.886 217.024 208.872 217.103 208.853C217.584 208.755 218.061 208.648 218.533 208.526C218.631 208.503 218.724 208.475 218.822 208.452C219.299 208.325 219.771 208.195 220.238 208.05C220.285 208.036 220.332 208.017 220.378 208.003C220.827 207.863 221.266 207.709 221.701 207.55C221.771 207.522 221.841 207.499 221.911 207.475C222.359 207.307 222.803 207.125 223.242 206.938C223.331 206.9 223.42 206.858 223.509 206.821C223.948 206.629 224.387 206.429 224.812 206.214C224.864 206.19 224.91 206.162 224.957 206.139C225.368 205.933 225.77 205.723 226.167 205.504C226.209 205.48 226.251 205.461 226.293 205.438C226.317 205.424 226.34 205.41 226.368 205.396C226.681 205.219 226.989 205.041 227.293 204.854C227.55 204.7 227.798 204.541 228.041 204.382C228.12 204.331 228.199 204.275 228.279 204.223C228.438 204.116 228.601 204.008 228.755 203.896C228.844 203.831 228.933 203.765 229.022 203.705C229.162 203.602 229.297 203.504 229.433 203.401C229.522 203.331 229.61 203.261 229.699 203.191C229.825 203.093 229.952 202.99 230.073 202.887C230.11 202.854 230.157 202.822 230.194 202.789C230.251 202.742 230.302 202.691 230.358 202.644C230.442 202.569 230.526 202.499 230.606 202.425C230.704 202.336 230.797 202.247 230.891 202.158C230.97 202.084 231.045 202.013 231.12 201.939C231.213 201.85 231.302 201.756 231.386 201.668C231.456 201.593 231.531 201.518 231.596 201.448C231.68 201.355 231.764 201.261 231.848 201.168C231.914 201.093 231.979 201.018 232.04 200.948C232.059 200.929 232.077 200.906 232.091 200.887C232.119 200.855 232.138 200.822 232.166 200.789C232.325 200.593 232.47 200.402 232.61 200.201C232.647 200.149 232.685 200.093 232.722 200.042C232.881 199.808 233.026 199.575 233.161 199.336C233.171 199.322 233.18 199.308 233.189 199.294C233.213 199.252 233.231 199.21 233.25 199.173C233.339 199.009 233.418 198.85 233.493 198.687C233.526 198.617 233.558 198.547 233.586 198.477C233.657 198.313 233.722 198.145 233.783 197.977C233.797 197.935 233.815 197.893 233.829 197.851C233.834 197.837 233.839 197.818 233.843 197.804C233.885 197.673 233.923 197.542 233.956 197.407C233.974 197.341 233.998 197.276 234.012 197.21Z" fill="url(#paint36_linear_3388_103240)"/>
<path d="M227.66 180.12C216.082 173.107 203.435 175.018 195.922 179.578C187.783 184.526 184.139 191.711 195.927 198.85C207.397 205.793 219.367 204.233 228.164 198.892C236.336 193.931 238.537 186.703 227.66 180.12ZM219.161 193.506C212.793 197.369 206.897 197.967 202.454 195.281C197.73 192.422 198.697 188.815 205.131 184.913C210.639 181.564 216.606 180.951 221.091 183.666C225.931 186.591 225.137 189.871 219.161 193.506Z" fill="url(#paint37_linear_3388_103240)"/>
<path d="M257.061 197.706L256.243 203.681C255.426 204.34 253.968 205.317 252.543 206.27L253.361 200.294C254.786 199.341 256.243 198.36 257.061 197.706Z" fill="url(#paint38_linear_3388_103240)"/>
<path d="M257.061 197.706L256.243 203.681C255.426 204.34 253.968 205.317 252.543 206.27L253.361 200.294C254.786 199.341 256.243 198.36 257.061 197.706Z" fill="url(#paint39_linear_3388_103240)"/>
<path d="M258.067 205.401C257.895 205.298 257.722 205.2 257.554 205.106C257.455 205.05 257.362 205.008 257.264 204.957C257.156 204.901 257.044 204.84 256.937 204.784C256.722 204.677 256.512 204.578 256.301 204.48C256.213 204.438 256.124 204.396 256.035 204.359C256.007 204.349 255.979 204.335 255.956 204.321C255.853 204.279 255.75 204.247 255.647 204.205C255.437 204.121 255.227 204.041 255.021 203.971C254.984 203.957 254.946 203.943 254.914 203.929C254.75 203.873 254.582 203.836 254.419 203.789C254.325 203.765 254.236 203.733 254.143 203.709C254.124 203.705 254.106 203.7 254.087 203.695C253.835 203.635 253.587 203.579 253.335 203.537C253.316 203.532 253.302 203.532 253.283 203.532C253.218 203.522 253.152 203.513 253.082 203.504C252.914 203.48 252.746 203.452 252.578 203.434C252.526 203.429 252.48 203.429 252.428 203.424C252.302 203.415 252.176 203.41 252.05 203.401C251.942 203.396 251.83 203.382 251.723 203.382C251.634 203.382 251.545 203.382 251.456 203.387C251.396 203.387 251.335 203.387 251.279 203.387C251.031 203.392 250.784 203.406 250.531 203.429C250.508 203.429 250.48 203.438 250.457 203.438C250.354 203.448 250.251 203.466 250.144 203.48C249.943 203.508 249.742 203.532 249.536 203.569C249.415 203.593 249.293 203.616 249.172 203.644C248.98 203.686 248.789 203.728 248.597 203.775C248.471 203.807 248.34 203.845 248.214 203.882C248.022 203.938 247.831 203.994 247.635 204.06C247.504 204.102 247.373 204.144 247.242 204.191C247.041 204.261 246.84 204.34 246.635 204.42C246.509 204.471 246.382 204.518 246.252 204.574C246.027 204.667 245.798 204.77 245.57 204.877C245.457 204.929 245.35 204.976 245.238 205.027C244.892 205.19 244.546 205.363 244.191 205.555C244.182 205.56 244.177 205.564 244.168 205.569C243.845 205.742 243.514 205.919 243.182 206.111C243.159 206.125 243.135 206.139 243.112 206.153C242.696 206.391 242.271 206.643 241.836 206.914C241.551 207.092 241.28 207.265 241.019 207.438C240.963 207.475 240.907 207.512 240.851 207.55C240.594 207.718 240.346 207.886 240.112 208.054C240.075 208.082 240.042 208.106 240.005 208.134C239.795 208.288 239.589 208.438 239.393 208.587C239.356 208.615 239.314 208.648 239.276 208.676C239.066 208.839 238.87 209.003 238.683 209.162C238.664 209.176 238.645 209.19 238.627 209.204C238.58 209.246 238.538 209.283 238.491 209.325C238.435 209.377 238.379 209.423 238.328 209.475C238.258 209.54 238.192 209.601 238.127 209.666C238.075 209.713 238.029 209.76 237.977 209.811C237.912 209.877 237.851 209.942 237.786 210.007C237.744 210.054 237.702 210.096 237.66 210.143C237.594 210.213 237.533 210.288 237.473 210.358C237.44 210.395 237.407 210.433 237.375 210.47C237.37 210.475 237.365 210.479 237.361 210.484C237.342 210.507 237.328 210.531 237.309 210.549C237.23 210.647 237.155 210.746 237.09 210.844C237.062 210.886 237.034 210.928 237.005 210.975C236.949 211.059 236.898 211.138 236.851 211.222C236.837 211.245 236.819 211.269 236.809 211.292C236.795 211.32 236.781 211.348 236.767 211.376C236.739 211.428 236.711 211.484 236.688 211.535C236.66 211.591 236.636 211.647 236.613 211.703C236.59 211.755 236.571 211.811 236.552 211.862C236.543 211.89 236.529 211.914 236.524 211.942C236.52 211.96 236.515 211.979 236.51 211.998C236.464 212.147 236.426 212.297 236.407 212.446L235.59 218.422C235.609 218.272 235.646 218.123 235.693 217.973C235.707 217.931 235.721 217.885 235.735 217.843C235.753 217.791 235.772 217.735 235.795 217.684C235.819 217.628 235.842 217.572 235.87 217.515C235.894 217.464 235.922 217.408 235.95 217.357C235.978 217.305 236.006 217.254 236.034 217.202C236.08 217.118 236.132 217.039 236.188 216.955C236.216 216.913 236.244 216.871 236.272 216.824C236.342 216.726 236.417 216.628 236.492 216.53C236.515 216.502 236.534 216.474 236.552 216.446C236.585 216.408 236.618 216.371 236.65 216.333C236.711 216.263 236.772 216.193 236.837 216.119C236.879 216.076 236.921 216.03 236.963 215.988C237.024 215.922 237.09 215.857 237.155 215.791C237.202 215.745 237.253 215.698 237.3 215.651C237.365 215.586 237.431 215.525 237.501 215.46C237.552 215.413 237.608 215.362 237.664 215.315C237.725 215.259 237.79 215.203 237.856 215.147C238.043 214.988 238.239 214.824 238.449 214.661C238.487 214.633 238.529 214.6 238.566 214.572C238.762 214.423 238.963 214.273 239.173 214.119C239.211 214.091 239.248 214.067 239.285 214.039C239.519 213.871 239.767 213.703 240.024 213.535C240.08 213.497 240.14 213.46 240.197 213.423C240.463 213.25 240.729 213.077 241.014 212.899C241.449 212.628 241.874 212.376 242.29 212.138C242.654 211.928 243.014 211.727 243.364 211.545L243.369 211.54C243.724 211.353 244.074 211.175 244.416 211.012C244.528 210.961 244.635 210.914 244.743 210.862C244.971 210.755 245.205 210.652 245.429 210.559C245.555 210.503 245.686 210.456 245.812 210.405C246.018 210.325 246.219 210.246 246.42 210.176C246.551 210.129 246.681 210.087 246.812 210.045C247.004 209.979 247.2 209.923 247.392 209.867C247.522 209.83 247.649 209.792 247.775 209.76C247.966 209.708 248.158 209.666 248.349 209.629C248.471 209.606 248.592 209.578 248.714 209.554C248.915 209.517 249.116 209.489 249.317 209.465C249.419 209.451 249.527 209.433 249.63 209.423C249.905 209.395 250.176 209.381 250.447 209.372C250.508 209.372 250.569 209.372 250.625 209.372C250.826 209.372 251.022 209.377 251.223 209.391C251.349 209.395 251.475 209.4 251.601 209.414C251.821 209.433 252.036 209.461 252.255 209.493C252.321 209.503 252.391 209.507 252.456 209.521C252.741 209.568 253.026 209.629 253.316 209.704C253.409 209.727 253.498 209.755 253.592 209.783C253.792 209.839 253.993 209.9 254.194 209.965C254.405 210.035 254.61 210.12 254.82 210.199C254.951 210.25 255.082 210.297 255.213 210.353C255.302 210.391 255.39 210.433 255.479 210.475C255.689 210.568 255.904 210.671 256.119 210.778C256.227 210.834 256.334 210.89 256.446 210.946C256.713 211.087 256.979 211.231 257.25 211.395C259.301 212.614 260.413 214.035 260.193 215.651L261.011 209.676C261.23 208.04 260.123 206.62 258.067 205.401Z" fill="url(#paint40_linear_3388_103240)"/>
<path d="M229.914 214.801L229.788 215.726C229.788 215.731 229.788 215.735 229.788 215.735L229.092 220.772L214.963 229.523L206.109 224.267L206.927 218.286L215.781 223.543L229.914 214.801Z" fill="url(#paint41_linear_3388_103240)"/>
<path d="M272.053 217.936C272.095 217.754 272.127 217.572 272.155 217.389L272.973 211.414C272.95 211.596 272.912 211.778 272.87 211.96C272.856 212.021 272.838 212.082 272.824 212.143C272.791 212.264 272.758 212.39 272.721 212.512C272.707 212.563 272.683 212.614 272.665 212.666C272.609 212.825 272.548 212.984 272.483 213.147C272.454 213.217 272.422 213.287 272.389 213.357C272.324 213.507 272.249 213.652 272.169 213.801C272.127 213.881 272.085 213.96 272.043 214.039C272.015 214.086 271.987 214.133 271.959 214.184C271.885 214.315 271.8 214.446 271.716 214.577C271.693 214.614 271.67 214.651 271.642 214.689C271.529 214.852 271.413 215.016 271.291 215.184C271.263 215.221 271.235 215.259 271.207 215.296C271.114 215.418 271.011 215.544 270.908 215.665C270.843 215.749 270.768 215.829 270.698 215.913C270.609 216.011 270.52 216.114 270.431 216.212C270.357 216.296 270.277 216.375 270.198 216.46C270.1 216.558 270.002 216.661 269.904 216.763C269.819 216.847 269.735 216.931 269.647 217.011C269.539 217.114 269.432 217.212 269.319 217.315C269.231 217.399 269.137 217.478 269.044 217.562C268.946 217.646 268.848 217.73 268.745 217.819C268.591 217.95 268.436 218.076 268.273 218.207C268.17 218.291 268.067 218.371 267.96 218.455C267.792 218.585 267.619 218.716 267.441 218.847C267.334 218.926 267.226 219.006 267.114 219.085C266.918 219.226 266.712 219.366 266.502 219.51C266.404 219.581 266.306 219.646 266.203 219.716C265.89 219.926 265.563 220.137 265.227 220.342C264.918 220.534 264.605 220.721 264.288 220.898C264.264 220.912 264.246 220.921 264.222 220.936C263.788 221.183 263.344 221.417 262.9 221.641C262.811 221.688 262.718 221.734 262.629 221.776C262.18 221.996 261.732 222.206 261.274 222.407C261.185 222.445 261.097 222.482 261.008 222.519C260.569 222.706 260.129 222.884 259.681 223.047C259.639 223.061 259.597 223.08 259.555 223.094C259.083 223.267 258.611 223.426 258.139 223.575C258.036 223.608 257.938 223.641 257.835 223.669C257.364 223.814 256.892 223.944 256.42 224.066C256.35 224.085 256.28 224.099 256.21 224.117C255.766 224.225 255.322 224.327 254.878 224.416C254.803 224.43 254.728 224.449 254.654 224.463C254.177 224.556 253.701 224.636 253.229 224.706C253.126 224.72 253.028 224.734 252.925 224.748C252.444 224.813 251.958 224.874 251.477 224.921C251.449 224.926 251.425 224.926 251.397 224.926C250.879 224.972 250.36 225.005 249.841 225.028C249.776 225.033 249.706 225.038 249.641 225.038C249.131 225.056 248.622 225.056 248.117 225.052C248.01 225.052 247.898 225.047 247.79 225.047C247.524 225.042 247.258 225.028 246.996 225.014C246.884 225.01 246.776 225.005 246.664 224.996C246.295 224.972 245.926 224.944 245.557 224.907C245.473 224.897 245.394 224.888 245.309 224.879C245.057 224.851 244.805 224.823 244.553 224.79C244.431 224.771 244.305 224.753 244.183 224.734C243.973 224.701 243.763 224.673 243.557 224.636C243.408 224.608 243.258 224.58 243.104 224.552C242.941 224.519 242.777 224.491 242.614 224.458C242.464 224.426 242.315 224.393 242.165 224.36C242.002 224.323 241.843 224.29 241.684 224.248C241.539 224.211 241.394 224.173 241.245 224.136C241.081 224.094 240.918 224.052 240.759 224.005C240.614 223.963 240.469 223.921 240.329 223.879C240.17 223.832 240.011 223.786 239.852 223.734C239.722 223.692 239.595 223.65 239.465 223.603C239.278 223.543 239.096 223.477 238.913 223.412C238.782 223.365 238.656 223.318 238.53 223.267C238.353 223.197 238.175 223.131 238.002 223.057C237.885 223.01 237.773 222.963 237.661 222.912C237.362 222.786 237.068 222.65 236.778 222.515C236.727 222.491 236.675 222.468 236.624 222.445C236.292 222.281 235.961 222.113 235.638 221.935C235.423 221.819 235.208 221.697 234.998 221.571C230.985 219.188 229.574 217.011 229.817 215.24L228.999 221.216C228.756 222.982 230.167 225.164 234.18 227.547C234.363 227.654 234.545 227.762 234.732 227.86C234.76 227.878 234.792 227.892 234.825 227.906C235.148 228.084 235.475 228.257 235.811 228.416C235.862 228.439 235.914 228.462 235.965 228.486C236.255 228.626 236.549 228.757 236.844 228.883C236.895 228.902 236.942 228.93 236.988 228.948C237.054 228.976 237.124 229 237.189 229.028C237.362 229.098 237.54 229.168 237.717 229.238C237.843 229.289 237.974 229.336 238.105 229.383C238.287 229.448 238.469 229.514 238.656 229.574C238.745 229.602 238.829 229.635 238.918 229.663C238.96 229.677 239.007 229.691 239.049 229.7C239.208 229.752 239.366 229.799 239.525 229.845C239.67 229.887 239.81 229.929 239.955 229.971C240.114 230.018 240.278 230.06 240.441 230.102C240.553 230.13 240.661 230.163 240.768 230.191C240.806 230.2 240.843 230.21 240.88 230.214C241.039 230.252 241.203 230.289 241.361 230.322C241.511 230.355 241.661 230.392 241.815 230.42C241.978 230.453 242.142 230.485 242.305 230.513C242.427 230.537 242.544 230.56 242.665 230.583C242.698 230.588 242.73 230.593 242.758 230.597C242.964 230.635 243.174 230.663 243.38 230.696C243.501 230.714 243.627 230.733 243.749 230.752C244.001 230.784 244.254 230.812 244.506 230.84C244.585 230.85 244.66 230.859 244.739 230.868C244.744 230.868 244.753 230.868 244.758 230.868C245.123 230.906 245.492 230.934 245.865 230.957C245.978 230.962 246.085 230.967 246.197 230.976C246.459 230.99 246.725 230.999 246.991 231.009C247.052 231.009 247.113 231.013 247.174 231.018C247.225 231.018 247.276 231.018 247.323 231.018C247.828 231.027 248.337 231.023 248.846 231.004C248.916 230.999 248.982 230.999 249.052 230.995C249.57 230.971 250.084 230.943 250.608 230.897C250.626 230.897 250.65 230.897 250.668 230.892C250.678 230.892 250.682 230.892 250.687 230.887C251.168 230.84 251.65 230.784 252.135 230.714C252.238 230.7 252.341 230.686 252.439 230.672C252.916 230.602 253.388 230.523 253.864 230.429C253.939 230.415 254.018 230.397 254.093 230.383C254.537 230.294 254.981 230.191 255.42 230.084C255.49 230.065 255.56 230.051 255.63 230.032C256.102 229.911 256.574 229.78 257.046 229.635C257.149 229.602 257.247 229.574 257.35 229.542C257.826 229.392 258.298 229.233 258.765 229.06C258.807 229.046 258.849 229.028 258.887 229.014C259.33 228.85 259.774 228.673 260.214 228.486C260.302 228.448 260.391 228.411 260.48 228.374C260.933 228.177 261.386 227.967 261.835 227.743C261.924 227.696 262.017 227.649 262.106 227.607C262.55 227.383 262.993 227.149 263.428 226.902C263.442 226.892 263.461 226.883 263.475 226.878C263.479 226.874 263.484 226.874 263.493 226.869C263.806 226.687 264.119 226.505 264.432 226.313C264.769 226.103 265.096 225.893 265.409 225.687C265.512 225.617 265.61 225.552 265.708 225.481C265.914 225.341 266.119 225.201 266.315 225.056C266.427 224.977 266.535 224.897 266.642 224.818C266.82 224.687 266.993 224.556 267.161 224.426C267.268 224.341 267.371 224.262 267.474 224.178C267.638 224.047 267.792 223.916 267.946 223.79C268.007 223.739 268.067 223.692 268.128 223.641C268.17 223.608 268.203 223.571 268.245 223.538C268.338 223.454 268.432 223.37 268.521 223.29C268.633 223.187 268.74 223.089 268.848 222.987C268.936 222.902 269.02 222.818 269.105 222.734C269.207 222.636 269.305 222.533 269.399 222.435C269.478 222.351 269.558 222.267 269.633 222.183C269.726 222.085 269.815 221.982 269.899 221.884C269.969 221.8 270.044 221.72 270.109 221.636C270.142 221.594 270.179 221.557 270.212 221.515C270.277 221.431 270.343 221.351 270.403 221.267C270.431 221.23 270.464 221.192 270.492 221.155C270.614 220.992 270.735 220.823 270.843 220.66C270.866 220.622 270.889 220.585 270.917 220.548C271.001 220.417 271.086 220.286 271.16 220.155C271.188 220.109 271.216 220.062 271.244 220.01C271.263 219.973 271.286 219.94 271.305 219.903C271.329 219.861 271.347 219.814 271.371 219.772C271.45 219.623 271.525 219.473 271.59 219.328C271.623 219.258 271.656 219.188 271.684 219.118C271.749 218.959 271.81 218.796 271.866 218.637C271.88 218.599 271.899 218.557 271.913 218.52C271.917 218.506 271.917 218.497 271.922 218.483C271.959 218.356 271.992 218.235 272.025 218.114C272.02 218.057 272.039 217.997 272.053 217.936Z" fill="url(#paint42_linear_3388_103240)"/>
<path d="M229.794 215.731L229.92 214.806C229.832 215.1 229.785 215.413 229.794 215.731Z" fill="url(#paint43_linear_3388_103240)"/>
<path d="M267.656 203.294C261.942 199.902 256.686 199.701 253.364 200.289C254.785 199.336 256.247 198.36 257.065 197.706L248.384 192.552C246.571 193.833 243.829 195.463 239.778 197.963L206.938 218.291L215.791 223.547L229.924 214.801L229.798 215.726C229.798 215.731 229.798 215.735 229.798 215.735C229.854 217.408 231.359 219.408 235.008 221.58C243.184 226.435 255.481 226.383 265.241 220.338C275.711 213.857 274.707 207.484 267.656 203.294ZM256.06 215.044C249.898 218.856 244.198 219.375 239.479 216.567C234.265 213.469 236.054 210.493 241.834 206.914C248.384 202.864 252.696 202.205 258.074 205.396C262.157 207.83 262.508 211.049 256.06 215.044Z" fill="url(#paint44_linear_3388_103240)"/>
<path d="M294.32 226.724C294.212 226.659 294.11 226.593 294.007 226.533C293.988 226.523 293.97 226.514 293.951 226.5C293.843 226.439 293.741 226.383 293.633 226.327C293.582 226.299 293.526 226.266 293.474 226.243C293.325 226.168 293.175 226.094 293.03 226.028C293.021 226.024 293.016 226.019 293.007 226.019C292.806 225.93 292.605 225.851 292.409 225.781C292.386 225.771 292.358 225.762 292.334 225.753C292.306 225.743 292.283 225.739 292.255 225.729C292.133 225.687 292.017 225.65 291.9 225.617C291.867 225.608 291.83 225.594 291.797 225.584C291.783 225.58 291.774 225.58 291.76 225.575C291.652 225.547 291.54 225.524 291.433 225.5C291.4 225.491 291.362 225.482 291.325 225.477C291.32 225.477 291.316 225.477 291.311 225.477C291.166 225.449 291.026 225.425 290.881 225.407C290.877 225.407 290.872 225.407 290.867 225.407C290.727 225.388 290.582 225.379 290.447 225.369C290.437 225.369 290.428 225.369 290.419 225.365C290.395 225.365 290.377 225.365 290.353 225.365C290.208 225.36 290.064 225.365 289.923 225.369C289.9 225.369 289.872 225.369 289.849 225.369C289.83 225.369 289.807 225.374 289.788 225.379C289.681 225.388 289.573 225.402 289.466 225.416C289.428 225.421 289.391 225.425 289.353 225.43C289.213 225.454 289.073 225.486 288.938 225.524C288.905 225.533 288.877 225.542 288.844 225.552C288.737 225.584 288.634 225.617 288.531 225.659C288.484 225.678 288.442 225.696 288.396 225.715C288.307 225.753 288.218 225.795 288.134 225.837C288.111 225.851 288.083 225.86 288.055 225.874C288.008 225.897 287.966 225.925 287.919 225.949C287.788 226.023 287.676 226.103 287.578 226.182C287.573 226.187 287.564 226.192 287.559 226.196C287.485 226.262 287.415 226.327 287.358 226.393C287.354 226.397 287.344 226.402 287.34 226.411C287.288 226.472 287.246 226.533 287.209 226.593C287.2 226.608 287.195 226.626 287.186 226.645C287.176 226.664 287.167 226.687 287.158 226.706C287.148 226.729 287.134 226.752 287.125 226.78C287.106 226.836 287.087 226.897 287.078 226.963L286.125 232.92C286.139 232.831 286.167 232.747 286.204 232.663C286.214 232.644 286.223 232.621 286.232 232.602C286.275 232.522 286.326 232.443 286.387 232.368C286.391 232.364 286.396 232.359 286.405 232.354C286.471 232.279 286.541 232.209 286.625 232.144C286.728 232.065 286.84 231.985 286.966 231.91C287.036 231.868 287.106 231.836 287.181 231.798C287.265 231.756 287.354 231.714 287.443 231.677C287.489 231.658 287.531 231.639 287.578 231.621C287.681 231.579 287.788 231.546 287.891 231.513C287.919 231.504 287.952 231.495 287.98 231.485C288.115 231.448 288.256 231.415 288.4 231.392C288.438 231.387 288.475 231.382 288.508 231.378C288.615 231.359 288.723 231.35 288.835 231.34C288.882 231.336 288.924 231.336 288.97 231.331C289.111 231.322 289.255 231.322 289.4 231.326C289.433 231.326 289.466 231.326 289.498 231.326C289.638 231.331 289.779 231.345 289.919 231.364C289.923 231.364 289.928 231.364 289.933 231.364C290.073 231.382 290.218 231.406 290.363 231.434C290.405 231.443 290.447 231.452 290.489 231.462C290.596 231.485 290.704 231.509 290.811 231.537C290.858 231.551 290.905 231.565 290.951 231.579C291.068 231.611 291.19 231.649 291.306 231.691C291.358 231.709 291.409 231.728 291.456 231.742C291.652 231.812 291.853 231.892 292.054 231.98C292.063 231.985 292.077 231.99 292.087 231.994C292.231 232.06 292.376 232.13 292.526 232.205C292.577 232.233 292.633 232.261 292.685 232.289C292.787 232.345 292.895 232.401 293.002 232.462C293.129 232.532 293.25 232.606 293.376 232.686C295.483 234.003 296.077 235.143 295.922 236.087L296.876 230.13C297.02 229.182 296.427 228.042 294.32 226.724Z" fill="url(#paint45_linear_3388_103240)"/>
<path d="M304.289 237.157L303.336 243.109L295.394 238.143C295.249 237.821 295.076 237.48 294.875 237.129L295.73 231.803L304.289 237.157Z" fill="url(#paint46_linear_3388_103240)"/>
<path d="M307.522 232.812L306.569 238.769C306.307 240.414 305.135 241.876 303.336 243.114L304.289 237.157C306.088 235.919 307.26 234.457 307.522 232.812Z" fill="url(#paint47_linear_3388_103240)"/>
<path d="M307.321 233.606C307.214 233.91 307.078 234.204 306.91 234.489C306.723 234.816 306.494 235.129 306.237 235.438C305.915 235.821 305.536 236.185 305.111 236.536C304.854 236.746 304.579 236.956 304.289 237.152L303.336 243.109C303.626 242.909 303.901 242.703 304.158 242.493C304.583 242.142 304.962 241.778 305.284 241.395C305.546 241.086 305.77 240.773 305.957 240.446C306.125 240.157 306.261 239.862 306.368 239.563C306.462 239.302 306.527 239.04 306.569 238.769L307.522 232.812C307.48 233.083 307.415 233.349 307.321 233.606Z" fill="url(#paint48_linear_3388_103240)"/>
<path d="M273.635 233.027L272.682 238.984C272.654 239.007 272.626 239.031 272.598 239.054L273.551 233.097C273.574 233.074 273.602 233.05 273.635 233.027Z" fill="url(#paint49_linear_3388_103240)"/>
<path d="M273.549 233.097L272.596 239.054C272.371 239.241 272.175 239.428 272.012 239.619L272.965 233.662C273.133 233.471 273.325 233.279 273.549 233.097Z" fill="url(#paint50_linear_3388_103240)"/>
<path d="M272.966 233.662L272.013 239.619C271.877 239.778 271.765 239.937 271.672 240.096L272.625 234.139C272.718 233.98 272.831 233.821 272.966 233.662Z" fill="url(#paint51_linear_3388_103240)"/>
<path d="M272.627 234.139L271.674 240.096C271.589 240.241 271.524 240.386 271.473 240.535L272.426 234.578C272.477 234.429 272.543 234.284 272.627 234.139Z" fill="url(#paint52_linear_3388_103240)"/>
<path d="M272.426 234.578L271.473 240.535C271.426 240.661 271.394 240.792 271.375 240.923L272.328 234.966C272.347 234.835 272.379 234.704 272.426 234.578Z" fill="url(#paint53_linear_3388_103240)"/>
<path d="M280.132 233.443C276.343 229.495 274.969 226.832 275.296 224.804L274.343 230.761C274.016 232.789 275.395 235.452 279.179 239.4C281.207 241.521 282.473 242.979 282.898 244.058C283.005 244.329 283.061 244.572 283.061 244.801C283.061 244.876 283.057 244.95 283.043 245.02L283.996 239.063C284.183 237.923 282.837 236.269 280.132 233.443Z" fill="url(#paint54_linear_3388_103240)"/>
<path d="M294.943 247.09L295.896 241.133C295.868 241.315 295.821 241.493 295.77 241.666C295.761 241.689 295.756 241.717 295.747 241.741C295.691 241.904 295.625 242.068 295.546 242.226C295.527 242.259 295.508 242.297 295.49 242.329C295.42 242.465 295.34 242.596 295.256 242.726C295.233 242.759 295.214 242.796 295.191 242.829C295.088 242.979 294.971 243.128 294.845 243.273C294.793 243.334 294.733 243.39 294.681 243.451C294.588 243.549 294.494 243.647 294.396 243.745C294.331 243.806 294.256 243.871 294.186 243.932C294.074 244.03 293.957 244.133 293.831 244.231C293.798 244.259 293.766 244.282 293.733 244.31C293.56 244.446 293.373 244.577 293.182 244.707C293.149 244.731 293.112 244.754 293.074 244.777C292.869 244.913 292.658 245.048 292.434 245.179C292.271 245.277 292.098 245.366 291.929 245.46C291.771 245.544 291.612 245.623 291.453 245.698C291.392 245.726 291.331 245.759 291.271 245.787C291.046 245.889 290.822 245.988 290.593 246.076C290.547 246.095 290.5 246.109 290.458 246.128C290.271 246.198 290.084 246.268 289.897 246.333C289.813 246.361 289.729 246.385 289.645 246.413C289.491 246.464 289.336 246.511 289.178 246.553C289.084 246.581 288.991 246.604 288.897 246.628C288.748 246.665 288.594 246.702 288.439 246.74C288.341 246.763 288.248 246.782 288.15 246.805C287.991 246.838 287.837 246.866 287.678 246.894C287.584 246.913 287.491 246.927 287.398 246.941C287.22 246.969 287.038 246.992 286.86 247.015C286.785 247.025 286.715 247.034 286.641 247.043C286.384 247.071 286.127 247.095 285.87 247.113C285.851 247.113 285.828 247.113 285.809 247.118C285.505 247.137 285.202 247.151 284.898 247.156C284.819 247.156 284.739 247.16 284.66 247.16C284.337 247.16 284.015 247.16 283.688 247.146C283.641 247.146 283.59 247.142 283.543 247.137C283.319 247.128 283.09 247.113 282.866 247.095C282.772 247.085 282.679 247.076 282.581 247.067C282.394 247.048 282.211 247.029 282.025 247.011C281.917 246.997 281.81 246.983 281.707 246.969C281.539 246.945 281.37 246.922 281.207 246.899C281.099 246.88 280.992 246.866 280.885 246.847C280.707 246.819 280.534 246.786 280.357 246.754C280.258 246.735 280.16 246.716 280.062 246.698C279.81 246.646 279.558 246.59 279.305 246.534C279.273 246.525 279.245 246.52 279.212 246.515C278.927 246.45 278.642 246.375 278.357 246.301C278.282 246.282 278.212 246.258 278.137 246.24C277.894 246.174 277.651 246.104 277.408 246.03C277.315 246.002 277.217 245.969 277.123 245.941C276.876 245.861 276.628 245.782 276.381 245.693C276.315 245.67 276.254 245.651 276.189 245.628C275.82 245.497 275.456 245.357 275.086 245.212C275.007 245.179 274.932 245.151 274.853 245.118C274.484 244.969 274.115 244.815 273.75 244.651C273.666 244.614 273.582 244.577 273.498 244.534C273.311 244.45 273.124 244.362 272.933 244.273C272.83 244.221 272.722 244.17 272.62 244.119C272.451 244.035 272.283 243.95 272.115 243.866C272.003 243.81 271.895 243.754 271.788 243.698C271.624 243.614 271.461 243.525 271.297 243.437C271.19 243.376 271.078 243.315 270.97 243.254C270.807 243.161 270.643 243.072 270.48 242.974C270.377 242.913 270.279 242.857 270.176 242.796C269.877 242.619 269.578 242.441 269.279 242.254C263.869 238.872 261.229 235.471 261.733 232.317L260.752 238.278C260.248 241.432 262.888 244.833 268.298 248.216C268.592 248.403 268.891 248.581 269.19 248.758C269.223 248.777 269.256 248.8 269.293 248.819C269.363 248.861 269.433 248.898 269.503 248.936C269.667 249.029 269.826 249.123 269.989 249.211C270.101 249.272 270.209 249.333 270.321 249.393C270.484 249.482 270.648 249.566 270.807 249.655C270.919 249.711 271.026 249.772 271.138 249.828C271.307 249.912 271.475 249.996 271.638 250.076C271.746 250.127 271.849 250.178 271.956 250.23C272.143 250.319 272.325 250.403 272.512 250.487C272.587 250.519 272.662 250.557 272.732 250.59C272.741 250.594 272.755 250.599 272.764 250.604C273.129 250.767 273.498 250.921 273.867 251.071C273.946 251.103 274.026 251.136 274.105 251.164C274.47 251.309 274.839 251.449 275.208 251.575C275.222 251.58 275.236 251.585 275.25 251.589C275.301 251.608 275.353 251.622 275.404 251.641C275.652 251.725 275.895 251.809 276.142 251.884C276.24 251.916 276.334 251.944 276.432 251.973C276.675 252.047 276.913 252.117 277.156 252.183C277.212 252.197 277.264 252.215 277.32 252.229C277.338 252.234 277.357 252.239 277.38 252.244C277.665 252.318 277.95 252.393 278.231 252.458C278.263 252.468 278.296 252.472 278.329 252.482C278.581 252.538 278.829 252.594 279.081 252.645C279.109 252.65 279.133 252.659 279.161 252.664C279.235 252.678 279.31 252.692 279.38 252.706C279.553 252.739 279.731 252.771 279.903 252.799C280.011 252.818 280.123 252.832 280.23 252.851C280.399 252.874 280.562 252.902 280.73 252.921C280.786 252.93 280.847 252.94 280.908 252.944C280.959 252.949 281.006 252.954 281.053 252.958C281.24 252.982 281.422 253 281.609 253.014C281.702 253.024 281.8 253.033 281.894 253.042C282.123 253.061 282.347 253.075 282.571 253.084C282.613 253.084 282.655 253.089 282.702 253.094C282.707 253.094 282.711 253.094 282.721 253.094C283.048 253.108 283.37 253.113 283.693 253.108C283.772 253.108 283.851 253.108 283.931 253.103C284.239 253.098 284.543 253.084 284.842 253.066C284.856 253.066 284.875 253.066 284.889 253.066C284.893 253.066 284.898 253.066 284.903 253.066C285.16 253.047 285.421 253.024 285.673 252.996C285.748 252.986 285.823 252.977 285.893 252.968C286.075 252.944 286.253 252.921 286.43 252.893C286.524 252.879 286.617 252.86 286.711 252.842C286.87 252.813 287.028 252.785 287.183 252.753C287.281 252.734 287.374 252.711 287.472 252.687C287.626 252.655 287.776 252.613 287.93 252.575C288.024 252.552 288.117 252.528 288.21 252.5C288.369 252.458 288.523 252.407 288.678 252.36C288.762 252.332 288.846 252.309 288.93 252.281C289.117 252.215 289.304 252.15 289.491 252.075C289.537 252.057 289.584 252.043 289.626 252.024C289.855 251.93 290.079 251.837 290.304 251.734C290.364 251.706 290.43 251.673 290.49 251.645C290.649 251.571 290.808 251.491 290.967 251.407C290.99 251.393 291.018 251.384 291.042 251.37C291.187 251.29 291.327 251.211 291.472 251.127C291.696 250.996 291.911 250.861 292.116 250.725C292.149 250.702 292.186 250.678 292.224 250.655C292.415 250.524 292.602 250.393 292.775 250.258C292.808 250.23 292.841 250.206 292.873 250.178C292.925 250.136 292.976 250.099 293.027 250.057C293.098 249.996 293.163 249.935 293.228 249.879C293.298 249.819 293.368 249.758 293.439 249.693C293.541 249.594 293.635 249.496 293.728 249.398C293.784 249.337 293.84 249.281 293.892 249.221C293.906 249.207 293.92 249.193 293.929 249.179C294.041 249.048 294.144 248.912 294.238 248.772C294.261 248.739 294.28 248.707 294.303 248.669C294.354 248.595 294.406 248.52 294.448 248.44C294.48 248.384 294.508 248.328 294.537 248.272C294.555 248.239 294.574 248.202 294.593 248.169C294.663 248.029 294.723 247.884 294.775 247.735C294.779 247.716 294.784 247.698 294.789 247.679C294.798 247.655 294.803 247.627 294.812 247.604C294.868 247.445 294.915 247.268 294.943 247.09Z" fill="url(#paint55_linear_3388_103240)"/>
<path d="M304.289 237.157L295.735 231.803C297.118 230.682 297.893 228.953 294.324 226.724C291.955 225.239 289.661 224.93 287.914 225.949C286.306 226.897 286.848 228.196 290.553 231.859C292.586 233.887 294.006 235.615 294.88 237.129C295.081 237.48 295.254 237.821 295.398 238.143C296.767 241.255 295.548 243.343 292.441 245.175C286.199 248.842 277.149 247.198 269.263 242.264C261.058 237.134 259.217 231.957 265.081 227.673L273.645 233.032C271.426 234.788 271.972 236.952 275.285 239.026C278.387 240.97 281.111 241.367 283.064 240.222C285.045 239.054 283.919 237.395 280.139 233.447C273.514 226.542 274.271 223.575 278.597 221.034C282.433 218.782 290.446 217.296 300.514 223.594C309.405 229.149 308.999 233.91 304.289 237.157Z" fill="url(#paint56_linear_3388_103240)"/>
<path d="M340.061 235.143L339.262 241.124L332.399 245.408L312.939 256.388L309.057 254.098L309.085 253.897L305.398 251.725L306.169 245.945L313.743 250.412L333.193 239.428L340.061 235.143Z" fill="url(#paint57_linear_3388_103240)"/>
<path d="M309.085 253.897L309.057 254.098L308.902 254.01L309.085 253.897Z" fill="url(#paint58_linear_3388_103240)"/>
<path d="M340.063 235.144L333.195 239.428L313.745 250.412L306.172 245.946L323.716 233.84L330.588 229.56L340.063 235.144Z" fill="url(#paint59_linear_3388_103240)"/>
<path d="M309.056 254.098L308.285 259.873L299.141 265.578L290.367 260.401L291.161 254.425L299.94 259.593L308.902 254.01L309.056 254.098Z" fill="url(#paint60_linear_3388_103240)"/>
<path d="M309.085 253.897L309.057 254.098L308.902 254.01L309.085 253.897Z" fill="url(#paint61_linear_3388_103240)"/>
<path d="M309.082 253.897L308.9 254.01L299.939 259.593L291.16 254.425L300.304 248.721L305.396 251.725L309.082 253.897Z" fill="url(#paint62_linear_3388_103240)"/>
</g>
<defs>
<filter id="filter0_d_3388_103240" x="41.9609" y="71.1504" width="403.359" height="277.73" filterUnits="userSpaceOnUse" color-interpolation-filters="sRGB">
<feFlood flood-opacity="0" result="BackgroundImageFix"/>
<feColorMatrix in="SourceAlpha" type="matrix" values="0 0 0 0 0 0 0 0 0 0 0 0 0 0 0 0 0 0 127 0" result="hardAlpha"/>
<feMorphology radius="28" operator="dilate" in="SourceAlpha" result="effect1_dropShadow_3388_103240"/>
<feOffset dy="4"/>
<feGaussianBlur stdDeviation="6"/>
<feColorMatrix type="matrix" values="0 0 0 0 0.121458 0 0 0 0 0.182875 0 0 0 0 0.275 0 0 0 0.12 0"/>
<feBlend mode="multiply" in2="BackgroundImageFix" result="effect1_dropShadow_3388_103240"/>
<feBlend mode="normal" in="SourceGraphic" in2="effect1_dropShadow_3388_103240" result="shape"/>
</filter>
<filter id="filter1_d_3388_103240" x="-27.8516" y="206.483" width="230.695" height="179.2" filterUnits="userSpaceOnUse" color-interpolation-filters="sRGB">
<feFlood flood-opacity="0" result="BackgroundImageFix"/>
<feColorMatrix in="SourceAlpha" type="matrix" values="0 0 0 0 0 0 0 0 0 0 0 0 0 0 0 0 0 0 127 0" result="hardAlpha"/>
<feMorphology radius="28" operator="dilate" in="SourceAlpha" result="effect1_dropShadow_3388_103240"/>
<feOffset dy="4"/>
<feGaussianBlur stdDeviation="6"/>
<feColorMatrix type="matrix" values="0 0 0 0 0.121458 0 0 0 0 0.182875 0 0 0 0 0.275 0 0 0 0.12 0"/>
<feBlend mode="multiply" in2="BackgroundImageFix" result="effect1_dropShadow_3388_103240"/>
<feBlend mode="normal" in="SourceGraphic" in2="effect1_dropShadow_3388_103240" result="shape"/>
</filter>
<filter id="filter2_d_3388_103240" x="113.715" y="281.238" width="156.156" height="130.124" filterUnits="userSpaceOnUse" color-interpolation-filters="sRGB">
<feFlood flood-opacity="0" result="BackgroundImageFix"/>
<feColorMatrix in="SourceAlpha" type="matrix" values="0 0 0 0 0 0 0 0 0 0 0 0 0 0 0 0 0 0 127 0" result="hardAlpha"/>
<feMorphology radius="28" operator="dilate" in="SourceAlpha" result="effect1_dropShadow_3388_103240"/>
<feOffset dy="4"/>
<feGaussianBlur stdDeviation="6"/>
<feColorMatrix type="matrix" values="0 0 0 0 0.121458 0 0 0 0 0.182875 0 0 0 0 0.275 0 0 0 0.12 0"/>
<feBlend mode="multiply" in2="BackgroundImageFix" result="effect1_dropShadow_3388_103240"/>
<feBlend mode="normal" in="SourceGraphic" in2="effect1_dropShadow_3388_103240" result="shape"/>
</filter>
<filter id="filter3_d_3388_103240" x="213.23" y="281.705" width="130.703" height="113.372" filterUnits="userSpaceOnUse" color-interpolation-filters="sRGB">
<feFlood flood-opacity="0" result="BackgroundImageFix"/>
<feColorMatrix in="SourceAlpha" type="matrix" values="0 0 0 0 0 0 0 0 0 0 0 0 0 0 0 0 0 0 127 0" result="hardAlpha"/>
<feMorphology radius="28" operator="dilate" in="SourceAlpha" result="effect1_dropShadow_3388_103240"/>
<feOffset dy="4"/>
<feGaussianBlur stdDeviation="6"/>
<feColorMatrix type="matrix" values="0 0 0 0 0.121458 0 0 0 0 0.182875 0 0 0 0 0.275 0 0 0 0.12 0"/>
<feBlend mode="multiply" in2="BackgroundImageFix" result="effect1_dropShadow_3388_103240"/>
<feBlend mode="normal" in="SourceGraphic" in2="effect1_dropShadow_3388_103240" result="shape"/>
</filter>
<filter id="filter4_d_3388_103240" x="404.684" y="216.317" width="75.8164" height="59.3542" filterUnits="userSpaceOnUse" color-interpolation-filters="sRGB">
<feFlood flood-opacity="0" result="BackgroundImageFix"/>
<feColorMatrix in="SourceAlpha" type="matrix" values="0 0 0 0 0 0 0 0 0 0 0 0 0 0 0 0 0 0 127 0" result="hardAlpha"/>
<feOffset dy="4"/>
<feGaussianBlur stdDeviation="6"/>
<feComposite in2="hardAlpha" operator="out"/>
<feColorMatrix type="matrix" values="0 0 0 0 0 0 0 0 0 0 0 0 0 0 0 0 0 0 0.12 0"/>
<feBlend mode="normal" in2="BackgroundImageFix" result="effect1_dropShadow_3388_103240"/>
<feBlend mode="normal" in="SourceGraphic" in2="effect1_dropShadow_3388_103240" result="shape"/>
</filter>
<filter id="filter5_d_3388_103240" x="425.082" y="255.499" width="75.8242" height="59.3589" filterUnits="userSpaceOnUse" color-interpolation-filters="sRGB">
<feFlood flood-opacity="0" result="BackgroundImageFix"/>
<feColorMatrix in="SourceAlpha" type="matrix" values="0 0 0 0 0 0 0 0 0 0 0 0 0 0 0 0 0 0 127 0" result="hardAlpha"/>
<feOffset dy="4"/>
<feGaussianBlur stdDeviation="6"/>
<feComposite in2="hardAlpha" operator="out"/>
<feColorMatrix type="matrix" values="0 0 0 0 0 0 0 0 0 0 0 0 0 0 0 0 0 0 0.12 0"/>
<feBlend mode="normal" in2="BackgroundImageFix" result="effect1_dropShadow_3388_103240"/>
<feBlend mode="normal" in="SourceGraphic" in2="effect1_dropShadow_3388_103240" result="shape"/>
</filter>
<filter id="filter6_d_3388_103240" x="359.102" y="268.198" width="75.8164" height="59.3542" filterUnits="userSpaceOnUse" color-interpolation-filters="sRGB">
<feFlood flood-opacity="0" result="BackgroundImageFix"/>
<feColorMatrix in="SourceAlpha" type="matrix" values="0 0 0 0 0 0 0 0 0 0 0 0 0 0 0 0 0 0 127 0" result="hardAlpha"/>
<feOffset dy="4"/>
<feGaussianBlur stdDeviation="6"/>
<feComposite in2="hardAlpha" operator="out"/>
<feColorMatrix type="matrix" values="0 0 0 0 0 0 0 0 0 0 0 0 0 0 0 0 0 0 0.12 0"/>
<feBlend mode="normal" in2="BackgroundImageFix" result="effect1_dropShadow_3388_103240"/>
<feBlend mode="normal" in="SourceGraphic" in2="effect1_dropShadow_3388_103240" result="shape"/>
</filter>
<linearGradient id="paint0_linear_3388_103240" x1="230.654" y1="138.685" x2="257.631" y2="290.718" gradientUnits="userSpaceOnUse">
<stop stop-color="#F6ECFF"/>
<stop offset="1" stop-color="#CDD3F7"/>
</linearGradient>
<linearGradient id="paint1_linear_3388_103240" x1="423.762" y1="132.688" x2="410.481" y2="102.104" gradientUnits="userSpaceOnUse">
<stop stop-color="#FF9971"/>
<stop offset="1" stop-color="#EE4E00"/>
</linearGradient>
<linearGradient id="paint2_linear_3388_103240" x1="438.246" y1="168.897" x2="422.965" y2="126.995" gradientUnits="userSpaceOnUse">
<stop stop-color="#FF9971"/>
<stop offset="1" stop-color="#EE4E00"/>
</linearGradient>
<linearGradient id="paint3_linear_3388_103240" x1="445.721" y1="199.266" x2="429.095" y2="151.951" gradientUnits="userSpaceOnUse">
<stop stop-color="#FF9971"/>
<stop offset="1" stop-color="#EE4E00"/>
</linearGradient>
<linearGradient id="paint4_linear_3388_103240" x1="164.047" y1="264.379" x2="55.7547" y2="368.886" gradientUnits="userSpaceOnUse">
<stop stop-color="#D8DEFF"/>
<stop offset="1" stop-color="#E5EAFE"/>
</linearGradient>
<linearGradient id="paint5_linear_3388_103240" x1="42.5445" y1="261.522" x2="51.0868" y2="343.282" gradientUnits="userSpaceOnUse">
<stop stop-color="#FF9971"/>
<stop offset="1" stop-color="#EE4E00"/>
</linearGradient>
<linearGradient id="paint6_linear_3388_103240" x1="230.476" y1="328.293" x2="175.747" y2="381.11" gradientUnits="userSpaceOnUse">
<stop stop-color="#D8DEFF"/>
<stop offset="1" stop-color="#E5EAFE"/>
</linearGradient>
<linearGradient id="paint7_linear_3388_103240" x1="165.528" y1="353.701" x2="161.523" y2="356.362" gradientUnits="userSpaceOnUse">
<stop stop-color="#D8DEFF"/>
<stop offset="1" stop-color="#E5EAFE"/>
</linearGradient>
<linearGradient id="paint8_linear_3388_103240" x1="169.078" y1="326.859" x2="173.394" y2="368.18" gradientUnits="userSpaceOnUse">
<stop stop-color="#FF9971"/>
<stop offset="1" stop-color="#EE4E00"/>
</linearGradient>
<linearGradient id="paint9_linear_3388_103240" x1="165.928" y1="327.907" x2="160.609" y2="330.236" gradientUnits="userSpaceOnUse">
<stop stop-color="#D8DEFF"/>
<stop offset="1" stop-color="#E5EAFE"/>
</linearGradient>
<linearGradient id="paint10_linear_3388_103240" x1="220.752" y1="328.358" x2="217.399" y2="330.073" gradientUnits="userSpaceOnUse">
<stop stop-color="#D8DEFF"/>
<stop offset="1" stop-color="#E5EAFE"/>
</linearGradient>
<linearGradient id="paint11_linear_3388_103240" x1="222.275" y1="353.862" x2="218.923" y2="355.577" gradientUnits="userSpaceOnUse">
<stop stop-color="#D8DEFF"/>
<stop offset="1" stop-color="#E5EAFE"/>
</linearGradient>
<linearGradient id="paint12_linear_3388_103240" x1="304.337" y1="325.065" x2="267.899" y2="360.23" gradientUnits="userSpaceOnUse">
<stop stop-color="#D8DEFF"/>
<stop offset="1" stop-color="#E5EAFE"/>
</linearGradient>
<linearGradient id="paint13_linear_3388_103240" x1="263.459" y1="324.111" x2="266.333" y2="351.621" gradientUnits="userSpaceOnUse">
<stop stop-color="#FF9971"/>
<stop offset="1" stop-color="#EE4E00"/>
</linearGradient>
<linearGradient id="paint14_linear_3388_103240" x1="261.366" y1="324.808" x2="257.825" y2="326.359" gradientUnits="userSpaceOnUse">
<stop stop-color="#D8DEFF"/>
<stop offset="1" stop-color="#E5EAFE"/>
</linearGradient>
<linearGradient id="paint15_linear_3388_103240" x1="297.862" y1="325.108" x2="295.63" y2="326.251" gradientUnits="userSpaceOnUse">
<stop stop-color="#D8DEFF"/>
<stop offset="1" stop-color="#E5EAFE"/>
</linearGradient>
<linearGradient id="paint16_linear_3388_103240" x1="298.877" y1="342.088" x2="296.645" y2="343.23" gradientUnits="userSpaceOnUse">
<stop stop-color="#D8DEFF"/>
<stop offset="1" stop-color="#E5EAFE"/>
</linearGradient>
<linearGradient id="paint17_linear_3388_103240" x1="309.441" y1="129.951" x2="316.772" y2="168.047" gradientUnits="userSpaceOnUse">
<stop stop-color="#F6ECFF"/>
<stop offset="1" stop-color="#CDD3F7"/>
</linearGradient>
<linearGradient id="paint18_linear_3388_103240" x1="55.5934" y1="82.6929" x2="18.9362" y2="213.91" gradientUnits="userSpaceOnUse">
<stop stop-color="#F6ECFF"/>
<stop offset="1" stop-color="#CDD3F7"/>
</linearGradient>
<linearGradient id="paint19_linear_3388_103240" x1="95.3111" y1="67.2786" x2="-13.729" y2="197.023" gradientUnits="userSpaceOnUse">
<stop stop-color="#FF9971"/>
<stop offset="1" stop-color="#EE4E00"/>
</linearGradient>
<linearGradient id="paint20_linear_3388_103240" x1="439.361" y1="227.524" x2="445.226" y2="259.693" gradientUnits="userSpaceOnUse">
<stop stop-color="#F6ECFF"/>
<stop offset="1" stop-color="#CDD3F7"/>
</linearGradient>
<linearGradient id="paint21_linear_3388_103240" x1="442.572" y1="267.079" x2="442.572" y2="231.523" gradientUnits="userSpaceOnUse">
<stop stop-color="#FD9788"/>
<stop offset="1" stop-color="#FDE19B"/>
</linearGradient>
<linearGradient id="paint22_linear_3388_103240" x1="459.762" y1="266.709" x2="465.627" y2="298.878" gradientUnits="userSpaceOnUse">
<stop stop-color="#F6ECFF"/>
<stop offset="1" stop-color="#CDD3F7"/>
</linearGradient>
<linearGradient id="paint23_linear_3388_103240" x1="462.972" y1="306.264" x2="462.972" y2="270.708" gradientUnits="userSpaceOnUse">
<stop stop-color="#FD9788"/>
<stop offset="1" stop-color="#FDE19B"/>
</linearGradient>
<linearGradient id="paint24_linear_3388_103240" x1="393.779" y1="279.408" x2="399.644" y2="311.577" gradientUnits="userSpaceOnUse">
<stop stop-color="#F6ECFF"/>
<stop offset="1" stop-color="#CDD3F7"/>
</linearGradient>
<linearGradient id="paint25_linear_3388_103240" x1="396.989" y1="318.963" x2="396.989" y2="283.407" gradientUnits="userSpaceOnUse">
<stop stop-color="#FD9788"/>
<stop offset="1" stop-color="#FDE19B"/>
</linearGradient>
<linearGradient id="paint26_linear_3388_103240" x1="194.245" y1="154.165" x2="172.898" y2="179.798" gradientUnits="userSpaceOnUse">
<stop stop-color="#D8DEFF"/>
<stop offset="1" stop-color="#E5EAFE"/>
</linearGradient>
<linearGradient id="paint27_linear_3388_103240" x1="205.48" y1="164.774" x2="177.239" y2="204.366" gradientUnits="userSpaceOnUse">
<stop stop-color="#D8DEFF"/>
<stop offset="1" stop-color="#E5EAFE"/>
</linearGradient>
<linearGradient id="paint28_linear_3388_103240" x1="203.524" y1="171.337" x2="203.487" y2="171.344" gradientUnits="userSpaceOnUse">
<stop stop-color="#D8DEFF"/>
<stop offset="1" stop-color="#E5EAFE"/>
</linearGradient>
<linearGradient id="paint29_linear_3388_103240" x1="205.001" y1="163.966" x2="204.746" y2="164" gradientUnits="userSpaceOnUse">
<stop stop-color="#D8DEFF"/>
<stop offset="1" stop-color="#E5EAFE"/>
</linearGradient>
<linearGradient id="paint30_linear_3388_103240" x1="202.668" y1="173.181" x2="202.551" y2="173.219" gradientUnits="userSpaceOnUse">
<stop stop-color="#D8DEFF"/>
<stop offset="1" stop-color="#E5EAFE"/>
</linearGradient>
<linearGradient id="paint31_linear_3388_103240" x1="203.497" y1="171.407" x2="203.459" y2="171.414" gradientUnits="userSpaceOnUse">
<stop stop-color="#D8DEFF"/>
<stop offset="1" stop-color="#E5EAFE"/>
</linearGradient>
<linearGradient id="paint32_linear_3388_103240" x1="202.574" y1="173.321" x2="202.516" y2="173.341" gradientUnits="userSpaceOnUse">
<stop stop-color="#D8DEFF"/>
<stop offset="1" stop-color="#E5EAFE"/>
</linearGradient>
<linearGradient id="paint33_linear_3388_103240" x1="199.348" y1="172.119" x2="199.005" y2="172.378" gradientUnits="userSpaceOnUse">
<stop stop-color="#D8DEFF"/>
<stop offset="1" stop-color="#E5EAFE"/>
</linearGradient>
<linearGradient id="paint34_linear_3388_103240" x1="157.698" y1="151.793" x2="160.948" y2="183.47" gradientUnits="userSpaceOnUse">
<stop stop-color="#FF9971"/>
<stop offset="1" stop-color="#EE4E00"/>
</linearGradient>
<linearGradient id="paint35_linear_3388_103240" x1="224.451" y1="184.374" x2="206.984" y2="202.139" gradientUnits="userSpaceOnUse">
<stop stop-color="#D8DEFF"/>
<stop offset="1" stop-color="#E5EAFE"/>
</linearGradient>
<linearGradient id="paint36_linear_3388_103240" x1="235.377" y1="191.75" x2="211.532" y2="223.409" gradientUnits="userSpaceOnUse">
<stop stop-color="#D8DEFF"/>
<stop offset="1" stop-color="#E5EAFE"/>
</linearGradient>
<linearGradient id="paint37_linear_3388_103240" x1="197.807" y1="181.274" x2="200.35" y2="206.108" gradientUnits="userSpaceOnUse">
<stop stop-color="#FF9971"/>
<stop offset="1" stop-color="#EE4E00"/>
</linearGradient>
<linearGradient id="paint38_linear_3388_103240" x1="257.097" y1="199.091" x2="251.381" y2="200.873" gradientUnits="userSpaceOnUse">
<stop stop-color="#D8DEFF"/>
<stop offset="1" stop-color="#E5EAFE"/>
</linearGradient>
<linearGradient id="paint39_linear_3388_103240" x1="257.097" y1="199.091" x2="251.381" y2="200.873" gradientUnits="userSpaceOnUse">
<stop stop-color="#D8DEFF"/>
<stop offset="1" stop-color="#E5EAFE"/>
</linearGradient>
<linearGradient id="paint40_linear_3388_103240" x1="261.242" y1="205.816" x2="243.572" y2="223.477" gradientUnits="userSpaceOnUse">
<stop stop-color="#D8DEFF"/>
<stop offset="1" stop-color="#E5EAFE"/>
</linearGradient>
<linearGradient id="paint41_linear_3388_103240" x1="230.104" y1="217.183" x2="212.825" y2="233.686" gradientUnits="userSpaceOnUse">
<stop stop-color="#D8DEFF"/>
<stop offset="1" stop-color="#E5EAFE"/>
</linearGradient>
<linearGradient id="paint42_linear_3388_103240" x1="273.325" y1="214.587" x2="251.171" y2="243.95" gradientUnits="userSpaceOnUse">
<stop stop-color="#D8DEFF"/>
<stop offset="1" stop-color="#E5EAFE"/>
</linearGradient>
<linearGradient id="paint43_linear_3388_103240" x1="229.819" y1="214.997" x2="230.224" y2="215.323" gradientUnits="userSpaceOnUse">
<stop stop-color="#FF9971"/>
<stop offset="1" stop-color="#EE4E00"/>
</linearGradient>
<linearGradient id="paint44_linear_3388_103240" x1="220.27" y1="199.263" x2="222.699" y2="228.192" gradientUnits="userSpaceOnUse">
<stop stop-color="#FF9971"/>
<stop offset="1" stop-color="#EE4E00"/>
</linearGradient>
<linearGradient id="paint45_linear_3388_103240" x1="296.982" y1="227.098" x2="285.924" y2="233.659" gradientUnits="userSpaceOnUse">
<stop stop-color="#D8DEFF"/>
<stop offset="1" stop-color="#E5EAFE"/>
</linearGradient>
<linearGradient id="paint46_linear_3388_103240" x1="304.365" y1="233.632" x2="293.843" y2="238.807" gradientUnits="userSpaceOnUse">
<stop stop-color="#D8DEFF"/>
<stop offset="1" stop-color="#E5EAFE"/>
</linearGradient>
<linearGradient id="paint47_linear_3388_103240" x1="307.556" y1="234.479" x2="302.062" y2="235.798" gradientUnits="userSpaceOnUse">
<stop stop-color="#D8DEFF"/>
<stop offset="1" stop-color="#E5EAFE"/>
</linearGradient>
<linearGradient id="paint48_linear_3388_103240" x1="307.556" y1="234.478" x2="302.062" y2="235.797" gradientUnits="userSpaceOnUse">
<stop stop-color="#D8DEFF"/>
<stop offset="1" stop-color="#E5EAFE"/>
</linearGradient>
<linearGradient id="paint49_linear_3388_103240" x1="273.643" y1="234.002" x2="272.218" y2="234.147" gradientUnits="userSpaceOnUse">
<stop stop-color="#D8DEFF"/>
<stop offset="1" stop-color="#E5EAFE"/>
</linearGradient>
<linearGradient id="paint50_linear_3388_103240" x1="273.561" y1="234.152" x2="271.468" y2="234.444" gradientUnits="userSpaceOnUse">
<stop stop-color="#D8DEFF"/>
<stop offset="1" stop-color="#E5EAFE"/>
</linearGradient>
<linearGradient id="paint51_linear_3388_103240" x1="272.976" y1="234.703" x2="271.205" y2="234.914" gradientUnits="userSpaceOnUse">
<stop stop-color="#D8DEFF"/>
<stop offset="1" stop-color="#E5EAFE"/>
</linearGradient>
<linearGradient id="paint52_linear_3388_103240" x1="272.636" y1="235.174" x2="271.052" y2="235.343" gradientUnits="userSpaceOnUse">
<stop stop-color="#D8DEFF"/>
<stop offset="1" stop-color="#E5EAFE"/>
</linearGradient>
<linearGradient id="paint53_linear_3388_103240" x1="272.435" y1="235.605" x2="270.989" y2="235.746" gradientUnits="userSpaceOnUse">
<stop stop-color="#D8DEFF"/>
<stop offset="1" stop-color="#E5EAFE"/>
</linearGradient>
<linearGradient id="paint54_linear_3388_103240" x1="284.091" y1="228.075" x2="271.61" y2="231.618" gradientUnits="userSpaceOnUse">
<stop stop-color="#D8DEFF"/>
<stop offset="1" stop-color="#E5EAFE"/>
</linearGradient>
<linearGradient id="paint55_linear_3388_103240" x1="296.178" y1="235.681" x2="271.748" y2="260.113" gradientUnits="userSpaceOnUse">
<stop stop-color="#D8DEFF"/>
<stop offset="1" stop-color="#E5EAFE"/>
</linearGradient>
<linearGradient id="paint56_linear_3388_103240" x1="270.92" y1="224.889" x2="273.517" y2="249.776" gradientUnits="userSpaceOnUse">
<stop stop-color="#FF9971"/>
<stop offset="1" stop-color="#EE4E00"/>
</linearGradient>
<linearGradient id="paint57_linear_3388_103240" x1="340.338" y1="238.581" x2="315.395" y2="262.62" gradientUnits="userSpaceOnUse">
<stop stop-color="#D8DEFF"/>
<stop offset="1" stop-color="#E5EAFE"/>
</linearGradient>
<linearGradient id="paint58_linear_3388_103240" x1="309.086" y1="253.93" x2="308.89" y2="254.035" gradientUnits="userSpaceOnUse">
<stop stop-color="#D8DEFF"/>
<stop offset="1" stop-color="#E5EAFE"/>
</linearGradient>
<linearGradient id="paint59_linear_3388_103240" x1="313.009" y1="233.865" x2="314.95" y2="252.348" gradientUnits="userSpaceOnUse">
<stop stop-color="#FF9971"/>
<stop offset="1" stop-color="#EE4E00"/>
</linearGradient>
<linearGradient id="paint60_linear_3388_103240" x1="309.205" y1="255.881" x2="295.628" y2="268.837" gradientUnits="userSpaceOnUse">
<stop stop-color="#D8DEFF"/>
<stop offset="1" stop-color="#E5EAFE"/>
</linearGradient>
<linearGradient id="paint61_linear_3388_103240" x1="309.086" y1="253.93" x2="308.89" y2="254.035" gradientUnits="userSpaceOnUse">
<stop stop-color="#D8DEFF"/>
<stop offset="1" stop-color="#E5EAFE"/>
</linearGradient>
<linearGradient id="paint62_linear_3388_103240" x1="294.775" y1="250.965" x2="295.774" y2="260.605" gradientUnits="userSpaceOnUse">
<stop stop-color="#FF9971"/>
<stop offset="1" stop-color="#EE4E00"/>
</linearGradient>
<clipPath id="clip0_3388_103240">
<rect  width="488.901" height="397" fill="none"/>
</clipPath>
</defs>
</svg>
