<svg width="14" height="14" viewBox="0 0 14 14" fill="none" xmlns="http://www.w3.org/2000/svg">
<path d="M12.7998 7.75161H12.0102C11.83 7.09905 11.4646 6.50313 10.9594 6.00423C11.1437 5.66207 11.4036 5.37993 11.4062 5.37722C11.4821 5.29573 11.5083 5.17952 11.4745 5.0733C11.4407 4.96708 11.3522 4.88739 11.2431 4.86481C11.2242 4.86092 11.0512 4.82675 10.7843 4.82675C10.5 4.82675 10.0649 4.86728 9.60172 5.05856C8.83697 4.68981 7.94632 4.47725 6.99565 4.47725C5.40477 4.47725 3.98055 5.07034 3.03673 5.99973C2.97776 5.89968 2.90547 5.79796 2.81714 5.70352C2.856 5.53969 2.88116 5.35476 2.88912 5.14701C2.8956 4.97683 2.76292 4.83354 2.59267 4.827C2.42329 4.82034 2.27919 4.95314 2.27265 5.12345C2.26969 5.20154 2.26402 5.27451 2.25594 5.34274C2.22072 5.33132 2.18432 5.32121 2.14676 5.31251C1.54522 5.17298 1.22983 5.39301 1.0953 5.53655C0.917957 5.72567 0.84844 5.99745 0.918204 6.22895C1.02769 6.59239 1.42185 6.82672 1.83458 6.77374C2.0757 6.74289 2.32891 6.61243 2.52704 6.35133C2.55566 6.40363 2.57897 6.45483 2.59803 6.50202C2.12622 7.13619 1.85425 7.87997 1.85425 8.67458C1.85425 9.68379 2.29295 10.6108 3.0226 11.3356L2.62437 13.0215C2.60272 13.1132 2.62419 13.2099 2.68266 13.2838C2.74114 13.3577 2.83027 13.4008 2.92453 13.4008H4.28157C4.41702 13.4008 4.53663 13.3124 4.57642 13.1829L4.79607 12.4676C5.46336 12.7266 6.209 12.872 6.99565 12.872C7.7823 12.872 8.52793 12.7266 9.19523 12.4676L9.41488 13.183C9.45467 13.3125 9.57427 13.4008 9.70973 13.4008H11.0668C11.161 13.4008 11.2502 13.3577 11.3086 13.2838C11.3671 13.2099 11.3886 13.1133 11.3669 13.0216L10.9687 11.3356C11.3503 10.9566 11.6511 10.5219 11.8524 10.0494H12.7998C12.9701 10.0494 13.1083 9.91128 13.1083 9.74097V8.06009C13.1082 7.88972 12.9701 7.75161 12.7998 7.75161ZM1.75636 6.1619C1.63312 6.17756 1.52881 6.1173 1.50907 6.05185C1.50697 6.04248 1.50753 5.99578 1.54917 5.95439C1.59586 5.90801 1.67636 5.88438 1.78091 5.88438C1.84753 5.88438 1.92383 5.89394 2.00735 5.91331C2.02974 5.91849 2.05146 5.92478 2.07243 5.93194C1.97898 6.07733 1.86486 6.14802 1.75636 6.1619ZM8.42406 6.18546C8.33431 6.3293 8.14556 6.37359 8.00128 6.2852C7.98956 6.27829 7.6115 6.06123 6.92872 6.06123C6.21455 6.06123 5.66445 6.36015 5.65903 6.36317C5.61178 6.3892 5.5607 6.4016 5.51031 6.4016C5.40162 6.4016 5.2962 6.34399 5.24001 6.24215C5.15772 6.09299 5.21194 5.90541 5.36103 5.82313C5.3891 5.80771 6.05744 5.44445 6.92878 5.44445C7.80889 5.44445 8.30507 5.74775 8.32573 5.76058C8.47013 5.8507 8.51418 6.04099 8.42406 6.18546ZM10.1628 8.52395C9.784 8.52395 9.47589 8.19191 9.47589 7.78374C9.47589 7.37558 9.78406 7.04354 10.1628 7.04354C10.5415 7.04354 10.8498 7.37558 10.8498 7.78374C10.8498 8.19191 10.5415 8.52395 10.1628 8.52395ZM8.37909 2.24005C8.37909 3.03367 7.73345 3.67931 6.93983 3.67931C6.1462 3.67931 5.5005 3.03367 5.5005 2.24005C5.5005 1.44642 6.1462 0.800781 6.93983 0.800781C7.73345 0.800781 8.37909 1.44642 8.37909 2.24005Z" fill="#777E91"/>
</svg>
