<svg width="34" height="34" viewBox="0 0 34 34" fill="none" xmlns="http://www.w3.org/2000/svg">
<path d="M17.0002 33.6667C26.2363 33.6667 33.6668 26.2362 33.6668 17C33.6668 7.76384 26.2363 0.333344 17.0002 0.333344C7.764 0.333344 0.333496 7.76384 0.333496 17C0.333496 26.2362 7.764 33.6667 17.0002 33.6667Z" fill="#2775CA"/>
<path d="M21.5843 19.6387C21.5843 17.2082 20.126 16.3749 17.2093 16.0277C15.126 15.7499 14.7093 15.1944 14.7093 14.222C14.7093 13.2497 15.4038 12.6249 16.7926 12.6249C18.0426 12.6249 18.7371 13.0415 19.0843 14.0832C19.1538 14.2915 19.3621 14.4304 19.5705 14.4304H20.6815C20.9593 14.4304 21.1676 14.222 21.1676 13.9444V13.8749C20.8898 12.347 19.6398 11.1665 18.0426 11.0277V9.36103C18.0426 9.08319 17.8343 8.87486 17.4871 8.80536H16.4455C16.1676 8.80536 15.9593 9.01369 15.8898 9.36103V10.9582C13.8065 11.236 12.4871 12.6249 12.4871 14.361C12.4871 16.6527 13.876 17.5554 16.7926 17.9027C18.7371 18.2499 19.3621 18.6665 19.3621 19.7777C19.3621 20.8889 18.3898 21.6527 17.0705 21.6527C15.2648 21.6527 14.6398 20.8887 14.4315 19.847C14.3621 19.5694 14.1538 19.4304 13.9455 19.4304H12.7648C12.4871 19.4304 12.2788 19.6387 12.2788 19.9165V19.986C12.5565 21.722 13.6676 22.972 15.9593 23.3194V24.986C15.9593 25.2637 16.1676 25.472 16.5148 25.5415H17.5565C17.8343 25.5415 18.0426 25.3332 18.1121 24.986V23.3194C20.1955 22.972 21.5843 21.5137 21.5843 19.6387Z" fill="white"/>
<path d="M13.4585 26.9305C8.04188 24.9861 5.26405 18.9445 7.27805 13.5971C8.31972 10.6805 10.6114 8.45829 13.4585 7.41663C13.7364 7.27779 13.8752 7.06946 13.8752 6.72212V5.74996C13.8752 5.47212 13.7364 5.26379 13.4585 5.19446C13.389 5.19446 13.2502 5.19446 13.1807 5.26379C6.58355 7.34713 2.97238 14.3611 5.05571 20.9583C6.30571 24.8471 9.29188 27.8333 13.1807 29.0833C13.4585 29.2221 13.7364 29.0833 13.8057 28.8055C13.8752 28.7361 13.8752 28.6666 13.8752 28.5278V27.5555C13.8752 27.3471 13.6669 27.0695 13.4585 26.9305ZM20.8197 5.26379C20.5419 5.12496 20.264 5.26379 20.1947 5.54162C20.1252 5.61112 20.1252 5.68046 20.1252 5.81946V6.79163C20.1252 7.06946 20.3335 7.34713 20.5419 7.48613C25.9585 9.43046 28.7364 15.4721 26.7224 20.8195C25.6807 23.7361 23.389 25.9583 20.5419 27C20.264 27.1388 20.1252 27.3471 20.1252 27.6945V28.6666C20.1252 28.9445 20.264 29.1528 20.5419 29.2221C20.6114 29.2221 20.7502 29.2221 20.8197 29.1528C27.4169 27.0695 31.0281 20.0555 28.9447 13.4583C27.6947 9.49996 24.639 6.51379 20.8197 5.26379Z" fill="white"/>
</svg>
