<svg width="34" height="34" viewBox="0 0 34 34" fill="none" xmlns="http://www.w3.org/2000/svg">
<g clip-path="url(#clip0)">
<path d="M33.6668 17C33.6668 25.1612 27.8008 31.9524 20.0546 33.387C19.0648 33.5708 18.0437 33.6666 17.0002 33.6666C15.8532 33.6666 14.7335 33.551 13.6519 33.3299C6.05186 31.7803 0.333496 25.0578 0.333496 17C0.333496 12.5571 2.0723 8.51906 4.90693 5.53195C5.07087 5.35851 5.2389 5.18911 5.41032 5.02309C8.40967 2.11971 12.4961 0.333313 17.0002 0.333313C21.5043 0.333313 25.5907 2.11971 28.5899 5.02309C28.6607 5.09113 28.7308 5.16053 28.8002 5.22986C31.8077 8.24419 33.6668 12.4054 33.6668 17Z" fill="#1BA27A"/>
<path d="M19.7016 15.5622V12.3204H27.4363V7.27777H6.30483V12.3204H14.0389V15.5747C7.79151 15.8899 3.11133 17.1819 3.11133 18.7281C3.11133 20.2741 7.79151 21.5661 14.0389 21.8814V31.9839C14.9956 32.1769 15.9859 32.2778 17.0002 32.2778C17.9232 32.2778 18.8262 32.1941 19.7016 32.0338V21.8939C26.079 21.6018 30.8891 20.2955 30.8891 18.7281C30.8891 17.1606 26.079 15.8544 19.7016 15.5622ZM17.0002 20.7207C10.0314 20.7207 4.38204 19.6846 4.38204 18.4063C4.38204 17.315 8.49904 16.4 14.039 16.156V19.8627C14.9782 19.9963 15.9245 20.0634 16.8703 20.0634C17.8167 20.0634 18.7631 19.9963 19.7016 19.8627V16.1447C25.3721 16.3721 29.6179 17.2977 29.6179 18.4062C29.6178 19.6846 23.9684 20.7207 17.0002 20.7207Z" fill="white"/>
</g>
<defs>
<clipPath id="clip0">
<rect width="33.3333" height="33.3333" fill="white" transform="translate(0.333496 0.333313)"/>
</clipPath>
</defs>
</svg>
