<svg width="16" height="16" viewBox="0 0 16 16" fill="none" xmlns="http://www.w3.org/2000/svg">
<path d="M5.87581 13.9586C2.62581 12.792 0.959113 9.16699 2.16751 5.95859C2.79251 4.20859 4.16751 2.87529 5.87581 2.25029C6.04251 2.16699 6.12581 2.04199 6.12581 1.83359V1.25029C6.12581 1.08359 6.04251 0.958592 5.87581 0.916992C5.83411 0.916992 5.75081 0.916992 5.70911 0.958592C1.75081 2.20859 -0.415888 6.41699 0.834112 10.3753C1.58411 12.7086 3.37581 14.5003 5.70911 15.2503C5.87581 15.3336 6.04251 15.2503 6.08411 15.0836C6.12581 15.042 6.12581 15.0003 6.12581 14.917V14.3336C6.12581 14.2086 6.00081 14.042 5.87581 13.9586ZM10.2925 0.958592C10.1258 0.875292 9.95911 0.958592 9.91751 1.12529C9.87581 1.16699 9.87581 1.20859 9.87581 1.29199V1.87529C9.87581 2.04199 10.0008 2.20859 10.1258 2.29199C13.3758 3.45859 15.0425 7.08359 13.8341 10.292C13.2091 12.042 11.8341 13.3753 10.1258 14.0003C9.95911 14.0836 9.87581 14.2086 9.87581 14.417V15.0003C9.87581 15.167 9.95911 15.292 10.1258 15.3336C10.1675 15.3336 10.2508 15.3336 10.2925 15.292C14.2508 14.042 16.4175 9.83359 15.1675 5.87529C14.4175 3.50029 12.5841 1.70859 10.2925 0.958592Z" fill="white"/>
</svg>
