<svg width="16" height="16" viewBox="0 0 16 16" fill="none" xmlns="http://www.w3.org/2000/svg">
<g clip-path="url(#clip0)">
<path d="M9.05033 3.29971H1.75055C0.787746 3.29971 0 4.08746 0 5.05026V10.9496C0 11.9124 0.787746 12.7002 1.75055 12.7002H9.05033C10.0131 12.7002 10.8009 11.9124 10.8009 10.9496V5.05026C10.8009 4.06995 10.0131 3.29971 9.05033 3.29971Z" fill="#777E91"/>
<path d="M14.7047 4.26257C14.5997 4.28008 14.4947 4.33259 14.4071 4.38511L11.6763 5.9606V10.0219L14.4246 11.5974C14.9323 11.895 15.5625 11.7199 15.8601 11.2122C15.9476 11.0547 16.0001 10.8796 16.0001 10.6871V5.27789C16.0001 4.63019 15.3874 4.10502 14.7047 4.26257Z" fill="#777E91"/>
</g>
<defs>
<clipPath id="clip0">
<rect width="16" height="16" fill="white"/>
</clipPath>
</defs>
</svg>
