<svg width="30" height="30" viewBox="0 0 30 30" fill="none" xmlns="http://www.w3.org/2000/svg">
<g clip-path="url(#clip0)">
<path d="M18.7798 11.2617C17.0065 11.2617 15.4218 12.111 15.4218 13.6801C15.4218 15.4795 18.2323 15.6038 18.2323 16.5078C18.2323 16.8884 17.7602 17.2292 16.9539 17.2292C15.8096 17.2292 14.9543 16.7531 14.9543 16.7531L14.5884 18.3365C14.5884 18.3365 15.5736 18.7386 16.8817 18.7386C18.8205 18.7386 20.3461 17.8477 20.3461 16.2517C20.3461 14.3503 17.5238 14.2297 17.5238 13.3906C17.5238 13.0925 17.9114 12.7658 18.7154 12.7658C19.6226 12.7658 20.3627 13.112 20.3627 13.112L20.7209 11.5827C20.7209 11.5827 19.9155 11.2617 18.7798 11.2617ZM2.55563 11.3771L2.5127 11.608C2.5127 11.608 3.25874 11.7341 3.93066 11.9858C4.79583 12.2744 4.85746 12.4424 5.00317 12.9641L6.59094 18.6196H8.71936L11.9984 11.3771H9.87481L7.76787 16.3013L6.90811 12.1274C6.82926 11.6496 6.42987 11.3771 5.941 11.3771H2.55563ZM12.8523 11.3771L11.1864 18.6196H13.2114L14.8714 11.3771H12.8523ZM24.1462 11.3771C23.6579 11.3771 23.3992 11.6187 23.2094 12.0408L20.2427 18.6196H22.3662L22.7771 17.5231H25.3642L25.614 18.6196H27.4877L25.8531 11.3771H24.1462ZM24.4224 13.3338L25.0519 16.0516H23.3655L24.4224 13.3338Z" fill="#777E91"/>
</g>
<defs>
<clipPath id="clip0">
<rect width="25" height="7.5" fill="white" transform="translate(2.5 11.25)"/>
</clipPath>
</defs>
</svg>
