<svg width="30" height="30" viewBox="0 0 30 30" fill="none" xmlns="http://www.w3.org/2000/svg">
<path d="M24.9999 14.6551V22.9309C24.9999 23.4796 24.7819 24.0059 24.3939 24.3939C24.0059 24.7819 23.4796 24.9999 22.9309 24.9999H7.06895C6.52023 24.9999 5.99399 24.7819 5.60598 24.3939C5.21798 24.0059 5 23.4796 5 22.9309V7.06895C5 6.52023 5.21798 5.99399 5.60598 5.60598C5.99399 5.21798 6.52023 5 7.06895 5H15.3448C15.6191 5 15.8822 5.10899 16.0762 5.30299C16.2703 5.49699 16.3792 5.76012 16.3792 6.03448C16.3792 6.30884 16.2703 6.57196 16.0762 6.76596C15.8822 6.95996 15.6191 7.06895 15.3448 7.06895H7.7586C7.57586 7.0695 7.40077 7.14233 7.27155 7.27155C7.14233 7.40077 7.0695 7.57586 7.06895 7.7586V22.2413C7.0695 22.424 7.14233 22.5991 7.27155 22.7283C7.40077 22.8575 7.57586 22.9304 7.7586 22.9309H22.2413C22.424 22.9304 22.5991 22.8575 22.7283 22.7283C22.8575 22.5991 22.9304 22.424 22.9309 22.2413V14.6551C22.9309 14.3808 23.0399 14.1176 23.2339 13.9236C23.4279 13.7296 23.691 13.6206 23.9654 13.6206C24.2398 13.6206 24.5029 13.7296 24.6969 13.9236C24.8909 14.1176 24.9999 14.3808 24.9999 14.6551Z" fill="#777E91"/>
<path d="M25.002 5.68965V10.5172C25.002 10.7916 24.893 11.0547 24.699 11.2487C24.505 11.4427 24.2418 11.5517 23.9675 11.5517C23.6931 11.5517 23.43 11.4427 23.236 11.2487C23.042 11.0547 22.933 10.7916 22.933 10.5172V8.53101L16.7124 14.7517C16.5163 14.9344 16.2569 15.0339 15.9889 15.0292C15.7209 15.0244 15.4652 14.9159 15.2756 14.7263C15.0861 14.5368 14.9775 14.2811 14.9728 14.0131C14.9681 13.7451 15.0676 13.4857 15.2503 13.2896L21.471 7.06895H19.4848C19.2104 7.06895 18.9473 6.95996 18.7533 6.76596C18.5593 6.57196 18.4503 6.30884 18.4503 6.03448C18.4503 5.76012 18.5593 5.49699 18.7533 5.30299C18.9473 5.10899 19.2104 5 19.4848 5H24.3123C24.4951 5.00055 24.6702 5.07338 24.7994 5.2026C24.9286 5.33181 25.0014 5.50691 25.002 5.68965Z" fill="#777E91"/>
</svg>
